<?xml version="1.0" encoding="UTF-8" standalone="no"?>
<!-- Created with Inkscape (http://www.inkscape.org/) -->

<svg
   width="260mm"
   height="70mm"
   viewBox="0 0 260 70"
   version="1.1"
   id="svg1"
   xml:space="preserve"
   inkscape:version="1.3.2 (091e20e, 2023-11-25, custom)"
   sodipodi:docname="VdP_only.svg"
   xmlns:inkscape="http://www.inkscape.org/namespaces/inkscape"
   xmlns:sodipodi="http://sodipodi.sourceforge.net/DTD/sodipodi-0.dtd"
   xmlns="http://www.w3.org/2000/svg"
   xmlns:svg="http://www.w3.org/2000/svg"><sodipodi:namedview
     id="namedview1"
     pagecolor="#ffffff"
     bordercolor="#000000"
     borderopacity="0.25"
     inkscape:showpageshadow="2"
     inkscape:pageopacity="0.0"
     inkscape:pagecheckerboard="0"
     inkscape:deskcolor="#d1d1d1"
     inkscape:document-units="mm"
     inkscape:zoom="0.9461521"
     inkscape:cx="484.06593"
     inkscape:cy="171.74828"
     inkscape:window-width="1920"
     inkscape:window-height="986"
     inkscape:window-x="-11"
     inkscape:window-y="-11"
     inkscape:window-maximized="1"
     inkscape:current-layer="layer1" /><defs
     id="defs1" /><g
     inkscape:label="Layer 1"
     inkscape:groupmode="layer"
     id="layer1"><g
       transform="matrix(0.14375,0,0,0.14375067,-18.017208,16.418541)"
       id="g3043"><path
         d="m 449.8618,-50.588443 c 1.54642,0.75327 3.52708,0.108558 4.30474,-1.484389 0.77321,-1.588517 0.0664,-3.549235 -1.47996,-4.304722 -1.58852,-0.773213 -3.53153,-0.10413 -4.30474,1.484387 -0.77319,1.588516 -0.10854,3.527082 1.47996,4.304724 z m 6.71963,-13.776002 c 1.54642,0.7577 3.5315,0.106344 4.30474,-1.479958 0.77319,-1.592948 0.0664,-3.553668 -1.47997,-4.304726 -1.59295,-0.777641 -3.5293,-0.106342 -4.30473,1.484391 -0.7732,1.5863 -0.10633,3.527082 1.47996,4.300293 z"
         id="path5"
         style="fill-rule:evenodd" /><path
         d="m 284.12884,247.1265 c 0,0 17.83479,15.36231 84.57241,15.36231 66.73983,0 86.39356,-14.07731 86.39356,-14.07731 v 12.77239 c 0,0 -19.65373,14.07066 -86.39356,14.07066 -66.73762,0 -84.57241,-15.3623 -84.57241,-15.3623 z"
         id="path7"
         style="fill:none;stroke:#000000;stroke-width:3.32326;stroke-miterlimit:3.8637" /><path
         d="m 509.80893,273.8034 c 0,-4.14299 3.35869,-7.49504 7.5039,-7.49504 4.14076,0 7.49725,3.35205 7.49725,7.49504 0,4.1452 -3.35871,7.50392 -7.49725,7.50392 -4.14521,0 -7.5039,-3.35651 -7.5039,-7.50392 z m -38.1222,30.51636 c 0,-4.13413 3.35871,-7.49504 7.50171,-7.49504 4.14299,0 7.5039,3.36091 7.5039,7.49504 0,4.1452 -3.35869,7.5039 -7.5039,7.5039 -4.14521,0 -7.50171,-3.3587 -7.50171,-7.5039 z"
         id="path9"
         style="fill:none;stroke:#000000;stroke-width:3.32326;stroke-linecap:round;stroke-miterlimit:3.8637" /><path
         d="m 356.64892,121.89515 c 0,-1.49324 1.20745,-2.70068 2.70512,-2.70068 1.48882,0 2.69628,1.20744 2.69628,2.70068 0,1.49327 -1.20746,2.70072 -2.69628,2.70072 -1.49767,0 -2.70512,-1.20745 -2.70512,-2.70072 z"
         id="path11" /><path
         d="m 360.95806,125.94733 c 0,-1.49323 1.20748,-2.7007 2.70072,-2.7007 1.49323,0 2.70069,1.20747 2.70069,2.7007 0,1.48882 -1.20746,2.69628 -2.70069,2.69628 -1.49324,0 -2.70072,-1.20746 -2.70072,-2.69628 z"
         id="path13" /><path
         d="m 365.26944,129.99726 c 0,-1.49324 1.20745,-2.70069 2.70072,-2.70069 1.49325,0 2.70068,1.20745 2.70068,2.70069 0,1.48882 -1.20743,2.70069 -2.70068,2.70069 -1.49327,0 -2.70072,-1.21187 -2.70072,-2.70069 z"
         id="path15" /><path
         d="m 368.70125,135.13502 c 0,-1.49767 1.20746,-2.70513 2.7007,-2.70513 1.48882,0 2.70069,1.20746 2.70069,2.70513 0,1.48882 -1.21187,2.69625 -2.70069,2.69625 -1.49324,-0.002 -2.7007,-1.20964 -2.7007,-2.69625 z"
         id="path17" /><path
         d="m 370.24103,141.32736 c 0,-1.48882 1.21189,-2.69628 2.70513,-2.69628 1.48881,0 2.70071,1.20746 2.70071,2.69628 0,1.49103 -1.2119,2.69846 -2.70071,2.69846 -1.49324,0 -2.70513,-1.20743 -2.70513,-2.69846 z"
         id="path19" /><path
         d="m 370.70407,146.98797 c 0,-1.49102 1.21188,-2.70734 2.70513,-2.70734 1.48882,0 2.69627,1.21632 2.69627,2.70734 0,1.48882 -1.20745,2.69627 -2.69627,2.69627 -1.49325,0 -2.70513,-1.20745 -2.70513,-2.69627 z"
         id="path21" /><path
         d="m 369.81788,153.45504 c 0,-1.48883 1.20744,-2.69627 2.70069,-2.69627 1.48882,0 2.70072,1.20744 2.70072,2.69627 0,1.49102 -1.2119,2.70732 -2.70072,2.70732 -1.49325,0 -2.70069,-1.2163 -2.70069,-2.70732 z"
         id="path23" /><path
         d="m 368.92502,159.9243 c 0,-1.48881 1.21188,-2.69627 2.7007,-2.69627 1.49325,0 2.70512,1.20746 2.70512,2.69627 0,1.48882 -1.21187,2.70512 -2.70512,2.70512 -1.48882,0 -2.7007,-1.2163 -2.7007,-2.70512 z"
         id="path25" /><path
         d="m 373.97859,156.6808 c 0,-1.48881 1.21188,-2.69627 2.70512,-2.69627 1.48882,0 2.69625,1.20746 2.69625,2.69627 0,1.49767 -1.20743,2.70735 -2.69625,2.70735 -1.49324,0 -2.70512,-1.20968 -2.70512,-2.70735 z"
         id="path27" /><path
         d="m 377.41261,151.82663 c 0,-1.49767 1.21189,-2.70513 2.70071,-2.70513 1.49325,0 2.7007,1.20746 2.7007,2.70513 0,1.48882 -1.20745,2.69848 -2.7007,2.69848 -1.49104,0 -2.70071,-1.20966 -2.70071,-2.69848 z"
         id="path29" /><path
         d="m 380.57635,146.16822 c 0,-1.49767 1.20746,-2.70512 2.70071,-2.70512 1.48881,0 2.69629,1.20745 2.69629,2.70512 0,1.48883 -1.20748,2.69627 -2.69629,2.69627 -1.49325,0 -2.70071,-1.20744 -2.70071,-2.69627 z"
         id="path31" /><path
         d="m 383.73566,140.50097 c 0,-1.48881 1.21188,-2.69626 2.7007,-2.69626 1.49325,0 2.70071,1.20745 2.70071,2.69626 0,1.49769 -1.20746,2.70513 -2.70071,2.70513 -1.48882,0 -2.7007,-1.20744 -2.7007,-2.70513 z"
         id="path33" /><path
         d="m 385.27765,134.30865 c 0,-1.49548 1.20745,-2.7029 2.70071,-2.7029 1.49324,0 2.70071,1.20742 2.70071,2.7029 0,1.48882 -1.20747,2.70511 -2.70071,2.70511 -1.49326,-0.002 -2.70071,-1.21851 -2.70071,-2.70511 z"
         id="path35" /><path
         d="m 385.74069,128.64361 c 0,-1.48882 1.20746,-2.69628 2.7007,-2.69628 1.48882,0 2.70069,1.20746 2.70069,2.69628 0,1.49324 -1.21187,2.70512 -2.70069,2.70512 -1.49104,0.002 -2.7007,-1.21188 -2.7007,-2.70512 z"
         id="path37" /><path
         d="m 384.85227,122.17434 c 0,-1.48882 1.20746,-2.70071 2.70071,-2.70071 1.48883,0 2.7007,1.21189 2.7007,2.70071 0,1.49323 -1.21187,2.70069 -2.7007,2.70069 -1.49325,0.002 -2.70071,-1.20524 -2.70071,-2.70069 z"
         id="path39" /><polygon
         points="79.891,91.76 60.24,91.76 60.24,85.043 79.891,85.043 "
         transform="matrix(2.2155037,0,0,2.2155037,105.97352,-131.22613)"
         id="polygon41"
         style="fill:none;stroke:#000000;stroke-width:1.5;stroke-miterlimit:3.8637" /><path
         d="m 295.69376,88.735738 c -0.19053,27.669402 0.75994,42.096782 3.21471,70.873952 3.08618,36.28996 5.60745,47.21683 11.99473,76.878 M 291.35358,82.270894 c -0.87291,46.592036 0.87292,75.411306 1.30717,110.245686 0.45415,36.414 1.30713,33.96365 4.78989,45.71913 m 140.65793,-86.34262 c -2.46586,45.05671 -10.94016,81.6679 -16.58084,85.72004 m 26.27809,-88.18588 c -2.46364,45.05892 -4.58609,79.62519 -9.86342,91.45598"
         id="path43"
         style="fill:none;stroke:#000000;stroke-width:3.32326;stroke-linecap:round;stroke-linejoin:round;stroke-miterlimit:3.8637" /><path
         d="m 241.63991,301.80516 c 0,-4.14301 3.35426,-7.50391 7.49726,-7.50391 4.14298,0 7.5039,3.3609 7.5039,7.50391 0,4.14299 -3.35871,7.50391 -7.5039,7.50391 -4.14523,0 -7.49726,-3.36092 -7.49726,-7.50391 z m -34.84545,-29.09179 c 0,-4.14519 3.3587,-7.50391 7.5039,-7.50391 4.14078,0 7.50169,3.35872 7.50169,7.50391 0,4.143 -3.36313,7.5017 -7.50169,7.5017 -4.1452,0 -7.5039,-3.3587 -7.5039,-7.5017 z"
         id="path45"
         style="fill:none;stroke:#000000;stroke-width:3.32326;stroke-linecap:round;stroke-miterlimit:3.8637" /><path
         d="m 367.17255,70.666086 -11.34114,5.778024 c -1.64613,6.644297 -2.47253,10.419516 -3.75974,17.143566 -0.80199,4.198378 -3.98347,7.076324 -1.87873,10.798374 0.98811,1.75024 1.93636,2.68077 3.75971,3.52486 2.24208,1.03686 3.97019,0.94603 6.33634,0.23485 1.85216,-0.55832 3.01972,-1.07894 4.2272,-2.5855 1.7458,-2.1712 1.10775,-4.26041 1.1742,-7.043082 0.1152,-4.885183 -5.54541,-9.615284 -2.81591,-12.214067 4.85417,-4.614898 6.08377,-9.462423 4.29807,-15.637025 z"
         id="path47"
         style="fill:none;stroke:#000000;stroke-width:3.32326;stroke-miterlimit:1" /><path
         d="m 394.4033,82.793751 c 0.2703,5.944193 4.86083,7.249129 4.86083,12.14318 0,5.120019 0.44311,4.710157 -0.81086,7.280129 -0.97928,2.00945 -1.87432,3.1438 -3.77967,4.30916 -2.79596,1.70817 -5.29061,1.94745 -8.35909,0.81088"
         id="path49"
         style="fill:none;stroke:#000000;stroke-width:3.32326;stroke-miterlimit:3.8637" /><path
         d="m 362.86118,106.25592 c 0.58711,2.24652 0.70232,3.61351 0.52951,5.92649 -0.20604,2.72506 -0.64912,4.30915 -1.87653,6.75507 m 23.00357,-10.69646 c 0.35892,3.74199 0.21492,5.95527 -0.62919,9.61528 -0.62478,2.72286 -1.16979,4.24049 -2.42818,6.73735"
         id="path51"
         style="fill:none;stroke:#000000;stroke-width:3.32326;stroke-miterlimit:3.8637" /><path
         d="m 368.71897,71.151274 c 5.26182,-1.016914 8.317,-1.28277 13.66967,-1.200795 4.53735,0.07531 7.11398,0.338962 11.56714,1.200795 0.77321,3.221339 0.91058,5.173204 0.6004,8.474298 -0.11298,1.149842 -0.21046,1.794565 -0.45195,2.924474 0.79759,3.755272 0.76435,6.112571 -0.14845,9.839043 -0.80644,3.296665 -2.08479,4.88961 -3.68882,7.878341 -1.16534,2.17119 -1.87431,3.37421 -3.20584,5.4479 -0.81529,1.33597 -1.5176,2.02277 -2.87793,2.79599 -2.67629,1.51761 -5.20864,1.51761 -7.87833,0 -5.05135,-2.47251 -8.94176,-8.742379 -11.52283,-13.153464"
         id="path53"
         style="fill:none;stroke:#000000;stroke-width:3.32326;stroke-miterlimit:3.8637" /><polygon
         points="123.791,96.41 120.393,96.86 119.771,95.006 124.224,94.9 "
         transform="matrix(2.2155037,0,0,2.2155037,105.97352,-131.22613)"
         id="polygon55" /><polygon
         points="126.873,96.173 129.311,96.703 129.841,94.793 126.515,94.719 "
         transform="matrix(2.2155037,0,0,2.2155037,105.97352,-131.22613)"
         id="polygon57" /><polygon
         points="126.979,100.836 127.086,96.278 126.873,95.219 126.025,95.219 126.025,98.505 126.556,99.882 125.919,100.517 "
         transform="matrix(2.2155037,0,0,2.2155037,105.97352,-131.22613)"
         id="polygon59" /><polygon
         points="124.859,104.333 127.192,104.439 127.403,102.957 123.164,102.957 123.8,103.805 "
         transform="matrix(2.2155037,0,0,2.2155037,105.97352,-131.22613)"
         id="polygon61" /><path
         d="m 355.58327,75.518027 c 5.12444,-2.842486 8.31256,-4.065447 14.02193,-5.394743 9.31839,-2.162328 15.20719,-2.162328 24.52562,0 l 1.62175,-8.088811 c -9.78589,-3.006449 -16.2884,-3.205834 -26.23822,-0.797569 -6.78609,1.641691 -10.59676,3.338751 -16.3615,7.280138 z M 351.8014,67.706163 340.21429,56.108005 c 2.97765,-3.092839 5.95085,-4.262639 10.24009,-4.041073 4.41772,0.230407 7.3621,1.823351 9.9764,5.390301 l 5.66283,-3.51157 c -0.78873,-2.5146 -0.91944,-4.127477 -0.5428,-6.737334 0.55831,-3.863842 4.59051,-8.893042 4.59051,-8.893042 0.27252,0 6.10372,2.031633 8.35024,5.120031 1.87433,2.585498 2.51017,4.628195 2.4282,7.82072 l 7.28458,0.810894 c 0.42538,-3.65116 1.82778,-5.992942 4.84752,-8.088811 4.06102,-2.820335 8.50309,-2.915607 12.68154,-0.270299 -3.03082,3.693244 -4.5462,5.992955 -6.73734,10.237841 -1.32266,2.556712 -1.81008,4.118622 -2.97321,6.752867"
         id="path63"
         style="fill:none;stroke:#000000;stroke-width:3.32326;stroke-miterlimit:3.8637" /><path
         d="m 365.43783,32.444212 c -8.63162,-24.815854 -13.9754,-46.773721 3.26342,-47.5137 21.97116,-0.943805 18.67892,18.0275504 8.47874,47.690934 m 6.41167,3.12386 c 6.27873,-23.240635 9.232,-47.447227 25.92139,-40.8804696 15.96049,6.2787391 14.19473,19.2372216 -9.54661,39.7394966 m 5.35487,25.801747 c 25.70872,-8.478739 43.20012,-18.785258 48.0543,-6.378442 M 408.31226,35.864937 c 8.67812,-11.877311 25.63778,-27.0379912 33.51834,-11.19936 9.45579,19.00459 -12.63501,21.022913 -32.1536,26.663579 M 360.58145,35.142694 C 352.09828,12.502465 344.39719,-11.792757 332.40688,-6.5309312 316.28024,0.54095721 321.73699,11.948571 350.86867,41.078033 m -18.88274,15.64588 c -25.11715,-9.07913 -38.3526,-18.178205 -44.63577,-4.218321 m 57.5854,-9.269659 c -9.16113,-10.479338 -37.14071,-43.29094961 -45.92961,-21.251127 -7.65459,19.208417 15.96048,20.305098 34.60174,27.186464"
         id="path65"
         style="fill:none;stroke:#000000;stroke-width:3.32326;stroke-linecap:round;stroke-linejoin:round;stroke-miterlimit:3.8637" /><path
         d="m 336.17988,305.03093 c -13.85132,-8.61167 -27.11998,-12.22737 -38.06458,-22.49844 -4.80985,-4.5174 -5.94862,-10.27551 -3.65558,-14.22797"
         id="path67"
         style="fill:none;stroke:#000000;stroke-width:3.32326;stroke-miterlimit:3.8637" /><path
         d="m 357.68798,307.36385 c -10.23783,-6.94781 -16.22191,-9.27851 -18.51273,-18.54597 -1.1831,-4.79657 -0.33013,-8.94843 3.2878,-12.2318 m 22.83963,27.11555 c -6.28317,-7.9426 -8.26826,-7.96695 -9.27852,-14.8904 -0.62478,-4.28701 1.3315,-8.94178 4.65698,-10.89584 m -11.93494,28.44928 c -14.56248,-6.95004 -19.51857,-6.82598 -28.79046,-19.21729 -3.95024,-5.28619 -3.61793,-7.61024 -1.66162,-12.89424 m 51.52376,29.44849 c 6.28095,-7.9426 8.26382,-7.96695 9.27629,-14.8904 0.62477,-4.28701 -1.33148,-8.94178 -4.6614,-10.89584 m 0.22376,29.64785 c 11.56493,-5.32606 20.1345,-10.81165 22.42533,-20.08353 1.18309,-4.79656 0.95931,-7.27793 -2.66304,-10.56351 m -8.0445,29.44847 c 14.55808,-6.95004 21.949,-7.78529 31.21423,-20.17438 3.9547,-5.27955 5.42578,-7.28015 1.00141,-11.60482 m -19.65152,30.44546 c 13.85134,-8.61167 25.59794,-9.23202 36.5381,-19.50531 4.80985,-4.51741 2.62317,-11.27468 0.33454,-15.22936"
         id="path69"
         style="fill:none;stroke:#000000;stroke-width:3.32326;stroke-linecap:round;stroke-linejoin:round;stroke-miterlimit:3.8637" /><path
         d="m 250.42881,289.55563 c 0,-1.64611 1.33595,-2.97985 2.97765,-2.97985 1.64168,0 2.97319,1.33374 2.97319,2.97985 0,1.63727 -1.33151,2.96877 -2.97319,2.96877 -1.6417,0 -2.97765,-1.3315 -2.97765,-2.96877 z"
         id="path71" /><path
         d="m 257.31236,297.7685 c 0,-1.64612 1.33153,-2.97764 2.97765,-2.97764 1.64168,0 2.9732,1.33152 2.9732,2.97764 0,1.63727 -1.33152,2.97099 -2.9732,2.97099 -1.64612,0 -2.97765,-1.33372 -2.97765,-2.97099 z"
         id="path73" /><path
         d="m 255.14117,310.41683 c 0,-1.64613 1.33596,-2.97764 2.97321,-2.97764 1.64611,0 2.97764,1.33151 2.97764,2.97764 0,1.6461 -1.33153,2.97098 -2.97764,2.97098 -1.63725,0 -2.97321,-1.32488 -2.97321,-2.97098 z"
         id="path75" /><path
         d="m 241.95893,314.0148 c 0,-1.64612 1.33151,-2.97764 2.9732,-2.97764 1.64168,0 2.97321,1.33152 2.97321,2.97764 0,1.63726 -1.33153,2.97098 -2.97321,2.97098 -1.64169,0 -2.9732,-1.33372 -2.9732,-2.97098 z"
         id="path77" /><path
         d="m 234.72088,304.81603 c 0,-1.63727 1.33595,-2.971 2.97765,-2.971 1.64169,0 2.97319,1.33373 2.97319,2.971 0,1.64611 -1.3315,2.97763 -2.97319,2.97763 -1.6417,0 -2.97765,-1.32929 -2.97765,-2.97763 z"
         id="path79" /><path
         d="m 237.87353,292.96307 c 0,-1.63725 1.33152,-2.97098 2.97764,-2.97098 1.6417,0 2.97321,1.33373 2.97321,2.97098 0,1.64612 -1.33151,2.97764 -2.97321,2.97764 -1.64612,0 -2.97764,-1.33152 -2.97764,-2.97764 z"
         id="path81" /><path
         d="m 215.58779,260.46163 c 0,-1.63725 1.33152,-2.97763 2.97321,-2.97763 1.64167,0 2.97321,1.33817 2.97321,2.97763 0,1.64613 -1.33154,2.97986 -2.97321,2.97986 -1.64169,0 -2.97321,-1.33373 -2.97321,-2.97986 z"
         id="path83" /><path
         d="m 222.47134,268.67672 c 0,-1.6461 1.33153,-2.97985 2.97322,-2.97985 1.64169,0 2.97321,1.33375 2.97321,2.97985 0,1.64613 -1.33152,2.96878 -2.97321,2.96878 -1.64169,0 -2.97322,-1.32265 -2.97322,-2.96878 z"
         id="path85" /><path
         d="m 220.29573,281.32505 c 0,-1.64613 1.33153,-2.97986 2.97764,-2.97986 1.64168,0 2.97321,1.33373 2.97321,2.97986 0,1.64389 -1.33153,2.97763 -2.97321,2.97763 -1.64611,0 -2.97764,-1.33374 -2.97764,-2.97763 z"
         id="path87" /><path
         d="m 207.1135,284.92302 c 0,-1.64613 1.3315,-2.97986 2.97319,-2.97986 1.64614,0 2.97765,1.33373 2.97765,2.97986 0,1.63726 -1.33151,2.96877 -2.97765,2.96877 -1.64169,0 -2.97319,-1.33151 -2.97319,-2.96877 z"
         id="path89" /><path
         d="m 199.87987,275.7331 c 0,-1.64611 1.33152,-2.97763 2.97322,-2.97763 1.64168,0 2.97318,1.33152 2.97318,2.97763 0,1.63727 -1.3315,2.97099 -2.97318,2.97099 -1.6417,0 -2.97322,-1.33372 -2.97322,-2.97099 z"
         id="path91" /><path
         d="m 203.03031,263.87793 c 0,-1.64611 1.33152,-2.97762 2.97321,-2.97762 1.6417,0 2.97321,1.33151 2.97321,2.97762 0,1.63726 -1.33151,2.971 -2.97321,2.971 -1.64169,0 -2.97321,-1.33374 -2.97321,-2.971 z"
         id="path93" /><path
         d="m 480.48008,292.07688 c 0,-1.64613 1.33151,-2.97984 2.9732,-2.97984 1.64168,0 2.9732,1.33371 2.9732,2.97984 0,1.63726 -1.33152,2.96878 -2.9732,2.96878 -1.64169,0 -2.9732,-1.3293 -2.9732,-2.96878 z"
         id="path95" /><path
         d="m 487.36364,300.28532 c 0,-1.63725 1.33151,-2.97099 2.97321,-2.97099 1.64168,0 2.97321,1.33374 2.97321,2.97099 0,1.6439 -1.33153,2.97765 -2.97321,2.97765 -1.6417,0 -2.97321,-1.33375 -2.97321,-2.97765 z"
         id="path97" /><path
         d="m 485.18803,312.93142 c 0,-1.63727 1.33593,-2.96878 2.97761,-2.96878 1.64171,0 2.97323,1.33151 2.97323,2.96878 0,1.64612 -1.33152,2.97983 -2.97323,2.97983 -1.64168,0 -2.97761,-1.33371 -2.97761,-2.97983 z"
         id="path99" /><path
         d="m 472.00577,316.52939 c 0,-1.64389 1.33152,-2.97764 2.97321,-2.97764 1.64168,0 2.97763,1.33375 2.97763,2.97764 0,1.64612 -1.33595,2.97098 -2.97763,2.97098 -1.64169,0 -2.97321,-1.32486 -2.97321,-2.97098 z"
         id="path101" /><path
         d="m 464.77215,307.33949 c 0,-1.64613 1.33372,-2.97985 2.97319,-2.97985 1.6417,0 2.97321,1.33372 2.97321,2.97985 0,1.63726 -1.33151,2.96877 -2.97321,2.96877 -1.64168,0 -2.97319,-1.33151 -2.97319,-2.96877 z"
         id="path103" /><path
         d="m 467.92481,295.48654 c 0,-1.64613 1.33151,-2.97764 2.9732,-2.97764 1.64169,0 2.97321,1.33151 2.97321,2.97764 0,1.64612 -1.33152,2.97763 -2.97321,2.97763 -1.64169,0 -2.9732,-1.33151 -2.9732,-2.97763 z"
         id="path105" /><path
         d="m 288.51332,-75.461904 c 0,-1.64612 1.33151,-2.977636 2.97763,-2.977636 1.64168,0 2.97321,1.331516 2.97321,2.977636 0,1.641688 -1.33153,2.973206 -2.97321,2.973206 -1.64612,0 -2.97763,-1.331518 -2.97763,-2.973206 z"
         id="path107" /><path
         d="m 295.39691,-67.253463 c 0,-1.641688 1.3315,-2.973205 2.97763,-2.973205 1.63723,0 2.97321,1.331517 2.97321,2.973205 0,1.641689 -1.33598,2.973206 -2.97321,2.973206 -1.64613,0.0022 -2.97763,-1.329302 -2.97763,-2.973206 z"
         id="path109" /><path
         d="m 293.22347,-54.605151 c 0,-1.641688 1.33374,-2.973208 2.97321,-2.973208 1.64613,0 2.97764,1.33152 2.97764,2.973208 0,1.641688 -1.33151,2.973205 -2.97764,2.973205 -1.63947,0.0022 -2.97321,-1.329302 -2.97321,-2.973205 z"
         id="path111" /><path
         d="m 280.04346,-51.009388 c 0,-1.641689 1.33151,-2.973209 2.96877,-2.973209 1.64611,0 2.97764,1.333734 2.97764,2.973209 0,1.641688 -1.33153,2.973204 -2.97764,2.973204 -1.63726,0 -2.96877,-1.331516 -2.96877,-2.973204 z"
         id="path113" /><path
         d="m 272.80539,-60.1993 c 0,-1.641687 1.33153,-2.973204 2.97764,-2.973204 1.64169,0 2.9732,1.331517 2.9732,2.973204 0,1.641688 -1.33373,2.973207 -2.9732,2.973207 -1.64611,0 -2.97764,-1.331519 -2.97764,-2.973207 z"
         id="path115" /><path
         d="m 275.95585,-72.05446 c 0,-1.641689 1.3315,-2.973206 2.97764,-2.973206 1.64168,0 2.9732,1.331517 2.9732,2.973206 0,1.646118 -1.33152,2.977637 -2.9732,2.977637 -1.64614,0 -2.97764,-1.331519 -2.97764,-2.977637 z"
         id="path117" /><path
         d="m 447.27632,-70.884673 2.02718,-6.732918 c -1.20745,-0.658003 -3.84612,-2.186701 -6.71741,-3.177031 -6.25216,-2.155687 -10.72746,-0.720038 -12.32484,3.908149 -1.18309,3.427384 0.20605,6.212272 2.2044,8.768964 3.07291,3.88821 7.55269,7.153862 6.10816,11.361104 -0.9017,2.614292 -3.69767,3.903718 -7.42414,2.623155 -5.61631,-1.93635 -5.2286,-6.26323 -4.98711,-8.624957 l -1.24511,-0.429807 -2.17782,7.162725 c 1.32263,0.888417 3.84167,2.618724 7.22916,3.78408 6.51359,2.246521 11.95264,1.619533 14.03744,-4.422145 1.00585,-2.915603 0.15286,-5.319425 -1.3847,-7.672289 -2.3573,-3.595765 -8.96171,-8.073297 -7.515,-12.276109 0.76879,-2.228795 3.30112,-3.321038 6.77503,-2.124667 4.54178,1.564147 4.60825,4.987097 4.15187,7.424154 z"
         id="path119"
         style="stroke:#000000;stroke-width:3.32326;stroke-miterlimit:3.8637" /><path
         d="m 513.81675,-28.852136 4.31359,-5.558699 c -0.89728,-1.050149 -2.80926,-3.42517 -5.13333,-5.377026 -5.07128,-4.251553 -9.76149,-4.517414 -12.90973,-0.764351 -2.33292,2.778242 -2.03163,5.873302 -1.08781,8.975007 1.47773,4.727884 4.48639,9.389305 1.6284,12.792319 -1.77906,2.118022 -4.84753,2.324062 -7.86726,-0.210474 -4.54843,-3.817312 -2.63868,-7.718815 -1.56858,-9.839052 l -1.00584,-0.844107 -4.60381,5.906534 c 0.91943,1.302713 2.64752,3.821744 5.39474,6.125866 5.27291,4.426577 10.57462,5.793544 14.68658,0.89728 1.98511,-2.361727 2.05157,-4.909556 1.45559,-7.65678 -0.91055,-4.198381 -5.4723,-10.749625 -2.61431,-14.154855 1.51321,-1.805634 4.2715,-1.918624 7.08518,0.438671 3.68218,3.090627 2.51018,6.311968 1.21632,8.42113 z"
         id="path121" /><path
         d="m 513.81675,-28.852136 4.31359,-5.558699 c -0.89728,-1.050149 -2.80926,-3.42517 -5.13333,-5.377026 -5.07128,-4.251553 -9.76149,-4.517414 -12.90973,-0.764351 -2.33292,2.778242 -2.03163,5.873302 -1.08781,8.975007 1.47773,4.727884 4.48639,9.389305 1.6284,12.792319 -1.77906,2.118022 -4.84753,2.324062 -7.86726,-0.210474 -4.54843,-3.817312 -2.63868,-7.718815 -1.56858,-9.839052 l -1.00584,-0.844107 -4.60381,5.906534 c 0.91943,1.302713 2.64752,3.821744 5.39474,6.125866 5.27291,4.426577 10.57462,5.793544 14.68658,0.89728 1.98511,-2.361727 2.05157,-4.909556 1.45559,-7.65678 -0.91055,-4.198381 -5.4723,-10.749625 -2.61431,-14.154855 1.51321,-1.805634 4.2715,-1.918624 7.08518,0.438671 3.68218,3.090627 2.51018,6.311968 1.21632,8.42113 z"
         id="path123"
         style="fill:none;stroke:#000000;stroke-width:3.32326;stroke-miterlimit:3.8637" /><path
         d="m 505.48203,-5.7621495 7.10956,8.474302 0.86847,-0.7289101 c -1.54642,-1.84108192 -1.87431,-2.86907984 -0.79758,-3.7729999 0.45197,-0.3810613 1.02134,-0.6159095 1.58409,-0.7931493 l 4.64813,-1.6549811 7.54377,8.9949452 -2.5877,4.5329234 c -0.26807,0.5206366 -0.63364,1.0102653 -1.05014,1.3558763 -1.07452,0.901724 -2.26205,-0.230394 -3.4008,-1.5840763 l -0.86848,0.7289047 8.30149,9.8966576 0.87291,-0.726684 c -2.0427,-2.432625 -2.08258,-3.755285 -0.3301,-6.881367 l 13.13126,-23.087762 -2.38607,-2.844705 -24.48132,8.6426823 c -3.78408,1.3403745 -5.27734,1.1166172 -7.28679,-1.2827807 z m 29.31998,-4.0698872 -7.258,12.6549611 -6.55566,-7.8074445 z"
         id="path125"
         style="fill-rule:evenodd" /><path
         d="m 505.48203,-5.7621495 7.10956,8.474302 0.86847,-0.7289101 c -1.54642,-1.84108192 -1.87431,-2.86907984 -0.79758,-3.7729999 0.45197,-0.3810613 1.02134,-0.6159095 1.58409,-0.7931493 l 4.64813,-1.6549811 7.54377,8.9949452 -2.5877,4.5329234 c -0.26807,0.5206366 -0.63364,1.0102653 -1.05014,1.3558763 -1.07452,0.901724 -2.26205,-0.230394 -3.4008,-1.5840763 l -0.86848,0.7289047 8.30149,9.8966576 0.87291,-0.726684 c -2.0427,-2.432625 -2.08258,-3.755285 -0.3301,-6.881367 l 13.13126,-23.087762 -2.38607,-2.844705 -24.48132,8.6426823 c -3.78408,1.3403745 -5.27734,1.1166172 -7.28679,-1.2827807 z m 29.31998,-4.0698872 -7.258,12.6549611 -6.55566,-7.8074445 z"
         id="path127"
         style="fill:none;stroke:#000000;stroke-width:3.32326;stroke-miterlimit:3.8637" /><path
         d="m 530.29346,25.13304 6.15467,11.097453 0.9881,-0.547217 c -1.53976,-2.773821 -1.26948,-3.702113 1.81893,-5.414701 l 7.02315,-3.890408 0.81532,1.468858 c 2.70069,4.8719 6.56675,10.918014 13.62756,7.00544 5.47673,-3.035237 5.00039,-8.106535 2.20885,-13.140163 l -6.2167,-11.221512 -0.99255,0.551657 c 1.53977,2.773808 1.26949,3.7021 -1.82336,5.414689 l -17.05718,9.451334 c -3.09281,1.714797 -4.0167,1.451161 -5.55425,-1.324868 z m 26.02552,-4.31358 c 2.37723,-1.320439 3.02638,-1.269486 4.19394,0.830812 1.88984,3.411869 2.38612,6.088198 -2.29083,8.680346 -5.39919,2.990932 -7.48174,-0.210476 -9.3472,-3.57804 l -0.76878,-1.389118 z"
         id="path129"
         style="fill-rule:evenodd" /><path
         d="m 530.29346,25.13304 6.15467,11.097453 0.9881,-0.547217 c -1.53976,-2.773821 -1.26948,-3.702113 1.81893,-5.414701 l 7.02315,-3.890408 0.81532,1.468858 c 2.70069,4.8719 6.56675,10.918014 13.62756,7.00544 5.47673,-3.035237 5.00039,-8.106535 2.20885,-13.140163 l -6.2167,-11.221512 -0.99255,0.551657 c 1.53977,2.773808 1.26949,3.7021 -1.82336,5.414689 l -17.05718,9.451334 c -3.09281,1.714797 -4.0167,1.451161 -5.55425,-1.324868 z m 26.02552,-4.31358 c 2.37723,-1.320439 3.02638,-1.269486 4.19394,0.830812 1.88984,3.411869 2.38612,6.088198 -2.29083,8.680346 -5.39919,2.990932 -7.48174,-0.210476 -9.3472,-3.57804 l -0.76878,-1.389118 z"
         id="path131"
         style="fill:none;stroke:#000000;stroke-width:3.32326;stroke-miterlimit:3.8637" /><path
         d="m 544.73411,52.545468 4.75226,11.768758 1.05457,-0.425379 c -1.19193,-2.939978 -0.8153,-3.826171 2.46364,-5.148832 l 18.08295,-7.304497 c 3.27895,-1.322673 4.16514,-0.950456 5.35487,1.993937 l 1.05014,-0.425379 -4.75668,-11.766535 -1.04573,0.425378 c 1.20302,2.982077 0.81088,3.826171 -2.47027,5.148831 l -18.08295,7.304512 c -3.27894,1.32266 -4.14964,0.992553 -5.35487,-1.993951 z"
         id="path133" /><path
         d="m 544.73411,52.545468 4.75226,11.768758 1.05457,-0.425379 c -1.19193,-2.939978 -0.8153,-3.826171 2.46364,-5.148832 l 18.08295,-7.304497 c 3.27895,-1.322673 4.16514,-0.950456 5.35487,1.993937 l 1.05014,-0.425379 -4.75668,-11.766535 -1.04573,0.425378 c 1.20302,2.982077 0.81088,3.826171 -2.47027,5.148831 l -18.08295,7.304512 c -3.27894,1.32266 -4.14964,0.992553 -5.35487,-1.993951 z"
         id="path135"
         style="fill:none;stroke:#000000;stroke-width:3.32326;stroke-miterlimit:3.8637" /><path
         d="m 552.10729,71.104748 5.33495,21.415062 6.44712,-1.322661 -0.31903,-1.278342 c -2.80483,0.558307 -4.69467,-0.276946 -5.63624,-4.058798 l -1.01029,-4.045515 c -0.57158,-2.290828 -0.43424,-2.696263 2.51018,-3.429608 l 9.10571,-2.270883 1.44008,5.76252 c 0.71117,2.858003 -0.10412,3.524865 -2.74281,4.185092 l 0.29469,1.187511 9.11015,-2.270883 -0.29689,-1.187525 c -2.90451,0.724464 -3.62678,0.438675 -4.34237,-2.419328 l -1.43564,-5.762532 7.78749,-1.942985 c 2.46584,-0.611479 3.28778,-0.305732 3.82617,1.852154 l 0.70231,2.813698 c 1.22741,4.925061 -0.61147,5.9885 -2.94661,6.757281 l 0.31903,1.273914 6.31638,-1.852166 -5.1621,-20.712736 -1.10111,0.272504 c 0.77099,3.081762 0.2747,3.903718 -3.15931,4.761123 l -18.92263,4.714597 c -3.43181,0.855172 -4.25596,0.361116 -5.02474,-2.718426 z"
         id="path137" /><path
         d="m 552.10729,71.104748 5.33495,21.415062 6.44712,-1.322661 -0.31903,-1.278342 c -2.80483,0.558307 -4.69467,-0.276946 -5.63624,-4.058798 l -1.01029,-4.045515 c -0.57158,-2.290828 -0.43424,-2.696263 2.51018,-3.429608 l 9.10571,-2.270883 1.44008,5.76252 c 0.71117,2.858003 -0.10412,3.524865 -2.74281,4.185092 l 0.29469,1.187511 9.11015,-2.270883 -0.29689,-1.187525 c -2.90451,0.724464 -3.62678,0.438675 -4.34237,-2.419328 l -1.43564,-5.762532 7.78749,-1.942985 c 2.46584,-0.611479 3.28778,-0.305732 3.82617,1.852154 l 0.70231,2.813698 c 1.22741,4.925061 -0.61147,5.9885 -2.94661,6.757281 l 0.31903,1.273914 6.31638,-1.852166 -5.1621,-20.712736 -1.10111,0.272504 c 0.77099,3.081762 0.2747,3.903718 -3.15931,4.761123 l -18.92263,4.714597 c -3.43181,0.855172 -4.25596,0.361116 -5.02474,-2.718426 z"
         id="path139"
         style="fill:none;stroke:#000000;stroke-width:3.32326;stroke-miterlimit:3.8637" /><path
         d="m 559.43176,101.32202 0.73332,10.53469 1.13213,-0.0775 c -0.22376,-3.21026 0.40986,-3.89265 3.93697,-4.14079 l 20.22532,-1.41126 0.002,0.0908 -24.5212,16.66281 0.2991,4.29364 24.79371,-1.73254 c 3.52707,-0.24371 4.2471,0.29245 4.47087,3.54925 l 1.13435,-0.0798 -0.73777,-10.53472 -1.12989,0.0798 c 0.21933,3.16374 -0.40988,3.89264 -3.93696,4.13634 l -18.96028,1.32488 -0.004,-0.0886 23.30709,-15.84751 -0.61591,-8.864228 -1.13211,0.08418 c 0.22377,3.163738 -0.40989,3.888228 -3.93695,4.131928 l -19.45657,1.36031 c -3.52706,0.24813 -4.25152,-0.38328 -4.4753,-3.54924 l -1.1277,0.0776 z"
         id="path141"
         style="fill-rule:evenodd" /><path
         d="m 559.43176,101.32202 0.73332,10.53469 1.13213,-0.0775 c -0.22376,-3.21026 0.40986,-3.89265 3.93697,-4.14079 l 20.22532,-1.41126 0.002,0.0908 -24.5212,16.66281 0.2991,4.29364 24.79371,-1.73254 c 3.52707,-0.24371 4.2471,0.29245 4.47087,3.54925 l 1.13435,-0.0798 -0.73777,-10.53472 -1.12989,0.0798 c 0.21933,3.16374 -0.40988,3.89264 -3.93696,4.13634 l -18.96028,1.32488 -0.004,-0.0886 23.30709,-15.84751 -0.61591,-8.864228 -1.13211,0.08418 c 0.22377,3.163738 -0.40989,3.888228 -3.93695,4.131928 l -19.45657,1.36031 c -3.52706,0.24813 -4.25152,-0.38328 -4.4753,-3.54924 l -1.1277,0.0776 z"
         id="path143"
         style="fill:none;stroke:#000000;stroke-width:3.32326;stroke-miterlimit:3.8637" /><path
         d="m 560.92058,142.4617 -1.11219,12.6483 1.13212,0.0997 c 0.27696,-3.16151 1.01471,-3.77962 4.53736,-3.47389 l 22.67789,1.98507 -0.14844,1.71924 c -0.4165,4.74119 -2.08921,5.63405 -5.47229,5.79798 l -0.11299,1.30714 7.02316,0.38991 2.01389,-22.98804 -6.97663,-0.87734 -0.11964,1.30712 c 3.25459,0.78432 4.801,1.87878 4.38449,6.61551 l -0.15288,1.76355 -22.68232,-1.98508 c -3.52487,-0.3146 -4.14079,-1.05015 -3.86383,-4.20946 l -1.1277,-0.0997 z"
         id="path145" /><path
         d="m 560.92058,142.4617 -1.11219,12.6483 1.13212,0.0997 c 0.27696,-3.16151 1.01471,-3.77962 4.53736,-3.47389 l 22.67789,1.98507 -0.14844,1.71924 c -0.4165,4.74119 -2.08921,5.63405 -5.47229,5.79798 l -0.11299,1.30714 7.02316,0.38991 2.01389,-22.98804 -6.97663,-0.87734 -0.11964,1.30712 c 3.25459,0.78432 4.801,1.87878 4.38449,6.61551 l -0.15288,1.76355 -22.68232,-1.98508 c -3.52487,-0.3146 -4.14079,-1.05015 -3.86383,-4.20946 l -1.1277,-0.0997 z"
         id="path147"
         style="fill:none;stroke:#000000;stroke-width:3.32326;stroke-miterlimit:3.8637" /><path
         d="m 557.91414,166.77461 -2.63868,12.4157 1.10556,0.23042 c 0.66243,-3.10171 1.46887,-3.62457 4.93172,-2.88901 l 19.07105,4.05436 c 3.46282,0.73554 3.98568,1.54642 3.32546,4.64814 l 1.10776,0.23041 2.64309,-12.40684 -1.10775,-0.23928 c -0.67129,3.15048 -1.46887,3.62237 -4.92728,2.89569 l -19.07549,-4.06103 c -3.46284,-0.72889 -3.99454,-1.49768 -3.32547,-4.64148 z"
         id="path149" /><path
         d="m 557.91414,166.77461 -2.63868,12.4157 1.10556,0.23042 c 0.66243,-3.10171 1.46887,-3.62457 4.93172,-2.88901 l 19.07105,4.05436 c 3.46282,0.73554 3.98568,1.54642 3.32546,4.64814 l 1.10776,0.23041 2.64309,-12.40684 -1.10775,-0.23928 c -0.67129,3.15048 -1.46887,3.62237 -4.92728,2.89569 l -19.07549,-4.06103 c -3.46284,-0.72889 -3.99454,-1.49768 -3.32547,-4.64148 z"
         id="path151"
         style="fill:none;stroke:#000000;stroke-width:3.32326;stroke-miterlimit:3.8637" /><path
         d="m 554.11676,185.22092 -3.96353,10.32204 1.059,0.40763 c 0.85963,-2.24429 1.5974,-3.02858 2.91118,-2.52566 0.54946,0.21712 1.03243,0.59818 1.46003,1.00139 l 3.70209,3.26787 -4.20945,10.95125 -5.21973,-0.0554 c -0.59152,0.0155 -1.19193,-0.0665 -1.7015,-0.26586 -1.30936,-0.50514 -0.89284,-2.09145 -0.25922,-3.73977 l -1.05901,-0.40543 -4.63261,12.05898 1.05902,0.40543 c 1.13655,-2.9599 2.27309,-3.64671 5.85999,-3.63119 l 26.55724,0.29908 1.33594,-3.47392 -19.42775,-17.21446 c -3.01085,-2.66305 -3.53149,-4.07873 -2.4149,-6.99877 l -1.05679,-0.40322 z m 17.7772,23.67489 -14.5913,-0.21494 3.6556,-9.52221 z"
         id="path153"
         style="fill-rule:evenodd" /><path
         d="m 554.11676,185.22092 -3.96353,10.32204 1.059,0.40763 c 0.85963,-2.24429 1.5974,-3.02858 2.91118,-2.52566 0.54946,0.21712 1.03243,0.59818 1.46003,1.00139 l 3.70209,3.26787 -4.20945,10.95125 -5.21973,-0.0554 c -0.59152,0.0155 -1.19193,-0.0665 -1.7015,-0.26586 -1.30936,-0.50514 -0.89284,-2.09145 -0.25922,-3.73977 l -1.05901,-0.40543 -4.63261,12.05898 1.05902,0.40543 c 1.13655,-2.9599 2.27309,-3.64671 5.85999,-3.63119 l 26.55724,0.29908 1.33594,-3.47392 -19.42775,-17.21446 c -3.01085,-2.66305 -3.53149,-4.07873 -2.4149,-6.99877 l -1.05679,-0.40322 z m 17.7772,23.67489 -14.5913,-0.21494 3.6556,-9.52221 z"
         id="path155"
         style="fill:none;stroke:#000000;stroke-width:3.32326;stroke-miterlimit:3.8637" /><path
         d="m 538.96052,221.74127 -11.37,18.91598 5.49225,3.62457 0.67796,-1.13434 c -2.37946,-1.58853 -3.12387,-3.51601 -1.11662,-6.85698 l 2.14681,-3.57362 c 1.21632,-2.01832 1.5996,-2.2177 4.20062,-0.6447 l 8.04447,4.83199 -3.0596,5.09568 c -1.51318,2.52345 -2.56335,2.41489 -4.89626,1.01692 l -0.62921,1.05236 8.0445,4.82979 0.62919,-1.04127 c -2.56553,-1.54644 -2.87351,-2.25982 -1.35589,-4.78993 l 3.05963,-5.08679 6.87691,4.13413 c 2.17562,1.30713 2.53896,2.10915 1.39798,4.01449 l -1.49768,2.48135 c -2.61429,4.35791 -4.66362,3.8129 -6.85697,2.70514 l -0.67796,1.12547 5.77803,3.15046 10.99778,-18.29784 -0.9704,-0.57826 c -1.63283,2.71399 -2.56776,2.95327 -5.60079,1.12547 L 541.5615,227.79847 c -3.03079,-1.81893 -3.26787,-2.75387 -1.6284,-5.47673 z"
         id="path157" /><path
         d="m 538.96052,221.74127 -11.37,18.91598 5.49225,3.62457 0.67796,-1.13434 c -2.37946,-1.58853 -3.12387,-3.51601 -1.11662,-6.85698 l 2.14681,-3.57362 c 1.21632,-2.01832 1.5996,-2.2177 4.20062,-0.6447 l 8.04447,4.83199 -3.0596,5.09568 c -1.51318,2.52345 -2.56335,2.41489 -4.89626,1.01692 l -0.62921,1.05236 8.0445,4.82979 0.62919,-1.04127 c -2.56553,-1.54644 -2.87351,-2.25982 -1.35589,-4.78993 l 3.05963,-5.08679 6.87691,4.13413 c 2.17562,1.30713 2.53896,2.10915 1.39798,4.01449 l -1.49768,2.48135 c -2.61429,4.35791 -4.66362,3.8129 -6.85697,2.70514 l -0.67796,1.12547 5.77803,3.15046 10.99778,-18.29784 -0.9704,-0.57826 c -1.63283,2.71399 -2.56776,2.95327 -5.60079,1.12547 L 541.5615,227.79847 c -3.03079,-1.81893 -3.26787,-2.75387 -1.6284,-5.47673 z"
         id="path159"
         style="fill:none;stroke:#000000;stroke-width:3.32326;stroke-miterlimit:3.8637" /><path
         d="m 438.5007,336.41576 2.88237,6.41609 c 1.3426,-0.29687 4.34239,-0.87734 7.15828,-2.00947 6.13918,-2.48135 8.56957,-6.50248 6.73736,-11.0332 -1.36032,-3.36759 -4.23161,-4.55728 -7.41972,-5.16875 -4.86746,-0.92832 -10.39293,-0.44754 -12.0612,-4.56838 -1.03686,-2.57221 0.2282,-5.37704 3.88379,-6.85034 5.50551,-2.22437 8.05335,1.29164 9.42253,3.23463 l 1.22074,-0.49627 -3.05738,-6.83262 c -1.57967,0.1994 -4.61935,0.54502 -7.94039,1.88763 -6.38508,2.58106 -10.08276,6.61549 -7.69443,12.5486 1.15871,2.85357 3.37418,4.10977 6.08156,4.87854 4.13634,1.15871 12.0634,0.20824 13.72725,4.32687 0.88399,2.19115 -0.31017,4.6725 -3.71319,6.05497 -4.4598,1.79457 -6.75505,-0.7466 -8.00683,-2.88015 z"
         id="path161" /><path
         d="m 438.5007,336.41576 2.88237,6.41609 c 1.3426,-0.29687 4.34239,-0.87734 7.15828,-2.00947 6.13918,-2.48135 8.56957,-6.50248 6.73736,-11.0332 -1.36032,-3.36759 -4.23161,-4.55728 -7.41972,-5.16875 -4.86746,-0.92832 -10.39293,-0.44754 -12.0612,-4.56838 -1.03686,-2.57221 0.2282,-5.37704 3.88379,-6.85034 5.50551,-2.22437 8.05335,1.29164 9.42253,3.23463 l 1.22074,-0.49627 -3.05738,-6.83262 c -1.57967,0.1994 -4.61935,0.54502 -7.94039,1.88763 -6.38508,2.58106 -10.08276,6.61549 -7.69443,12.5486 1.15871,2.85357 3.37418,4.10977 6.08156,4.87854 4.13634,1.15871 12.0634,0.20824 13.72725,4.32687 0.88399,2.19115 -0.31017,4.6725 -3.71319,6.05497 -4.4598,1.79457 -6.75505,-0.7466 -8.00683,-2.88015 z"
         id="path163"
         style="fill:none;stroke:#000000;stroke-width:3.32326;stroke-miterlimit:3.8637" /><path
         d="m 413.44778,319.93019 -12.41568,2.63644 0.23484,1.10998 c 3.10171,-0.66246 3.90817,-0.13959 4.6437,3.32547 l 4.72788,22.25917 -1.68378,0.36334 c -4.65255,0.98368 -6.00401,-0.34562 -7.14276,-3.54038 l -1.29166,0.27251 1.68379,6.83262 22.56933,-4.79657 -1.19195,-6.93231 -1.29163,0.27249 c 0.20383,3.34321 -0.38772,5.13556 -5.0447,6.13031 l -1.72809,0.36335 -4.73231,-22.26803 c -0.73334,-3.4584 -0.21049,-4.26042 2.89566,-4.92285 z"
         id="path165" /><path
         d="m 413.44778,319.93019 -12.41568,2.63644 0.23484,1.10998 c 3.10171,-0.66246 3.90817,-0.13959 4.6437,3.32547 l 4.72788,22.25917 -1.68378,0.36334 c -4.65255,0.98368 -6.00401,-0.34562 -7.14276,-3.54038 l -1.29166,0.27251 1.68379,6.83262 22.56933,-4.79657 -1.19195,-6.93231 -1.29163,0.27249 c 0.20383,3.34321 -0.38772,5.13556 -5.0447,6.13031 l -1.72809,0.36335 -4.73231,-22.26803 c -0.73334,-3.4584 -0.21049,-4.26042 2.89566,-4.92285 z"
         id="path167"
         style="fill:none;stroke:#000000;stroke-width:3.32326;stroke-miterlimit:3.8637" /><path
         d="m 363.06501,350.48642 c 0.11964,3.53372 -0.53393,4.23607 -3.70432,4.35125 l 0.0421,1.13433 11.00662,-0.38992 -0.0376,-1.13434 c -3.17261,0.11742 -3.87492,-0.545 -3.99902,-4.07873 l -0.52506,-15.13633 c -0.19275,-5.66726 1.35368,-8.12427 6.74622,-8.3148 5.65838,-0.19716 6.59998,3.30998 6.75509,7.84289 l 0.52506,15.13854 c 0.12405,3.53151 -0.52951,4.23384 -3.70211,4.35125 l 0.0377,1.13211 12.69042,-0.44531 -0.0421,-1.13432 c -3.17261,0.11741 -3.87495,-0.54502 -3.999,-4.07875 l -0.52508,-15.13633 c -0.22819,-6.61772 -3.34097,-10.05174 -11.22595,-9.77035 -9.32949,0.32345 -10.74077,5.41025 -10.56354,10.53028 l 0.52065,15.13853 z"
         id="path169" /><path
         d="m 363.06501,350.48642 c 0.11964,3.53372 -0.53393,4.23607 -3.70432,4.35125 l 0.0421,1.13433 11.00662,-0.38992 -0.0376,-1.13434 c -3.17261,0.11742 -3.87492,-0.545 -3.99902,-4.07873 l -0.52506,-15.13633 c -0.19275,-5.66726 1.35368,-8.12427 6.74622,-8.3148 5.65838,-0.19716 6.59998,3.30998 6.75509,7.84289 l 0.52506,15.13854 c 0.12405,3.53151 -0.52951,4.23384 -3.70211,4.35125 l 0.0377,1.13211 12.69042,-0.44531 -0.0421,-1.13432 c -3.17261,0.11741 -3.87495,-0.54502 -3.999,-4.07875 l -0.52508,-15.13633 c -0.22819,-6.61772 -3.34097,-10.05174 -11.22595,-9.77035 -9.32949,0.32345 -10.74077,5.41025 -10.56354,10.53028 l 0.52065,15.13853 z"
         id="path171"
         style="fill:none;stroke:#000000;stroke-width:3.32326;stroke-miterlimit:3.8637" /><path
         d="m 349.66343,325.07458 -11.59816,-1.83664 c -8.63824,-1.37361 -14.96793,-0.25477 -17.01951,12.68154 -1.98285,12.49987 3.7841,15.80097 12.28719,17.14801 l 11.59596,1.83666 0.17724,-1.12548 c -3.17705,-0.50736 -3.6977,-1.27392 -3.14158,-4.76557 l 3.05072,-19.25492 c 0.55389,-3.49164 1.28721,-4.06989 4.46647,-3.56476 z m -12.62394,23.1609 c -0.4431,2.77159 -1.00584,3.14378 -3.37863,2.77159 -8.41672,-1.33373 -8.63605,-6.00624 -7.32889,-14.25456 1.41792,-8.94842 3.70431,-12.67267 11.40541,-11.45635 2.73393,0.42979 2.70955,1.43785 2.35508,3.67329 z"
         id="path173"
         style="fill-rule:evenodd" /><path
         d="m 349.66343,325.07458 -11.59816,-1.83664 c -8.63824,-1.37361 -14.96793,-0.25477 -17.01951,12.68154 -1.98285,12.49987 3.7841,15.80097 12.28719,17.14801 l 11.59596,1.83666 0.17724,-1.12548 c -3.17705,-0.50736 -3.6977,-1.27392 -3.14158,-4.76557 l 3.05072,-19.25492 c 0.55389,-3.49164 1.28721,-4.06989 4.46647,-3.56476 z m -12.62394,23.1609 c -0.4431,2.77159 -1.00584,3.14378 -3.37863,2.77159 -8.41672,-1.33373 -8.63605,-6.00624 -7.32889,-14.25456 1.41792,-8.94842 3.70431,-12.67267 11.40541,-11.45635 2.73393,0.42979 2.70955,1.43785 2.35508,3.67329 z"
         id="path175"
         style="fill:none;stroke:#000000;stroke-width:3.32326;stroke-miterlimit:3.8637" /><path
         d="m 312.80851,317.85206 -12.00136,-4.12749 -0.36999,1.06787 c 2.99979,1.03242 3.42072,1.9009 2.27088,5.24409 l -6.35182,18.43743 c -1.14986,3.34098 -2.01834,3.76194 -5.01814,2.72729 l -0.36779,1.07452 11.99917,4.12747 0.36778,-1.06566 c -3.03965,-1.05236 -3.41851,-1.90088 -2.26644,-5.24409 l 6.35404,-18.43742 c 1.14984,-3.34318 1.97181,-3.77965 5.01371,-2.72949 z"
         id="path177" /><path
         d="m 312.80851,317.85206 -12.00136,-4.12749 -0.36999,1.06787 c 2.99979,1.03242 3.42072,1.9009 2.27088,5.24409 l -6.35182,18.43743 c -1.14986,3.34098 -2.01834,3.76194 -5.01814,2.72729 l -0.36779,1.07452 11.99917,4.12747 0.36778,-1.06566 c -3.03965,-1.05236 -3.41851,-1.90088 -2.26644,-5.24409 l 6.35404,-18.43742 c 1.14984,-3.34318 1.97181,-3.77965 5.01371,-2.72949 z"
         id="path179"
         style="fill:none;stroke:#000000;stroke-width:3.32326;stroke-miterlimit:3.8637" /><path
         d="m 292.57433,310.6162 -11.59596,-5.16211 -0.46079,1.03463 c 2.90007,1.28945 3.24347,2.19114 1.8034,5.41692 l -7.93814,17.81929 c -1.43787,3.22576 -2.33737,3.57139 -5.23524,2.28197 l -0.45862,1.03464 11.59152,5.15992 0.46304,-1.03243 c -2.94219,-1.30935 -3.24791,-2.19336 -1.80784,-5.41915 l 7.93813,-17.81707 c 1.43787,-3.22575 2.29526,-3.58911 5.23524,-2.28196 z"
         id="path181" /><path
         d="m 292.57433,310.6162 -11.59596,-5.16211 -0.46079,1.03463 c 2.90007,1.28945 3.24347,2.19114 1.8034,5.41692 l -7.93814,17.81929 c -1.43787,3.22576 -2.33737,3.57139 -5.23524,2.28197 l -0.45862,1.03464 11.59152,5.15992 0.46304,-1.03243 c -2.94219,-1.30935 -3.24791,-2.19336 -1.80784,-5.41915 l 7.93813,-17.81707 c 1.43787,-3.22575 2.29526,-3.58911 5.23524,-2.28196 z"
         id="path183"
         style="fill:none;stroke:#000000;stroke-width:3.32326;stroke-miterlimit:3.8637" /><path
         d="m 202.02447,233.51226 -2.03161,-3.38309 -26.6104,4.93172 c -3.12608,0.61148 -4.16959,0.29024 -5.78249,-2.39053 l -0.96818,0.58046 5.81128,9.67733 0.97262,-0.58932 c -1.42458,-2.36396 -1.48882,-3.44068 -0.47635,-4.05217 0.42537,-0.25479 1.02579,-0.40542 2.20444,-0.63585 l 20.49339,-3.8461 0.0465,0.0731 -13.18888,15.9162 c -0.80201,0.95266 -1.23625,1.3736 -1.66607,1.62839 -1.1299,0.68016 -1.97844,-0.0333 -3.09283,-1.89205 l -0.97042,0.58047 6.6288,11.03319 0.96819,-0.58046 c -1.75026,-2.9178 -1.40687,-3.75526 1.06564,-6.77499 l 16.59634,-20.27629 z"
         id="path185"
         style="fill-rule:evenodd" /><path
         d="m 202.02447,233.51226 -2.03161,-3.38309 -26.6104,4.93172 c -3.12608,0.61148 -4.16959,0.29024 -5.78249,-2.39053 l -0.96818,0.58046 5.81128,9.67733 0.97262,-0.58932 c -1.42458,-2.36396 -1.48882,-3.44068 -0.47635,-4.05217 0.42537,-0.25479 1.02579,-0.40542 2.20444,-0.63585 l 20.49339,-3.8461 0.0465,0.0731 -13.18888,15.9162 c -0.80201,0.95266 -1.23625,1.3736 -1.66607,1.62839 -1.1299,0.68016 -1.97844,-0.0333 -3.09283,-1.89205 l -0.97042,0.58047 6.6288,11.03319 0.96819,-0.58046 c -1.75026,-2.9178 -1.40687,-3.75526 1.06564,-6.77499 l 16.59634,-20.27629 z"
         id="path187"
         style="fill:none;stroke:#000000;stroke-width:3.32326;stroke-miterlimit:3.8637" /><path
         d="m 189.83257,210.24283 -4.75227,-11.76433 -1.05015,0.42093 c 1.18309,2.94663 0.81089,3.83061 -2.46807,5.15328 l -18.08738,7.3045 c -3.27672,1.32488 -4.16071,0.95269 -5.35263,-1.99173 l -1.05016,0.42981 4.75225,11.76211 1.05015,-0.42095 c -1.20302,-2.98649 -0.81087,-3.8306 2.47027,-5.15103 l 18.08296,-7.30455 c 3.27894,-1.32485 4.15407,-0.99252 5.35488,1.99176 z"
         id="path189" /><path
         d="m 189.83257,210.24283 -4.75227,-11.76433 -1.05015,0.42093 c 1.18309,2.94663 0.81089,3.83061 -2.46807,5.15328 l -18.08738,7.3045 c -3.27672,1.32488 -4.16071,0.95269 -5.35263,-1.99173 l -1.05016,0.42981 4.75225,11.76211 1.05015,-0.42095 c -1.20302,-2.98649 -0.81087,-3.8306 2.47027,-5.15103 l 18.08296,-7.30455 c 3.27894,-1.32485 4.15407,-0.99252 5.35488,1.99176 z"
         id="path191"
         style="fill:none;stroke:#000000;stroke-width:3.32326;stroke-miterlimit:3.8637" /><path
         d="m 181.95423,189.95324 -5.33938,-21.40842 -6.44709,1.32488 0.31903,1.27388 c 2.80925,-0.56269 4.69464,0.2814 5.63624,4.06105 l 1.01026,4.04327 c 0.5716,2.28421 0.43868,2.6985 -2.51016,3.42519 l -9.11236,2.27531 -1.43123,-5.76694 c -0.71117,-2.85359 0.0975,-3.52489 2.74058,-4.18731 l -0.29688,-1.18308 -9.10793,2.26647 0.29465,1.19193 c 2.90455,-0.72889 3.63121,-0.43866 4.3424,2.41489 l 1.43565,5.76696 -7.7875,1.94301 c -2.46585,0.61148 -3.29224,0.30793 -3.82618,-1.85219 l -0.70231,-2.81366 c -1.22739,-4.9317 0.61148,-5.99737 2.9444,-6.75949 l -0.31902,-1.27173 -6.31641,1.85217 5.16212,20.71274 1.1011,-0.28136 c -0.76433,-3.07733 -0.27251,-3.89486 3.16375,-4.75445 l 18.92263,-4.71463 c 3.42736,-0.85293 4.25598,-0.35667 5.02476,2.72288 z"
         id="path193" /><path
         d="m 181.95423,189.95324 -5.33938,-21.40842 -6.44709,1.32488 0.31903,1.27388 c 2.80925,-0.56269 4.69464,0.2814 5.63624,4.06105 l 1.01026,4.04327 c 0.5716,2.28421 0.43868,2.6985 -2.51016,3.42519 l -9.11236,2.27531 -1.43123,-5.76694 c -0.71117,-2.85359 0.0975,-3.52489 2.74058,-4.18731 l -0.29688,-1.18308 -9.10793,2.26647 0.29465,1.19193 c 2.90455,-0.72889 3.63121,-0.43866 4.3424,2.41489 l 1.43565,5.76696 -7.7875,1.94301 c -2.46585,0.61148 -3.29224,0.30793 -3.82618,-1.85219 l -0.70231,-2.81366 c -1.22739,-4.9317 0.61148,-5.99737 2.9444,-6.75949 l -0.31902,-1.27173 -6.31641,1.85217 5.16212,20.71274 1.1011,-0.28136 c -0.76433,-3.07733 -0.27251,-3.89486 3.16375,-4.75445 l 18.92263,-4.71463 c 3.42736,-0.85293 4.25598,-0.35667 5.02476,2.72288 z"
         id="path195"
         style="fill:none;stroke:#000000;stroke-width:3.32326;stroke-miterlimit:3.8637" /><path
         d="m 174.30188,157.60021 -0.55387,-10.548 -1.1277,0.0576 c 0.16838,3.21691 -0.48076,3.88822 -4.01228,4.06988 l -20.24527,1.05901 -0.004,-0.082 24.81141,-16.22857 -0.22376,-4.30473 -24.8203,1.30272 c -3.53592,0.18167 -4.24269,-0.37223 -4.41326,-3.63122 l -1.13434,0.062 0.55165,10.54135 1.13213,-0.0576 c -0.16617,-3.16816 0.47633,-3.87937 4.01227,-4.06101 l 18.97579,-1.00141 0.004,0.0908 -23.58404,15.44649 0.46747,8.86643 1.13212,-0.0576 c -0.1706,-3.16817 0.47635,-3.87935 4.00785,-4.06988 l 19.47648,-1.01692 c 3.53154,-0.18168 4.24715,0.45418 4.41329,3.62457 l 1.13435,-0.0621 z"
         id="path197"
         style="fill-rule:evenodd" /><path
         d="m 174.30188,157.60021 -0.55387,-10.548 -1.1277,0.0576 c 0.16838,3.21691 -0.48076,3.88822 -4.01228,4.06988 l -20.24527,1.05901 -0.004,-0.082 24.81141,-16.22857 -0.22376,-4.30473 -24.8203,1.30272 c -3.53592,0.18167 -4.24269,-0.37223 -4.41326,-3.63122 l -1.13434,0.062 0.55165,10.54135 1.13213,-0.0576 c -0.16617,-3.16816 0.47633,-3.87937 4.01227,-4.06101 l 18.97579,-1.00141 0.004,0.0908 -23.58404,15.44649 0.46747,8.86643 1.13212,-0.0576 c -0.1706,-3.16817 0.47635,-3.87935 4.00785,-4.06988 l 19.47648,-1.01692 c 3.53154,-0.18168 4.24715,0.45418 4.41329,3.62457 l 1.13435,-0.0621 z"
         id="path199"
         style="fill:none;stroke:#000000;stroke-width:3.32326;stroke-miterlimit:3.8637" /><path
         d="m 172.90389,119.28087 1.47332,-10.45495 -1.12105,-0.1573 c -0.45196,3.18367 -1.21188,3.71759 -4.71459,3.22578 l -20.07246,-2.82035 0.0111,-0.0909 27.45012,-11.199355 0.59594,-4.264845 -24.6098,-3.458395 c -3.49829,-0.491849 -4.09426,-1.169801 -3.64007,-4.400009 l -1.12106,-0.157287 -1.47329,10.457171 1.12326,0.157301 c 0.44308,-3.143791 1.21186,-3.717602 4.71014,-3.225767 l 18.81849,2.643102 -0.0111,0.09083 -26.0942,10.658794 -1.23848,8.79774 1.12105,0.15289 c 0.44308,-3.13937 1.21187,-3.7176 4.71458,-3.22579 l 19.31034,2.71843 c 3.5027,0.48743 4.08318,1.25621 3.64006,4.40001 l 1.1277,0.15285 z"
         id="path201" /><path
         d="m 172.90389,119.28087 1.47332,-10.45495 -1.12105,-0.1573 c -0.45196,3.18367 -1.21188,3.71759 -4.71459,3.22578 l -20.07246,-2.82035 0.0111,-0.0909 27.45012,-11.199355 0.59594,-4.264845 -24.6098,-3.458395 c -3.49829,-0.491849 -4.09426,-1.169801 -3.64007,-4.400009 l -1.12106,-0.157287 -1.47329,10.457171 1.12326,0.157301 c 0.44308,-3.143791 1.21186,-3.717602 4.71014,-3.225767 l 18.81849,2.643102 -0.0111,0.09083 -26.0942,10.658794 -1.23848,8.79774 1.12105,0.15289 c 0.44308,-3.13937 1.21187,-3.7176 4.71458,-3.22579 l 19.31034,2.71843 c 3.5027,0.48743 4.08318,1.25621 3.64006,4.40001 l 1.1277,0.15285 z"
         id="path203"
         style="fill:none;stroke:#000000;stroke-width:3.32326;stroke-miterlimit:3.8637" /><path
         d="m 179.38646,81.444496 6.82375,-20.994098 -6.17017,-2.288621 -0.40545,1.249541 c 2.67636,1.014693 3.83284,2.722855 2.63203,6.431602 l -1.29164,3.967969 c -0.7289,2.237666 -1.05458,2.5146 -3.94581,1.575232 l -8.92849,-2.904528 1.83665,-5.645109 c 0.91057,-2.800388 1.96073,-2.937758 4.54621,-2.098077 l 0.37665,-1.165346 -8.92627,-2.900115 -0.37441,1.165373 c 2.84469,0.92385 3.30331,1.550847 2.39495,4.351249 l -1.83222,5.649522 -7.63462,-2.481356 c -2.41492,-0.784288 -2.95327,-1.484391 -2.26205,-3.593544 l 0.89287,-2.760525 c 1.57079,-4.829801 3.69324,-4.758903 6.07934,-4.176223 l 0.40543,-1.249541 -6.33634,-1.77019 -6.59998,20.300654 1.07453,0.352273 c 0.98367,-3.019733 1.84106,-3.453967 5.20419,-2.361727 l 18.54599,6.026169 c 3.36758,1.096681 3.80624,1.947437 2.82035,4.967157 z"
         id="path205" /><path
         d="m 179.38646,81.444496 6.82375,-20.994098 -6.17017,-2.288621 -0.40545,1.249541 c 2.67636,1.014693 3.83284,2.722855 2.63203,6.431602 l -1.29164,3.967969 c -0.7289,2.237666 -1.05458,2.5146 -3.94581,1.575232 l -8.92849,-2.904528 1.83665,-5.645109 c 0.91057,-2.800388 1.96073,-2.937758 4.54621,-2.098077 l 0.37665,-1.165346 -8.92627,-2.900115 -0.37441,1.165373 c 2.84469,0.92385 3.30331,1.550847 2.39495,4.351249 l -1.83222,5.649522 -7.63462,-2.481356 c -2.41492,-0.784288 -2.95327,-1.484391 -2.26205,-3.593544 l 0.89287,-2.760525 c 1.57079,-4.829801 3.69324,-4.758903 6.07934,-4.176223 l 0.40543,-1.249541 -6.33634,-1.77019 -6.59998,20.300654 1.07453,0.352273 c 0.98367,-3.019733 1.84106,-3.453967 5.20419,-2.361727 l 18.54599,6.026169 c 3.36758,1.096681 3.80624,1.947437 2.82035,4.967157 z"
         id="path207"
         style="fill:none;stroke:#000000;stroke-width:3.32326;stroke-miterlimit:3.8637" /><path
         d="m 190.24685,50.172666 5.12004,-9.232002 -0.99255,-0.55388 c -1.55971,2.815905 -2.46142,3.039679 -5.55428,1.327089 l -17.73066,-9.827967 0.0465,-0.07755 29.63898,-0.620335 2.09145,-3.764143 -21.73853,-12.052336 c -3.09283,-1.712589 -3.4008,-2.556697 -1.81894,-5.4102608 l -0.99253,-0.549464 -5.12003,9.2342248 0.99256,0.547231 c 1.53755,-2.771589 2.46142,-3.037445 5.55868,-1.324868 l 16.61851,9.214291 -0.0465,0.07975 -28.17899,0.60039 -4.30915,7.771988 0.99254,0.547243 c 1.53757,-2.771602 2.46145,-3.039678 5.5587,-1.32266 l 17.05273,9.451334 c 3.09285,1.714796 3.35871,2.643101 1.81893,5.416909 l 0.99254,0.545009 z"
         id="path209" /><path
         d="m 190.24685,50.172666 5.12004,-9.232002 -0.99255,-0.55388 c -1.55971,2.815905 -2.46142,3.039679 -5.55428,1.327089 l -17.73066,-9.827967 0.0465,-0.07755 29.63898,-0.620335 2.09145,-3.764143 -21.73853,-12.052336 c -3.09283,-1.712589 -3.4008,-2.556697 -1.81894,-5.4102608 l -0.99253,-0.549464 -5.12003,9.2342248 0.99256,0.547231 c 1.53755,-2.771589 2.46142,-3.037445 5.55868,-1.324868 l 16.61851,9.214291 -0.0465,0.07975 -28.17899,0.60039 -4.30915,7.771988 0.99254,0.547243 c 1.53757,-2.771602 2.46145,-3.039678 5.5587,-1.32266 l 17.05273,9.451334 c 3.09285,1.714796 3.35871,2.643101 1.81893,5.416909 l 0.99254,0.545009 z"
         id="path211"
         style="fill:none;stroke:#000000;stroke-width:3.32326;stroke-miterlimit:3.8637" /><path
         d="m 205.11954,-13.305946 -5.63182,-4.213888 c -1.03022,0.915003 -3.36978,2.866862 -5.28617,5.22859 -4.16517,5.1399725 -4.34683,9.8346143 -0.54282,12.91638998 2.82035,2.28418242 5.90653,1.92748742 8.99496,0.92607232 4.70351,-1.55528559 9.31176,-4.6503382 12.76352,-1.85215815 2.15123,1.74138645 2.40603,4.80542805 -0.0753,7.87390305 -3.73536,4.6126778 -7.67231,2.7671588 -9.81027,1.7369493 l -0.82638,1.0169265 5.9841,4.499682 c 1.29162,-0.943808 3.77742,-2.718428 6.03059,-5.5011045 4.33796,-5.352649 5.61187,-10.6742888 0.64691,-14.6998589 -2.39938,-1.9385623 -4.94722,-1.9651585 -7.68557,-1.3226526 -4.18066,0.9881101 -10.65435,5.6628293 -14.10834,2.864648 -1.83222,-1.4843869 -1.9895,-4.2382646 0.31905,-7.094048 3.02859,-3.730906 6.26986,-2.620941 8.40119,-1.360318 l 0.82638,-1.019133 z"
         id="path213" /><path
         d="m 205.11954,-13.305946 -5.63182,-4.213888 c -1.03022,0.915003 -3.36978,2.866862 -5.28617,5.22859 -4.16517,5.1399725 -4.34683,9.8346143 -0.54282,12.91638998 2.82035,2.28418242 5.90653,1.92748742 8.99496,0.92607232 4.70351,-1.55528559 9.31176,-4.6503382 12.76352,-1.85215815 2.15123,1.74138645 2.40603,4.80542805 -0.0753,7.87390305 -3.73536,4.6126778 -7.67231,2.7671588 -9.81027,1.7369493 l -0.82638,1.0169265 5.9841,4.499682 c 1.29162,-0.943808 3.77742,-2.718428 6.03059,-5.5011045 4.33796,-5.352649 5.61187,-10.6742888 0.64691,-14.6998589 -2.39938,-1.9385623 -4.94722,-1.9651585 -7.68557,-1.3226526 -4.18066,0.9881101 -10.65435,5.6628293 -14.10834,2.864648 -1.83222,-1.4843869 -1.9895,-4.2382646 0.31905,-7.094048 3.02859,-3.730906 6.26986,-2.620941 8.40119,-1.360318 l 0.82638,-1.019133 z"
         id="path215"
         style="fill:none;stroke:#000000;stroke-width:3.32326;stroke-miterlimit:3.8637" /><path
         d="m 231.56159,-7.7760557 9.4336,-8.4920193 -0.7577,-0.839677 c -2.35731,2.122454 -3.31662,2.071497 -5.68277,-0.558305 l -13.04934,-14.489395 c -2.37057,-2.632018 -2.3196,-3.591332 0.0421,-5.711568 l -0.7577,-0.844109 -9.43361,8.492029 0.75549,0.844105 c 2.39496,-2.155686 3.32104,-2.073711 5.68719,0.553876 l 13.04489,14.493825 c 2.37058,2.627588 2.35287,3.555885 -0.0421,5.7115687 l 0.75993,0.8396696 z"
         id="path217" /><path
         d="m 231.56159,-7.7760557 9.4336,-8.4920193 -0.7577,-0.839677 c -2.35731,2.122454 -3.31662,2.071497 -5.68277,-0.558305 l -13.04934,-14.489395 c -2.37057,-2.632018 -2.3196,-3.591332 0.0421,-5.711568 l -0.7577,-0.844109 -9.43361,8.492029 0.75549,0.844105 c 2.39496,-2.155686 3.32104,-2.073711 5.68719,0.553876 l 13.04489,14.493825 c 2.37058,2.627588 2.35287,3.555885 -0.0421,5.7115687 l 0.75993,0.8396696 z"
         id="path219"
         style="fill:none;stroke:#000000;stroke-width:3.32326;stroke-miterlimit:3.8637" /><path
         d="m 251.56979,-52.679878 -4.25597,-5.600794 c -1.2407,0.595968 -4.03222,1.827792 -6.51803,3.569177 -5.42356,3.790725 -6.89464,8.254965 -4.08317,12.262811 2.07592,2.973208 5.14439,3.482773 8.3879,3.374214 4.94943,-0.201613 10.2312,-1.905335 12.78123,1.732524 1.58852,2.26646 0.99255,5.286192 -2.24209,7.54822 -4.86302,3.403014 -8.13531,0.545015 -9.90993,-1.034639 l -1.07453,0.753272 4.51743,5.972996 c 1.49766,-0.551659 4.3756,-1.570792 7.31114,-3.624562 5.64068,-3.954674 8.33916,-8.718008 4.6747,-13.953244 -1.77016,-2.523458 -4.21387,-3.250144 -7.02313,-3.387504 -4.29364,-0.201612 -11.80421,2.505734 -14.35204,-1.132124 -1.35145,-1.93192 -0.74882,-4.623755 2.2576,-6.730699 3.93696,-2.758304 6.75066,-0.793152 8.45435,1.001406 z"
         id="path221" /><path
         d="m 251.56979,-52.679878 -4.25597,-5.600794 c -1.2407,0.595968 -4.03222,1.827792 -6.51803,3.569177 -5.42356,3.790725 -6.89464,8.254965 -4.08317,12.262811 2.07592,2.973208 5.14439,3.482773 8.3879,3.374214 4.94943,-0.201613 10.2312,-1.905335 12.78123,1.732524 1.58852,2.26646 0.99255,5.286192 -2.24209,7.54822 -4.86302,3.403014 -8.13531,0.545015 -9.90993,-1.034639 l -1.07453,0.753272 4.51743,5.972996 c 1.49766,-0.551659 4.3756,-1.570792 7.31114,-3.624562 5.64068,-3.954674 8.33916,-8.718008 4.6747,-13.953244 -1.77016,-2.523458 -4.21387,-3.250144 -7.02313,-3.387504 -4.29364,-0.201612 -11.80421,2.505734 -14.35204,-1.132124 -1.35145,-1.93192 -0.74882,-4.623755 2.2576,-6.730699 3.93696,-2.758304 6.75066,-0.793152 8.45435,1.001406 z"
         id="path223"
         style="fill:none;stroke:#000000;stroke-width:3.32326;stroke-miterlimit:3.8637" /><path
         d="m 476.75801,-60.19487 c 0,-1.641688 1.33153,-2.973203 2.97764,-2.973203 1.64169,0 2.96878,1.331515 2.96878,2.973203 0,1.64612 -1.32709,2.97764 -2.96878,2.97764 -1.64611,0 -2.97764,-1.33152 -2.97764,-2.97764 z"
         id="path225" /><path
         d="m 483.63938,-51.981997 c 0,-1.641688 1.33151,-2.973203 2.97763,-2.973203 1.64171,0 2.97321,1.331515 2.97321,2.973203 0,1.641689 -1.3315,2.977639 -2.97321,2.977639 -1.64612,0 -2.97763,-1.33595 -2.97763,-2.977639 z"
         id="path227" /><path
         d="m 481.46817,-39.329253 c 0,-1.64612 1.33154,-2.977638 2.97322,-2.977638 1.64612,0 2.97321,1.331518 2.97321,2.977638 0,1.641688 -1.32709,2.973207 -2.97321,2.973207 -1.64168,0 -2.97322,-1.331519 -2.97322,-2.973207 z"
         id="path229" /><path
         d="m 468.28371,-35.740139 c 0,-1.641688 1.33596,-2.973203 2.97321,-2.973203 1.64611,0 2.97764,1.331515 2.97764,2.973203 0,1.64612 -1.33153,2.977638 -2.97764,2.977638 -1.63725,0 -2.97321,-1.331518 -2.97321,-2.977638 z"
         id="path231" /><path
         d="m 461.0501,-44.930047 c 0,-1.641689 1.33374,-2.973205 2.97765,-2.973205 1.64168,0 2.96878,1.331516 2.96878,2.973205 0,1.64612 -1.3271,2.977638 -2.96878,2.977638 -1.64613,0 -2.97765,-1.331518 -2.97765,-2.977638 z"
         id="path233" /><path
         d="m 464.20056,-56.77856 c 0,-1.641689 1.3315,-2.977638 2.97763,-2.977638 1.63725,0 2.96878,1.335949 2.96878,2.977638 0,1.641688 -1.33153,2.973204 -2.96878,2.973204 -1.64613,0 -2.97763,-1.331516 -2.97763,-2.973204 z"
         id="path235" /><path
         d="m 518.60224,261.5539 c 0,-1.63727 1.33152,-2.97099 2.9732,-2.97099 1.64612,0 2.97764,1.33372 2.97764,2.97099 0,1.64609 -1.33152,2.97763 -2.97764,2.97763 -1.64168,0 -2.9732,-1.33154 -2.9732,-2.97763 z"
         id="path237" /><path
         d="m 525.48359,269.76677 c 0,-1.63727 1.33154,-2.96879 2.97321,-2.96879 1.6417,0 2.97763,1.33152 2.97763,2.96879 0,1.64611 -1.33593,2.97984 -2.97763,2.97984 -1.64167,0 -2.97321,-1.33373 -2.97321,-2.97984 z"
         id="path239" /><path
         d="m 523.3124,282.41507 c 0,-1.63726 1.33153,-2.96877 2.96876,-2.96877 1.64613,0 2.97766,1.33151 2.97766,2.96877 0,1.64612 -1.33153,2.97986 -2.97766,2.97986 -1.63723,0 -2.96876,-1.33374 -2.96876,-2.97986 z"
         id="path241" /><path
         d="m 510.12795,286.01304 c 0,-1.6439 1.33151,-2.97762 2.97319,-2.97762 1.64169,0 2.97321,1.33372 2.97321,2.97762 0,1.64613 -1.33152,2.97986 -2.97321,2.97986 -1.64168,0 -2.97319,-1.33373 -2.97319,-2.97986 z"
         id="path243" /><path
         d="m 502.89432,276.82536 c 0,-1.64611 1.33152,-2.97986 2.97321,-2.97986 1.64611,0 2.97321,1.33375 2.97321,2.97986 0,1.63725 -1.3271,2.96876 -2.97321,2.96876 -1.64169,0 -2.97321,-1.33151 -2.97321,-2.96876 z"
         id="path245" /><path
         d="m 506.04477,264.97018 c 0,-1.6461 1.32708,-2.97762 2.9732,-2.97762 1.6417,0 2.97322,1.33152 2.97322,2.97762 0,1.64614 -1.33152,2.97764 -2.97322,2.97764 -1.64612,0 -2.9732,-1.3315 -2.9732,-2.97764 z"
         id="path247" /><path
         d="m 485.19467,182.19233 -7.6856,13.31074 -7.68779,-13.31074 z m 0,-21.30649 -7.6856,-13.31963 -7.68779,13.31963 z"
         id="path249"
         style="fill:none;stroke:#000000;stroke-width:3.32326;stroke-linecap:round;stroke-linejoin:round;stroke-miterlimit:3.8637" /><path
         d="m 470.45049,171.22557 c 0,-3.89705 3.1593,-7.05637 7.06079,-7.05637 3.89709,0 7.05639,3.15932 7.05639,7.05637 0,3.89708 -3.1593,7.0564 -7.05639,7.0564 -3.90149,-0.002 -7.06079,-3.16154 -7.06079,-7.0564 z m 7.06079,-51.18035 v 18.99131 m 0,60.19524 v 22.28574"
         id="path251"
         style="fill:none;stroke:#000000;stroke-width:3.32326;stroke-linecap:round;stroke-miterlimit:3.8637" /><path
         d="m 461.61063,110.65371 h 30.55622 m -30.55622,124.09258 h 30.55622"
         id="path253"
         style="fill:none;stroke:#000000;stroke-width:3.32326;stroke-linecap:round;stroke-linejoin:round;stroke-miterlimit:3.8637" /><path
         d="m 457.64044,57.935798 h 43.53908 v 14.885954 h -43.53908 z m -0.79758,27.520985 h 43.53907 v 14.885957 h -43.53907 z m 4.90957,15.721217 h 32.8116 v 145.28831 h -32.8116 z"
         id="path255"
         style="fill:none;stroke:#000000;stroke-width:3.32326;stroke-miterlimit:3.8637" /><path
         d="m 459.49483,75.475942 v 6.837036 c 1.92748,0.09084 3.25014,-0.418731 4.61933,-1.774606 1.48438,-1.475534 2.01388,-2.986505 1.77461,-5.06243 z m 38.20856,0 v 7.747615 c -2.39495,-0.07975 -3.98568,-0.852964 -5.5299,-2.685185 -1.34924,-1.599607 -1.82779,-2.968779 -1.77462,-5.06243 z m -30.90407,0 c 0.0111,1.874306 0.3434,3.024148 1.33153,4.614899 0.92387,1.497673 1.72365,2.257585 3.26344,3.106122 1.6882,-0.988114 2.56112,-1.856581 3.54923,-3.549226 0.86404,-1.473312 1.18308,-2.472515 1.33153,-4.171795 z m 11.27471,0 c 0.009,1.874306 0.33897,3.024148 1.3271,4.614899 0.92385,1.497673 1.72586,2.257585 3.26343,3.106122 2.09585,-0.73332 3.2723,-1.66605 4.45759,-3.549226 0.915,-1.442304 1.24068,-2.468088 1.33372,-4.171795 z"
         id="path257"
         style="fill:none;stroke:#000000;stroke-width:3.32326;stroke-linecap:round;stroke-miterlimit:3.8637" /><polygon
         points="178.022,177.123 157.138,177.123 157.138,170.402 178.022,170.402 "
         transform="matrix(2.2155037,0,0,2.2155037,105.97352,-131.22613)"
         id="polygon259"
         style="fill:none;stroke:#000000;stroke-width:1.5;stroke-miterlimit:3.8637" /><path
         d="m 242.43083,75.316421 v 6.832606 c 1.92748,0.09527 3.25015,-0.414302 4.61933,-1.770177 1.48439,-1.477741 2.01389,-2.986504 1.77462,-5.062429 z m 38.20637,0 v 7.747626 c -2.39939,-0.08419 -3.98569,-0.852977 -5.5299,-2.685197 -1.34923,-1.599593 -1.82779,-2.973207 -1.77462,-5.062429 z m -30.90184,0 c 0.0111,1.874305 0.3434,3.021953 1.3315,4.619325 0.92164,1.493245 1.71925,2.255393 3.25901,3.101695 1.68601,-0.988099 2.56334,-1.861008 3.54924,-3.549226 0.86848,-1.473313 1.1875,-2.472516 1.33152,-4.171794 z m 11.27025,0 c 0.0133,1.874305 0.34341,3.021953 1.33153,4.619325 0.92387,1.493245 1.72589,2.255393 3.26344,3.101695 2.09585,-0.737747 3.27229,-1.670478 4.45758,-3.549226 0.91502,-1.442291 1.2407,-2.468073 1.33152,-4.171794 z"
         id="path261"
         style="fill:none;stroke:#000000;stroke-width:3.32326;stroke-linecap:round;stroke-miterlimit:3.8637" /><line
         stroke-miterlimit="3.8637"
         x1="246.21492"
         y1="234.74626"
         x2="276.76669"
         y2="234.74626"
         id="line263"
         style="fill:none;stroke:#000000;stroke-width:3.32326;stroke-linecap:round;stroke-linejoin:round;stroke-miterlimit:3.8637" /><path
         d="m 245.25559,101.178 h 32.81164 v 144.45305 h -32.81164 z m -6.72847,-15.721217 h 43.53908 v 14.885957 h -43.53908 z"
         id="path265"
         style="fill:none;stroke:#000000;stroke-width:3.32326;stroke-miterlimit:3.8637" /><path
         d="m 269.23844,180.00784 -7.68338,13.3196 -7.68558,-13.3196 z m 0,-21.30871 -7.68338,-13.30854 -7.68558,13.30854 z"
         id="path267"
         style="fill:none;stroke:#000000;stroke-width:3.32326;stroke-linecap:round;stroke-linejoin:round;stroke-miterlimit:3.8637" /><path
         d="m 254.49424,169.04774 c 0,-3.89485 3.15931,-7.06302 7.06082,-7.06302 3.89486,0 7.0564,3.17039 7.0564,7.06302 0,3.89707 -3.15931,7.05859 -7.0564,7.05859 -3.90151,0 -7.06082,-3.16152 -7.06082,-7.05859 z m 7.06082,-51.18481 v 19.0002 m 0,60.19522 v 22.28577"
         id="path269"
         style="fill:none;stroke:#000000;stroke-width:3.32326;stroke-linecap:round;stroke-miterlimit:3.8637" /><polygon
         points="79.891,177.123 59.008,177.123 59.008,170.402 79.891,170.402 "
         transform="matrix(2.2155037,0,0,2.2155037,105.97352,-131.22613)"
         id="polygon271"
         style="fill:none;stroke:#000000;stroke-width:1.5;stroke-miterlimit:3.8637" /><line
         stroke-miterlimit="3.8637"
         x1="246.21492"
         y1="110.65369"
         x2="276.76669"
         y2="110.65369"
         id="line273"
         style="fill:none;stroke:#000000;stroke-width:3.32326;stroke-linecap:round;stroke-linejoin:round;stroke-miterlimit:3.8637" /><path
         d="m 349.59254,-28.183052 c -1.44007,1.415705 -3.44068,2.255381 -5.61629,2.175623 -4.20283,-0.144008 -7.49062,-3.673307 -7.3444,-7.873901 0.14843,-4.20281 3.6733,-7.495048 7.87832,-7.346609 m -12.08556,18.384248 c -1.0834,1.699291 -2.84914,2.968777 -4.98046,3.383076 -4.13193,0.802012 -8.12648,-1.894256 -8.92849,-6.021739 -0.802,-4.131914 1.89427,-8.130899 6.02175,-8.930697 m -6.81489,18.909325 c -0.70675,1.883178 -2.16898,3.491634 -4.16959,4.342388 -3.8727,1.6416887 -8.34358,-0.166163 -9.98527,-4.036647 -1.64612,-3.872703 0.16173,-8.341374 4.03221,-9.983063 m -3.94801,18.9957355 c -0.30132,1.9939555 -1.39799,3.8682662 -3.17705,5.1155907 -3.44509,2.4104729 -8.19291,1.57079249 -10.61005,-1.8743107 -2.41045,-3.4451149 -1.57521,-8.1885045 1.87431,-10.6034035 m -0.93493,20.3493967 c 0.11963,2.0138956 -0.56273,4.0743173 -2.04269,5.6672613 -2.86906,3.072907 -7.68559,3.241284 -10.76071,0.372217 C 274.9234,9.9767874 274.75503,5.155854 277.6241,2.0807227 m 3.24572,19.0200983 c 0.53836,1.938569 0.30132,4.098689 -0.81974,5.964139 -2.16674,3.602413 -6.8437,4.772199 -10.44609,2.601003 -3.60685,-2.162341 -4.77218,-6.841476 -2.60545,-10.446096 m 6.20342,17.183445 c 0.89729,1.798991 1.07455,3.970188 0.33454,6.010665 -1.44007,3.95245 -5.81126,5.988511 -9.76594,4.552854 -3.95023,-1.440071 -5.98851,-5.811265 -4.55064,-9.761495 M 391.26615,-27.37661 c 1.44009,1.409059 3.4407,2.248736 5.61188,2.175624 4.20282,-0.144008 7.49062,-3.673304 7.34441,-7.876116 -0.14402,-4.205026 -3.67333,-7.495049 -7.87833,-7.344395 m 12.08778,19.452124 c 1.08337,1.69486 2.84915,2.964343 4.98488,3.383075 4.12748,0.797581 8.12648,-1.894256 8.92848,-6.026173 0.80201,-4.127483 -1.89425,-8.12425 -6.02617,-8.930694 m 6.81931,19.977197 c 0.70232,1.885394 2.16899,3.4938494 4.16517,4.3423829 3.87711,1.6461216 8.34358,-0.1617264 9.98968,-4.0322119 1.6417,-3.870485 -0.16614,-8.341374 -4.03664,-9.983062 m 3.95246,18.9957267 c 0.29687,1.9895249 1.39355,3.87270878 3.17703,5.1178184 C 443.82677,4.28516 448.57903,3.4499088 450.9917,3.7666297e-4 453.40662,-3.4403094 452.56693,-8.1925594 449.12181,-10.605246 m 0.93497,20.3471853 c -0.12409,2.0116757 0.5583,4.0787437 2.03824,5.6672607 2.86688,3.077335 7.69002,3.243492 10.76515,0.372205 3.07733,-2.864652 3.24349,-7.6833774 0.37218,-10.7607036 M 459.98666,24.0408 c -0.53837,1.940776 -0.3013,4.103117 0.81973,5.964139 2.16678,3.606827 6.84369,4.772199 10.45053,2.605431 3.60243,-2.162328 4.7722,-6.843684 2.60542,-10.44611 m -6.20782,17.181238 c -0.89728,1.803432 -1.07895,3.970188 -0.33455,6.008456 1.43787,3.954672 5.81127,5.992929 9.76374,4.552858 3.95022,-1.437867 5.98852,-5.806827 4.55064,-9.761512"
         id="path275"
         style="fill:none;stroke:#000000;stroke-width:3.32326;stroke-miterlimit:3.8637" /><path
         d="m 359.44044,-38.159469 c 0,-8.421128 4.43766,-15.244879 9.91883,-15.244879 5.48115,0 9.92321,6.823751 9.92321,15.244879 0,8.425562 -4.44206,15.249315 -9.92321,15.249315 -5.48117,0 -9.91883,-6.823753 -9.91883,-15.249315 z"
         id="path277"
         style="fill:none;stroke:#000000;stroke-width:3.32326;stroke-miterlimit:3.8637" /><path
         d="M 361.78225,-52.077263 C 306.15317,-45.014237 253.79636,1.8237245 245.99558,56.99199 l 29.86278,0.199385 c 7.9736,-44.192648 46.61642,-77.711002 93.10433,-77.711002 m 0.0443,0 c 46.73164,0 85.10194,33.059748 92.79418,77.595799 l 29.83398,-0.08418 C 483.96727,-1.4662897 436.57543,-47.56871 377.10909,-51.060345"
         id="path279"
         style="fill:none;stroke:#000000;stroke-width:3.32326;stroke-miterlimit:3.8637" /><path
         d="m 377.15119,141.30521 h 4.04107 m -23.45997,-24.26199 -12.1321,3.49828 -2.96877,2.16454 5.12889,9.16775 2.41933,11.3168 18.51941,-1.61511 m 21.98444,0.20163 h 3.95909 l 5.41692,-11.79092 -0.79759,-3.23907 -6.21227,-3.23019 m -40.97797,-3.51379 5.12004,9.98084 0.81087,5.39033 h 7.81632 m 9.98084,-1.87876 7.55264,-0.81087"
         id="path281"
         style="fill:none;stroke:#000000;stroke-width:3.32326;stroke-linecap:round;stroke-miterlimit:3.8637" /><path
         d="m 371.4219,127.7707 h 13.08697 m -42.20755,99.06624 c -1.23626,3.48055 -1.86546,5.46788 -2.85359,9.02375 -1.13654,4.09425 -2.30854,6.36069 -2.49021,10.60339 -0.0421,0.97041 -0.0421,1.51541 0,2.49023 m 23.50207,-20.37377 -3.32326,10.59675 -0.5539,8.94179 m 36.67769,-22.11075 4.70351,14.55809 -0.55387,9.48898 m -13.72726,-22.39206 1.74581,16.86661 v 6.17018 m -15.11417,-21.84486 1.10776,21.84486 m -43.40173,-29.67001 c -2.0139,5.40802 -2.95325,8.5607 -4.24046,14.19249 -1.45115,6.37844 -2.00504,10.06062 -2.49024,16.58528 2.49467,0.82636 3.91702,1.24732 6.45155,1.93634 5.17098,1.38912 11.03985,2.55446 13.45033,2.76274 4.15185,0.36333 32.05834,2.71399 51.78963,-1.65498 3.32102,-0.28138 7.00319,-0.55387 11.15505,-0.83525 0.99255,-0.0665 3.259,-0.67128 3.12828,-1.65499 -0.63806,-4.79655 -0.3301,-6.55124 -0.915,-10.68536 -0.7289,-5.17099 -0.9881,-8.18851 -2.76717,-13.09585 -0.98368,-2.70513 -1.65941,-4.20059 -3.04409,-6.72405"
         id="path283"
         style="fill:none;stroke:#000000;stroke-width:3.32326;stroke-linecap:round;stroke-linejoin:round;stroke-miterlimit:3.8637" /><path
         d="m 406.68607,81.229606 h 32.77394 l 11.34116,5.992926 m -43.30423,-4.860808 5.76474,4.889623 -0.0975,47.923553 -5.65397,-5.98851 -0.0133,-46.824666 z m 5.51218,5.026979 h 37.46859 v 49.068977 h -36.9258 m 10.51035,0 V 87.388703 l -7.27127,-6.560116 m 15.36009,0 8.14861,5.77361 -0.0576,48.772113 m -33.0686,-43.780583 6.11037,6.571192 h 36.39628 m -42.50665,18.698841 5.56755,6.92124 h 37.20718"
         id="path285"
         style="fill:none;stroke:#000000;stroke-width:3.32326;stroke-miterlimit:3.8637" /><path
         d="m 467.9647,-47.945348 c 0,-4.140775 3.35869,-7.497265 7.50168,-7.497265 4.14521,0 7.50392,3.358704 7.50392,7.497265 0,4.14964 -3.35871,7.503912 -7.50392,7.503912 -4.14299,0 -7.50168,-3.356488 -7.50168,-7.503912 z M 279.71997,-63.214599 c 0,-4.140778 3.36314,-7.499481 7.50391,-7.499481 4.14522,0 7.50173,3.358703 7.50173,7.499481 0,4.145208 -3.35872,7.501696 -7.50173,7.501696 -4.14077,0 -7.50391,-3.358705 -7.50391,-7.501696 z"
         id="path287"
         style="fill:none;stroke:#000000;stroke-width:3.32326;stroke-linecap:round;stroke-miterlimit:3.8637" /><path
         d="m 320.92613,94.597956 36.14373,97.612874 M 325.736,91.307925 365.87206,196.263 M 326.49813,90.548 c -0.48521,-2.778224 0.004,-4.781043 1.70814,-7.027566 2.17563,-2.866872 4.98488,-4.012286 8.5452,-3.48278 -2.26203,-2.34621 -4.88076,-3.08619 -8.03562,-2.279752 -2.1845,0.558305 -3.45839,1.444512 -4.74783,3.292251 -0.62034,-1.468886 -1.07897,-2.266469 -2.02716,-3.544812 -1.56416,-2.104725 -2.74504,-3.163736 -5.00487,-4.495252 -1.05899,2.069263 -1.42233,3.44067 -1.51759,5.762518 -0.0909,2.279752 0.14844,3.646719 1.01469,5.762534 -2.43704,-1.021355 -4.33572,-1.021355 -6.77057,0 -2.67856,1.116599 -4.14966,2.73393 -5.00039,5.503311 3.07734,-1.528707 5.35264,-1.84553 8.73574,-1.198588 1.6461,0.314589 2.72061,0.420937 4.04992,1.451135 1.39355,1.087825 2.04271,2.084793 2.46806,3.799604 0.72005,-1.355903 1.43123,-2.062642 2.78712,-2.782678 1.32929,-0.708959 2.2886,-0.899489 3.79516,-0.759925 z m -3.54481,10.57239 c 0.12406,-1.200798 0.69123,-2.005015 1.7702,-2.536755 1.13653,-0.553865 2.19554,-0.467462 3.23018,0.257001 m -2.46806,7.783064 c -0.31016,-1.18307 0.0421,-2.22436 1.01472,-2.97322 1.24066,-0.95931 3.02636,-0.73331 3.98567,0.50737 m 60.47439,73.10497 c 4.65699,5.9553 6.8459,9.8014 9.57985,16.85778 3.75527,9.68618 4.79878,15.88073 4.42656,26.26256 h -12.81446 c -3.50272,1.46225 -5.58308,2.10031 -9.30067,2.85359 -5.41913,1.09889 -8.62499,0.89062 -14.15045,0.83524 -7.28014,-0.0908 -11.84186,-0.55387 -18.56593,-1.9452 -3.22356,-0.66244 -4.46645,-0.95932 -7.28015,-1.74363 -4.52183,1.31382 -7.55263,1.31382 -12.07226,0 -2.06928,-0.60482 -3.2147,-1.10109 -5.06243,-2.20885 0.33011,-5.29505 0.77765,-8.29705 2.02277,-13.45031 0.9305,-3.87936 1.61066,-6.0461 3.04187,-9.77703 m 11.5162,9.49788 -0.83083,6.17017 v 5.34381 m 28.4803,-38.69601 1.74582,6.45154 0.5539,11.78649 m 7.83399,-17.60216 c 3.48279,7.53492 5.04915,12.02795 7.00322,20.0924 1.64168,6.78386 2.25759,10.72968 2.76716,17.69299 m -61.00831,-81.74102 3.32104,0.83527 5.34378,5.80683 -5.34378,-11.70451 -5.53436,3.59578 -4.51297,8.47428 -1.10774,3.59798 11.98586,3.95248 8.74682,6.92343 m -20.1766,-9.22314 c -0.52064,2.05378 -0.95931,3.19253 -1.93634,5.07128 -2.46807,4.73233 -6.84369,5.1865 -9.57984,9.76818 -1.35145,2.26646 -2.00947,3.64671 -2.76938,6.17238 -0.79313,2.64533 -1.35589,4.25155 -1.10554,7.00543 0.2437,2.64532 0.0709,4.88075 2.21328,6.45154 1.38248,1.00806 2.53898,1.30715 4.2405,1.10776 2.1889,-1.33152 3.29664,-2.57221 5.81125,-3.05077 9.3007,-1.7458 12.62396,-2.57439 19.348,-4.50853 2.27532,-0.76214 4.15406,-0.55388 4.78994,-3.87049 1.01246,-5.27954 -1.3847,-7.28014 -2.29971,-11.52283 l 1.46886,-2.49023 m -0.91721,18.15607 c 2.45699,1.63722 3.73977,2.79594 5.6163,5.07128 2.09366,2.53231 3.06848,4.20944 4.23606,7.2779 -1.88984,2.02722 -3.08621,3.08621 -5.33937,4.6991 -1.54643,1.11663 -2.46808,1.6882 -4.15185,2.58107 -3.66446,0.72667 -5.87773,0.79316 -9.57542,0.27252 -5.11559,-0.7112 -8.12426,-1.81894 -12.34921,-4.78993 -3.13937,-2.19999 -4.74783,-3.83061 -6.9168,-6.99656 m 26.54174,12.89644 c -0.0864,1.57301 0.42539,2.71396 1.66162,3.67995 1.38911,1.10109 2.89567,1.28277 4.51296,0.55609 3.95913,-1.46443 11.24149,-7.83401 11.24149,-7.83401 l -4.24048,-4.78993 m -6.44711,13.73168 c 2.05156,3.66446 3.60019,5.58972 6.72627,8.39679 2.82033,2.52345 4.67471,3.7464 8.11096,5.33492 l 2.49022,1.93415 3.68659,0.27248 m -5.62737,-7.55042 c 1.73696,1.28942 2.63866,2.16675 3.96353,3.8705 1.32267,1.70591 0.91944,3.67992 2.76717,4.78989 1.9718,1.18972 3.92365,1.18972 5.89769,0 m -6.73074,-10.04287 2.77161,4.69907 1.74581,5.07132 m 24.04932,-70.58376 c 1.9031,2.66969 2.49463,4.83868 2.21328,8.10432 -0.19939,2.31741 -1.07453,3.47389 -1.93637,5.61629 -1.03462,2.58993 -1.71257,4.0145 -3.04409,6.45377 l -14.28114,-1.65499 -9.72385,-0.28136 -13.30851,1.38027 m 2.57661,7.00763 15.3889,-0.83524 18.4352,1.66164 0.91501,-4.78994 m 25.43397,-31.32501 c -1.29827,0.90837 -1.90755,1.8433 -2.21328,3.39859 -0.23041,1.17421 -0.16173,1.93635 0.27695,3.04411 1.79456,0.75327 2.83361,1.12546 4.7035,1.66162 2.67631,0.77101 4.23826,1.07451 7.001,1.38246 0.84854,-1.90975 1.69706,-2.94439 3.40965,-4.15184 3.04853,-2.14461 5.93534,0.007 9.49123,-1.10998 1.70814,-0.52729 2.49465,-1.35588 4.24047,-1.7436 2.13797,-0.46525 4.64813,1.96735 5.61631,0 0.48076,-0.96155 0.48076,-1.79676 0,-2.76272 m -37.03657,9.21649 c 2.26201,-0.87734 3.75969,-1.08338 6.17458,-0.82858 3.21471,0.3301 4.5573,2.19333 7.55267,3.40966 1.10775,0.4453 2.93775,-0.0908 2.85355,1.09888 -0.27249,4.15185 -3.01972,4.39113 -5.89765,4.43321 -2.5434,0.0355 -3.10172,-2.91781 -5.6163,-3.32546 -1.8566,-0.29688 -3.35872,1.77906 -4.7899,0.55609 -0.66247,-0.56275 -0.95932,-1.07453 -1.10778,-1.93636 m -12.81447,-18.51939 5.53433,4.24046 3.1305,13.99535 m 3.0441,0.83745 -5.62073,2.49023 -7.83403,9.57763 m 26.62814,-7.00542 c -4.23603,7.00542 -5.06243,9.22313 -7.55707,18.15607 -1.3271,4.77218 -3.40299,11.24143 -8.93736,16.50106 -1.60845,1.52427 -2.85355,2.74722 -5.06685,2.57219 -1.02133,-0.082 -1.62616,-0.28135 -2.49465,-0.82638 m 36.95903,-51.78741 2.76274,-0.36555"
         id="path289"
         style="fill:none;stroke:#000000;stroke-width:3.32326;stroke-linecap:round;stroke-linejoin:round;stroke-miterlimit:3.8637" /><path
         d="m 236.9541,251.63728 c -31.3538,-30.54957 -48.00994,-74.0089 -48.00994,-122.37113 0,-95.55688 79.40141,-177.794174 174.96939,-180.138178 M 130.47699,129.26394 c 0,-131.6363798 106.70532,-238.33947 238.33726,-238.33947 131.63194,0 238.33948,106.7053056 238.33948,238.33947 0,131.6275 -106.70974,238.33504 -238.33948,238.33504 -131.63194,0 -238.33726,-106.70754 -238.33726,-238.33504 z M 375.57597,-50.54635 c 95.04067,4.818722 173.11061,83.571022 173.11061,179.81029 0,46.61642 -19.19514,89.95389 -48.28249,121.9081 m -24.13347,22.30124 c -23.21848,18.16494 -67.58173,34.58403 -102.35628,36.84385 m -14.89483,-0.66245 c -37.30244,-1.94299 -67.4754,-14.49161 -95.36637,-35.76044"
         id="path327"
         style="fill:none;stroke:#000000;stroke-width:3.32326;stroke-miterlimit:3.8637" /><path
         d="m 253.93595,268.14722 c 0,-3.77965 3.06848,-6.85033 6.85256,-6.85033 3.78407,0 6.85255,3.07068 6.85255,6.85033 0,3.78851 -3.06848,6.8592 -6.85255,6.8592 -3.78408,-0.002 -6.85256,-3.07069 -6.85256,-6.8592 z m 218.39328,0 c 0,-3.77965 3.07291,-6.85033 6.85699,-6.85033 3.78408,0 6.85256,3.07068 6.85256,6.85033 0,3.78851 -3.06848,6.8592 -6.85256,6.8592 -3.78408,-0.002 -6.85699,-3.07069 -6.85699,-6.8592 z"
         id="path329"
         style="fill:none;stroke:#000000;stroke-width:3.32326;stroke-linecap:round;stroke-linejoin:round;stroke-miterlimit:3.8637" /><path
         d="m 353.23706,-84.957555 c 1.77461,-5.888808 9.32726,-8.8886 14.66218,-5.822342 3.25015,1.869885 4.86303,4.442084 5.03583,8.188502 0.19498,4.236042 -2.22434,6.704114 -5.52989,9.364935 -2.19555,1.774618 -3.78186,2.523458 -6.54682,3.097273 m -29.21141,-0.68459 c -12.63499,7.701089 -17.11034,2.011677 -17.30087,-4.672498 -0.17501,-6.163531 5.72267,-9.156677 12.40462,-9.801389 12.55301,-1.21631 16.6052,14.671068 33.05087,15.145184 l 3.89487,-0.06646 3.55367,-0.06203 c 16.41688,-1.054583 19.91515,-17.06824 32.50144,-16.292816 6.69524,0.409869 12.69261,3.201404 12.73914,9.369366 0.0465,6.679745 -4.23161,12.524245 -17.12586,5.268469"
         id="path331"
         style="fill:none;stroke:#000000;stroke-width:3.32326;stroke-linecap:round;stroke-miterlimit:3.8637" /><path
         d="m 222.82142,71.304147 c 0,0 -6.58006,9.681755 -9.95649,16.332689 -2.8735,5.676116 -6.38952,15.005604 -6.38952,15.005604 3.00646,3.44953 4.64149,4.52186 6.38952,8.16856 2.21551,4.6149 1.72144,5.69608 1.18309,8.83766 m 11.60703,-5.11118 c -9.13232,4.20946 -23.6328,10.6588 -23.97177,15.44871 -0.50512,7.26684 12.34923,16.77135 22.01103,23.17418 4.70353,-6.32084 6.43605,-11.13291 6.83706,-18.9913 0.40543,-7.88276 -0.83525,-12.86321 -4.87632,-19.63159 z m 3.10168,8.16856 -9.94317,4.17179 m 11.2747,7.28017 h -11.71779 m 9.94316,10.39069 -10.82716,-4.17843 m -4.18731,5.7736 c -0.56937,2.63646 -1.06566,4.1186 -2.20885,6.56673 -1.82337,3.92369 -3.30996,6.02397 -6.38951,9.05922 3.48721,4.7722 5.69828,7.32004 9.93875,11.44752 3.32549,3.24348 5.3305,4.95386 9.05256,7.72546"
         id="path333"
         style="fill:none;stroke:#000000;stroke-width:3.32326;stroke-miterlimit:3.8637" /><path
         d="m 515.32551,71.304147 c 0,0 6.58006,9.681755 9.95648,16.332689 2.87794,5.676116 6.39392,15.005604 6.39392,15.005604 -3.01085,3.44953 -4.64589,4.52186 -6.39392,8.16856 -2.21551,4.6149 -2.10916,6.06828 -1.57079,9.20985 m -11.21487,-5.48337 c 10.33309,1.16533 23.27386,16.45234 25.53146,20.79692 2.34622,4.50635 -15.19837,14.00201 -23.57519,17.82597 -4.70351,-6.32084 -6.43604,-11.13291 -6.83703,-18.9913 -0.40102,-7.88276 0.83744,-12.86321 4.88076,-19.63159 z m -3.10616,8.16856 9.93876,4.17179 m -11.27027,7.28017 h 11.7178 m -9.94319,10.39069 10.82717,-4.17843 m 4.17402,7.60361 c 0.31903,3.4584 0.82859,5.43241 2.21993,8.61167 1.73252,3.96132 3.24349,6.09484 6.38952,9.05697 -3.4872,4.77219 -5.69828,7.32887 -9.94318,11.45636 -3.32104,3.23465 -5.32607,4.94723 -9.04813,7.71661"
         id="path335"
         style="fill:none;stroke:#000000;stroke-width:3.32326;stroke-miterlimit:3.8637" /><path
         d="m 289.90686,243.97829 32.26439,-0.28136 m 85.37222,0.28136 37.78098,-0.28136 m -101.36373,-74.82201 2.76938,-1.10774 m 28.01064,50.12798 c 0,-1.40683 -0.0576,-2.19999 -0.27253,-3.59799 -0.6004,-3.83723 -1.45557,-6.05497 -3.59797,-9.29845 l -3.6866,-6.72404 -5.62074,-3.32549 -3.59355,-1.38247"
         id="path337"
         style="fill:none;stroke:#000000;stroke-width:3.32326;stroke-linecap:round;stroke-linejoin:round;stroke-miterlimit:3.8637" /></g><text
       xml:space="preserve"
       style="font-style:normal;font-variant:normal;font-weight:600;font-stretch:normal;font-size:19.7556px;font-family:'Source Sans Pro';-inkscape-font-specification:'Source Sans Pro, Semi-Bold';font-variant-ligatures:normal;font-variant-caps:normal;font-variant-numeric:normal;font-variant-east-asian:normal;fill:#000000;stroke-width:1.92303"
       x="76.521957"
       y="27.650917"
       id="text1"><tspan
         sodipodi:role="line"
         id="tspan1"
         style="font-style:normal;font-variant:normal;font-weight:600;font-stretch:normal;font-size:19.7556px;font-family:'Source Sans Pro';-inkscape-font-specification:'Source Sans Pro, Semi-Bold';font-variant-ligatures:normal;font-variant-caps:normal;font-variant-numeric:normal;font-variant-east-asian:normal;stroke-width:1.92303"
         x="76.521957"
         y="27.650917">Vienna Doctoral</tspan><tspan
         sodipodi:role="line"
         style="font-style:normal;font-variant:normal;font-weight:600;font-stretch:normal;font-size:19.7556px;font-family:'Source Sans Pro';-inkscape-font-specification:'Source Sans Pro, Semi-Bold';font-variant-ligatures:normal;font-variant-caps:normal;font-variant-numeric:normal;font-variant-east-asian:normal;stroke-width:1.92303"
         x="76.521957"
         y="52.345417"
         id="tspan2">School of Philosophy</tspan></text></g></svg>
