<?xml version="1.0" encoding="UTF-8" standalone="no"?>
<!-- Created with Inkscape (http://www.inkscape.org/) -->

<svg
   width="352mm"
   height="95mm"
   viewBox="0 0 352 95"
   version="1.1"
   id="svg1"
   xml:space="preserve"
   xmlns="http://www.w3.org/2000/svg"
   xmlns:svg="http://www.w3.org/2000/svg"><defs
     id="defs1" /><g
     id="layer1"><g
       style="overflow:visible"
       id="g1"
       transform="matrix(0.31848016,0,0,0.31848016,-2.7835304,-2.4453045)"><g
         id="g160">
	<path
   fill-rule="evenodd"
   clip-rule="evenodd"
   fill="#76787b"
   d="m 155.219,36.397 c 0.698,0.34 1.592,0.049 1.943,-0.67 0.349,-0.717 0.03,-1.602 -0.668,-1.943 -0.717,-0.349 -1.594,-0.047 -1.943,0.67 -0.349,0.717 -0.049,1.592 0.668,1.943 z m 3.033,-6.218 c 0.698,0.342 1.594,0.048 1.943,-0.668 0.349,-0.719 0.03,-1.604 -0.668,-1.943 -0.719,-0.351 -1.593,-0.048 -1.943,0.67 -0.349,0.716 -0.048,1.592 0.668,1.941 z"
   id="path1" />
	<path
   fill="none"
   stroke="#76787b"
   stroke-width="1.5"
   stroke-miterlimit="3.8637"
   d="m 80.413,170.775 c 0,0 8.05,6.934 38.173,6.934 30.124,0 38.995,-6.354 38.995,-6.354 v 5.765 c 0,0 -8.871,6.351 -38.995,6.351 -30.123,0 -38.173,-6.934 -38.173,-6.934 z"
   id="path2" />
	<path
   fill="none"
   stroke="#76787b"
   stroke-width="1.5"
   stroke-linecap="round"
   stroke-miterlimit="3.8637"
   d="m 182.277,182.816 c 0,-1.87 1.516,-3.383 3.387,-3.383 1.869,0 3.384,1.513 3.384,3.383 0,1.871 -1.516,3.387 -3.384,3.387 -1.871,0 -3.387,-1.515 -3.387,-3.387 z M 165.07,196.59 c 0,-1.866 1.516,-3.383 3.386,-3.383 1.87,0 3.387,1.517 3.387,3.383 0,1.871 -1.516,3.387 -3.387,3.387 -1.871,0 -3.386,-1.516 -3.386,-3.387 z"
   id="path3" />
	<path
   fill="#76787b"
   d="m 113.146,114.25 c 0,-0.674 0.545,-1.219 1.221,-1.219 0.672,0 1.217,0.545 1.217,1.219 0,0.674 -0.545,1.219 -1.217,1.219 -0.676,0 -1.221,-0.545 -1.221,-1.219 z"
   id="path4" />
	<path
   fill="#76787b"
   d="m 115.091,116.079 c 0,-0.674 0.545,-1.219 1.219,-1.219 0.674,0 1.219,0.545 1.219,1.219 0,0.672 -0.545,1.217 -1.219,1.217 -0.674,0 -1.219,-0.545 -1.219,-1.217 z"
   id="path5" />
	<path
   fill="#76787b"
   d="m 117.037,117.907 c 0,-0.674 0.545,-1.219 1.219,-1.219 0.674,0 1.219,0.545 1.219,1.219 0,0.672 -0.545,1.219 -1.219,1.219 -0.674,0 -1.219,-0.547 -1.219,-1.219 z"
   id="path6" />
	<path
   fill="#76787b"
   d="m 118.586,120.226 c 0,-0.676 0.545,-1.221 1.219,-1.221 0.672,0 1.219,0.545 1.219,1.221 0,0.672 -0.547,1.217 -1.219,1.217 -0.674,-0.001 -1.219,-0.546 -1.219,-1.217 z"
   id="path7" />
	<path
   fill="#76787b"
   d="m 119.281,123.021 c 0,-0.672 0.547,-1.217 1.221,-1.217 0.672,0 1.219,0.545 1.219,1.217 0,0.673 -0.547,1.218 -1.219,1.218 -0.674,0 -1.221,-0.545 -1.221,-1.218 z"
   id="path8" />
	<path
   fill="#76787b"
   d="m 119.49,125.576 c 0,-0.673 0.547,-1.222 1.221,-1.222 0.672,0 1.217,0.549 1.217,1.222 0,0.672 -0.545,1.217 -1.217,1.217 -0.674,0 -1.221,-0.545 -1.221,-1.217 z"
   id="path9" />
	<path
   fill="#76787b"
   d="m 119.09,128.495 c 0,-0.672 0.545,-1.217 1.219,-1.217 0.672,0 1.219,0.545 1.219,1.217 0,0.673 -0.547,1.222 -1.219,1.222 -0.674,0 -1.219,-0.549 -1.219,-1.222 z"
   id="path10" />
	<path
   fill="#76787b"
   d="m 118.687,131.415 c 0,-0.672 0.547,-1.217 1.219,-1.217 0.674,0 1.221,0.545 1.221,1.217 0,0.672 -0.547,1.221 -1.221,1.221 -0.672,0 -1.219,-0.549 -1.219,-1.221 z"
   id="path11" />
	<path
   fill="#76787b"
   d="m 120.968,129.951 c 0,-0.672 0.547,-1.217 1.221,-1.217 0.672,0 1.217,0.545 1.217,1.217 0,0.676 -0.545,1.222 -1.217,1.222 -0.674,0 -1.221,-0.546 -1.221,-1.222 z"
   id="path12" />
	<path
   fill="#76787b"
   d="m 122.518,127.76 c 0,-0.676 0.547,-1.221 1.219,-1.221 0.674,0 1.219,0.545 1.219,1.221 0,0.672 -0.545,1.218 -1.219,1.218 -0.673,0 -1.219,-0.546 -1.219,-1.218 z"
   id="path13" />
	<path
   fill="#76787b"
   d="m 123.946,125.206 c 0,-0.676 0.545,-1.221 1.219,-1.221 0.672,0 1.217,0.545 1.217,1.221 0,0.672 -0.545,1.217 -1.217,1.217 -0.674,0 -1.219,-0.545 -1.219,-1.217 z"
   id="path14" />
	<path
   fill="#76787b"
   d="m 125.372,122.648 c 0,-0.672 0.547,-1.217 1.219,-1.217 0.674,0 1.219,0.545 1.219,1.217 0,0.676 -0.545,1.221 -1.219,1.221 -0.672,0 -1.219,-0.545 -1.219,-1.221 z"
   id="path15" />
	<path
   fill="#76787b"
   d="m 126.068,119.853 c 0,-0.675 0.545,-1.22 1.219,-1.22 0.674,0 1.219,0.545 1.219,1.22 0,0.672 -0.545,1.221 -1.219,1.221 -0.674,-0.001 -1.219,-0.55 -1.219,-1.221 z"
   id="path16" />
	<path
   fill="#76787b"
   d="m 126.277,117.296 c 0,-0.672 0.545,-1.217 1.219,-1.217 0.672,0 1.219,0.545 1.219,1.217 0,0.674 -0.547,1.221 -1.219,1.221 -0.673,0.001 -1.219,-0.547 -1.219,-1.221 z"
   id="path17" />
	<path
   fill="#76787b"
   d="m 125.876,114.376 c 0,-0.672 0.545,-1.219 1.219,-1.219 0.672,0 1.219,0.547 1.219,1.219 0,0.674 -0.547,1.219 -1.219,1.219 -0.674,0.001 -1.219,-0.544 -1.219,-1.219 z"
   id="path18" />
	<polygon
   fill="none"
   stroke="#76787b"
   stroke-width="1.5"
   stroke-miterlimit="3.8637"
   points="60.24,85.043 79.891,85.043 79.891,91.76 60.24,91.76 "
   id="polygon18" />
	
		<path
   fill="none"
   stroke="#76787b"
   stroke-width="1.5"
   stroke-linecap="round"
   stroke-linejoin="round"
   stroke-miterlimit="3.8637"
   d="m 85.633,99.283 c -0.086,12.489 0.343,19.001 1.451,31.99 1.393,16.38 2.531,21.312 5.414,34.7 M 83.674,96.365 c -0.394,21.03 0.394,34.038 0.59,49.761 0.205,16.436 0.59,15.33 2.162,20.636 m 63.488,-38.972 c -1.113,20.337 -4.938,36.862 -7.484,38.691 m 11.861,-39.804 c -1.112,20.338 -2.07,35.94 -4.452,41.28"
   id="path19" />
	<path
   fill="none"
   stroke="#76787b"
   stroke-width="1.5"
   stroke-linecap="round"
   stroke-miterlimit="3.8637"
   d="m 61.235,195.455 c 0,-1.87 1.514,-3.387 3.384,-3.387 1.87,0 3.387,1.517 3.387,3.387 0,1.87 -1.516,3.387 -3.387,3.387 -1.871,0 -3.384,-1.517 -3.384,-3.387 z M 45.507,182.324 c 0,-1.871 1.516,-3.387 3.387,-3.387 1.869,0 3.386,1.516 3.386,3.387 0,1.87 -1.518,3.386 -3.386,3.386 -1.871,0 -3.387,-1.516 -3.387,-3.386 z"
   id="path20" />
	<path
   fill="none"
   stroke="#76787b"
   stroke-width="1.5"
   stroke-miterlimit="1"
   d="m 117.896,91.127 -5.119,2.608 c -0.743,2.999 -1.116,4.703 -1.697,7.738 -0.362,1.895 -1.798,3.194 -0.848,4.874 0.446,0.79 0.874,1.21 1.697,1.591 1.012,0.468 1.792,0.427 2.86,0.106 0.836,-0.252 1.363,-0.487 1.908,-1.167 0.788,-0.98 0.5,-1.923 0.53,-3.179 0.052,-2.205 -2.503,-4.34 -1.271,-5.513 2.191,-2.083 2.746,-4.271 1.94,-7.058 z"
   id="path21" />
	<path
   fill="none"
   stroke="#76787b"
   stroke-width="1.5"
   stroke-miterlimit="3.8637"
   d="m 130.187,96.601 c 0.122,2.683 2.194,3.272 2.194,5.481 0,2.311 0.2,2.126 -0.366,3.286 -0.442,0.907 -0.846,1.419 -1.706,1.945 -1.262,0.771 -2.388,0.879 -3.773,0.366"
   id="path22" />
	<path
   fill="none"
   stroke="#76787b"
   stroke-width="1.5"
   stroke-miterlimit="3.8637"
   d="m 115.95,107.191 c 0.265,1.014 0.317,1.631 0.239,2.675 -0.093,1.23 -0.293,1.945 -0.847,3.049 m 10.383,-4.828 c 0.162,1.689 0.097,2.688 -0.284,4.34 -0.282,1.229 -0.528,1.914 -1.096,3.041"
   id="path23" />
	<path
   fill="none"
   stroke="#76787b"
   stroke-width="1.5"
   stroke-miterlimit="3.8637"
   d="m 118.594,91.346 c 2.375,-0.459 3.754,-0.579 6.17,-0.542 2.048,0.034 3.211,0.153 5.221,0.542 0.349,1.454 0.411,2.335 0.271,3.825 -0.051,0.519 -0.095,0.81 -0.204,1.32 0.36,1.695 0.345,2.759 -0.067,4.441 -0.364,1.488 -0.941,2.207 -1.665,3.556 -0.526,0.98 -0.846,1.523 -1.447,2.459 -0.368,0.603 -0.685,0.913 -1.299,1.262 -1.208,0.685 -2.351,0.685 -3.556,0 -2.28,-1.116 -4.036,-3.946 -5.201,-5.937"
   id="path24" />
	<polygon
   fill="#76787b"
   points="119.771,95.006 124.224,94.9 123.791,96.41 120.393,96.86 "
   id="polygon24" />
	<polygon
   fill="#76787b"
   points="129.841,94.793 126.515,94.719 126.873,96.173 129.311,96.703 "
   id="polygon25" />
	<polygon
   fill="#76787b"
   points="126.556,99.882 125.919,100.517 126.979,100.836 127.086,96.278 126.873,95.219 126.025,95.219 126.025,98.505 "
   id="polygon26" />
	<polygon
   fill="#76787b"
   points="123.8,103.805 124.859,104.333 127.192,104.439 127.403,102.957 123.164,102.957 "
   id="polygon27" />
	<path
   fill="none"
   stroke="#76787b"
   stroke-width="1.5"
   stroke-miterlimit="3.8637"
   d="m 112.665,93.317 c 2.313,-1.283 3.752,-1.835 6.329,-2.435 4.206,-0.976 6.864,-0.976 11.07,0 l 0.732,-3.651 c -4.417,-1.357 -7.352,-1.447 -11.843,-0.36 -3.063,0.741 -4.783,1.507 -7.385,3.286 z m -1.707,-3.526 -5.23,-5.235 c 1.344,-1.396 2.686,-1.924 4.622,-1.824 1.994,0.104 3.323,0.823 4.503,2.433 l 2.556,-1.585 c -0.356,-1.135 -0.415,-1.863 -0.245,-3.041 0.252,-1.744 2.072,-4.014 2.072,-4.014 0.123,0 2.755,0.917 3.769,2.311 0.846,1.167 1.133,2.089 1.096,3.53 l 3.288,0.366 c 0.192,-1.648 0.825,-2.705 2.188,-3.651 1.833,-1.273 3.838,-1.316 5.724,-0.122 -1.368,1.667 -2.052,2.705 -3.041,4.621 -0.597,1.154 -0.817,1.859 -1.342,3.048"
   id="path27" />
	
		<path
   fill="none"
   stroke="#76787b"
   stroke-width="1.5"
   stroke-linecap="round"
   stroke-linejoin="round"
   stroke-miterlimit="3.8637"
   d="m 117.113,73.875 c -3.896,-11.201 -6.308,-21.112 1.473,-21.446 9.917,-0.426 8.431,8.137 3.827,21.526 m 2.894,1.41 c 2.834,-10.49 4.167,-21.416 11.7,-18.452 7.204,2.834 6.407,8.683 -4.309,17.937 m 2.417,11.646 c 11.604,-3.827 19.499,-8.479 21.69,-2.879 m -20.34,-8.198 c 3.917,-5.361 11.572,-12.204 15.129,-5.055 4.268,8.578 -5.703,9.489 -14.513,12.035 m -22.16,-7.306 c -3.829,-10.219 -7.305,-21.185 -12.717,-18.81 -7.279,3.192 -4.816,8.341 8.333,21.489 m -8.523,7.062 C 90.677,80.736 84.703,76.629 81.867,82.93 m 25.992,-4.184 c -4.135,-4.73 -16.764,-19.54 -20.731,-9.592 -3.455,8.67 7.204,9.165 15.618,12.271"
   id="path28" />
	<path
   fill="none"
   stroke="#76787b"
   stroke-width="1.5"
   stroke-miterlimit="3.8637"
   d="m 103.907,196.911 c -6.252,-3.887 -12.241,-5.519 -17.181,-10.155 -2.171,-2.039 -2.685,-4.638 -1.65,-6.422"
   id="path29" />
	
		<path
   fill="none"
   stroke="#76787b"
   stroke-width="1.5"
   stroke-linecap="round"
   stroke-linejoin="round"
   stroke-miterlimit="3.8637"
   d="m 113.615,197.964 c -4.621,-3.136 -7.322,-4.188 -8.356,-8.371 -0.534,-2.165 -0.149,-4.039 1.484,-5.521 m 10.309,12.239 c -2.836,-3.585 -3.732,-3.596 -4.188,-6.721 -0.282,-1.935 0.601,-4.036 2.102,-4.918 m -5.387,12.841 c -6.573,-3.137 -8.81,-3.081 -12.995,-8.674 -1.783,-2.386 -1.633,-3.435 -0.75,-5.82 m 23.256,13.292 c 2.835,-3.585 3.73,-3.596 4.187,-6.721 0.282,-1.935 -0.601,-4.036 -2.104,-4.918 m 0.101,13.382 c 5.22,-2.404 9.088,-4.88 10.122,-9.065 0.534,-2.165 0.433,-3.285 -1.202,-4.768 m -3.631,13.292 c 6.571,-3.137 9.907,-3.514 14.089,-9.106 1.785,-2.383 2.449,-3.286 0.452,-5.238 m -8.87,13.742 c 6.252,-3.887 11.554,-4.167 16.492,-8.804 2.171,-2.039 1.184,-5.089 0.151,-6.874"
   id="path30" />
	<path
   fill="#76787b"
   d="m 65.202,189.926 c 0,-0.743 0.603,-1.345 1.344,-1.345 0.741,0 1.342,0.602 1.342,1.345 0,0.739 -0.601,1.34 -1.342,1.34 -0.741,0 -1.344,-0.601 -1.344,-1.34 z"
   id="path31" />
	<path
   fill="#76787b"
   d="m 68.309,193.633 c 0,-0.743 0.601,-1.344 1.344,-1.344 0.741,0 1.342,0.601 1.342,1.344 0,0.739 -0.601,1.341 -1.342,1.341 -0.743,0 -1.344,-0.602 -1.344,-1.341 z"
   id="path32" />
	<path
   fill="#76787b"
   d="m 67.329,199.342 c 0,-0.743 0.603,-1.344 1.342,-1.344 0.743,0 1.344,0.601 1.344,1.344 0,0.743 -0.601,1.341 -1.344,1.341 -0.739,0 -1.342,-0.598 -1.342,-1.341 z"
   id="path33" />
	<path
   fill="#76787b"
   d="m 61.379,200.966 c 0,-0.743 0.601,-1.344 1.342,-1.344 0.741,0 1.342,0.601 1.342,1.344 0,0.739 -0.601,1.341 -1.342,1.341 -0.741,0 -1.342,-0.602 -1.342,-1.341 z"
   id="path34" />
	<path
   fill="#76787b"
   d="m 58.112,196.814 c 0,-0.739 0.603,-1.341 1.344,-1.341 0.741,0 1.342,0.602 1.342,1.341 0,0.743 -0.601,1.344 -1.342,1.344 -0.741,0 -1.344,-0.6 -1.344,-1.344 z"
   id="path35" />
	<path
   fill="#76787b"
   d="m 59.535,191.464 c 0,-0.739 0.601,-1.341 1.344,-1.341 0.741,0 1.342,0.602 1.342,1.341 0,0.743 -0.601,1.344 -1.342,1.344 -0.743,0 -1.344,-0.601 -1.344,-1.344 z"
   id="path36" />
	<path
   fill="#76787b"
   d="m 49.476,176.794 c 0,-0.739 0.601,-1.344 1.342,-1.344 0.741,0 1.342,0.604 1.342,1.344 0,0.743 -0.601,1.345 -1.342,1.345 -0.741,0 -1.342,-0.602 -1.342,-1.345 z"
   id="path37" />
	<path
   fill="#76787b"
   d="m 52.583,180.502 c 0,-0.743 0.601,-1.345 1.342,-1.345 0.741,0 1.342,0.602 1.342,1.345 0,0.743 -0.601,1.34 -1.342,1.34 -0.741,0 -1.342,-0.597 -1.342,-1.34 z"
   id="path38" />
	<path
   fill="#76787b"
   d="m 51.601,186.211 c 0,-0.743 0.601,-1.345 1.344,-1.345 0.741,0 1.342,0.602 1.342,1.345 0,0.742 -0.601,1.344 -1.342,1.344 -0.743,0 -1.344,-0.602 -1.344,-1.344 z"
   id="path39" />
	<path
   fill="#76787b"
   d="m 45.651,187.835 c 0,-0.743 0.601,-1.345 1.342,-1.345 0.743,0 1.344,0.602 1.344,1.345 0,0.739 -0.601,1.34 -1.344,1.34 -0.741,0 -1.342,-0.601 -1.342,-1.34 z"
   id="path40" />
	<path
   fill="#76787b"
   d="m 42.386,183.687 c 0,-0.743 0.601,-1.344 1.342,-1.344 0.741,0 1.342,0.601 1.342,1.344 0,0.739 -0.601,1.341 -1.342,1.341 -0.741,0 -1.342,-0.602 -1.342,-1.341 z"
   id="path41" />
	<path
   fill="#76787b"
   d="m 43.808,178.336 c 0,-0.743 0.601,-1.344 1.342,-1.344 0.741,0 1.342,0.601 1.342,1.344 0,0.739 -0.601,1.341 -1.342,1.341 -0.741,0 -1.342,-0.602 -1.342,-1.341 z"
   id="path42" />
	<path
   fill="#76787b"
   d="m 169.039,191.064 c 0,-0.743 0.601,-1.345 1.342,-1.345 0.741,0 1.342,0.602 1.342,1.345 0,0.739 -0.601,1.34 -1.342,1.34 -0.741,0 -1.342,-0.6 -1.342,-1.34 z"
   id="path43" />
	<path
   fill="#76787b"
   d="m 172.146,194.769 c 0,-0.739 0.601,-1.341 1.342,-1.341 0.741,0 1.342,0.602 1.342,1.341 0,0.742 -0.601,1.344 -1.342,1.344 -0.741,0 -1.342,-0.602 -1.342,-1.344 z"
   id="path44" />
	<path
   fill="#76787b"
   d="m 171.164,200.477 c 0,-0.739 0.603,-1.34 1.344,-1.34 0.741,0 1.342,0.601 1.342,1.34 0,0.743 -0.601,1.345 -1.342,1.345 -0.741,0 -1.344,-0.602 -1.344,-1.345 z"
   id="path45" />
	<path
   fill="#76787b"
   d="m 165.214,202.101 c 0,-0.742 0.601,-1.344 1.342,-1.344 0.741,0 1.344,0.602 1.344,1.344 0,0.743 -0.603,1.341 -1.344,1.341 -0.741,0 -1.342,-0.598 -1.342,-1.341 z"
   id="path46" />
	<path
   fill="#76787b"
   d="m 161.949,197.953 c 0,-0.743 0.602,-1.345 1.342,-1.345 0.741,0 1.342,0.602 1.342,1.345 0,0.739 -0.601,1.34 -1.342,1.34 -0.741,0 -1.342,-0.601 -1.342,-1.34 z"
   id="path47" />
	<path
   fill="#76787b"
   d="m 163.372,192.603 c 0,-0.743 0.601,-1.344 1.342,-1.344 0.741,0 1.342,0.601 1.342,1.344 0,0.743 -0.601,1.344 -1.342,1.344 -0.741,0 -1.342,-0.601 -1.342,-1.344 z"
   id="path48" />
	<path
   fill="#76787b"
   d="m 82.392,25.17 c 0,-0.743 0.601,-1.344 1.344,-1.344 0.741,0 1.342,0.601 1.342,1.344 0,0.741 -0.601,1.342 -1.342,1.342 -0.743,0 -1.344,-0.601 -1.344,-1.342 z"
   id="path49" />
	<path
   fill="#76787b"
   d="m 85.499,28.875 c 0,-0.741 0.601,-1.342 1.344,-1.342 0.739,0 1.342,0.601 1.342,1.342 0,0.741 -0.603,1.342 -1.342,1.342 -0.743,0.001 -1.344,-0.6 -1.344,-1.342 z"
   id="path50" />
	<path
   fill="#76787b"
   d="m 84.518,34.584 c 0,-0.741 0.602,-1.342 1.342,-1.342 0.743,0 1.344,0.601 1.344,1.342 0,0.741 -0.601,1.342 -1.344,1.342 -0.74,10e-4 -1.342,-0.6 -1.342,-1.342 z"
   id="path51" />
	<path
   fill="#76787b"
   d="m 78.569,36.207 c 0,-0.741 0.601,-1.342 1.34,-1.342 0.743,0 1.344,0.602 1.344,1.342 0,0.741 -0.601,1.342 -1.344,1.342 -0.739,0 -1.34,-0.601 -1.34,-1.342 z"
   id="path52" />
	<path
   fill="#76787b"
   d="m 75.302,32.059 c 0,-0.741 0.601,-1.342 1.344,-1.342 0.741,0 1.342,0.601 1.342,1.342 0,0.741 -0.602,1.342 -1.342,1.342 -0.743,0 -1.344,-0.601 -1.344,-1.342 z"
   id="path53" />
	<path
   fill="#76787b"
   d="m 76.724,26.708 c 0,-0.741 0.601,-1.342 1.344,-1.342 0.741,0 1.342,0.601 1.342,1.342 0,0.743 -0.601,1.344 -1.342,1.344 -0.743,0 -1.344,-0.601 -1.344,-1.344 z"
   id="path54" />
	<path
   fill="#76787b"
   stroke="#76787b"
   stroke-width="1.5"
   stroke-miterlimit="3.8637"
   d="m 154.052,27.236 0.915,-3.039 c -0.545,-0.297 -1.736,-0.987 -3.032,-1.434 -2.822,-0.973 -4.842,-0.325 -5.563,1.764 -0.534,1.547 0.093,2.804 0.995,3.958 1.387,1.755 3.409,3.229 2.757,5.128 -0.407,1.18 -1.669,1.762 -3.351,1.184 -2.535,-0.874 -2.36,-2.827 -2.251,-3.893 l -0.562,-0.194 -0.983,3.233 c 0.597,0.401 1.734,1.182 3.263,1.708 2.94,1.014 5.395,0.731 6.336,-1.996 0.454,-1.316 0.069,-2.401 -0.625,-3.463 -1.064,-1.623 -4.045,-3.644 -3.392,-5.541 0.347,-1.006 1.49,-1.499 3.058,-0.959 2.05,0.706 2.08,2.251 1.874,3.351 z"
   id="path55" />
	<path
   fill="#76787b"
   d="m 184.086,46.208 1.947,-2.509 c -0.405,-0.474 -1.268,-1.546 -2.317,-2.427 -2.289,-1.919 -4.406,-2.039 -5.827,-0.345 -1.053,1.254 -0.917,2.651 -0.491,4.051 0.667,2.134 2.025,4.238 0.735,5.774 -0.803,0.956 -2.188,1.049 -3.551,-0.095 -2.053,-1.723 -1.191,-3.484 -0.708,-4.441 l -0.454,-0.381 -2.078,2.666 c 0.415,0.588 1.195,1.725 2.435,2.765 2.38,1.998 4.773,2.615 6.629,0.405 0.896,-1.066 0.926,-2.216 0.657,-3.456 -0.411,-1.895 -2.47,-4.852 -1.18,-6.389 0.683,-0.815 1.928,-0.866 3.198,0.198 1.662,1.395 1.133,2.849 0.549,3.801 z"
   id="path56" />
	<path
   fill="none"
   stroke="#76787b"
   stroke-width="1.5"
   stroke-miterlimit="3.8637"
   d="m 184.086,46.208 1.947,-2.509 c -0.405,-0.474 -1.268,-1.546 -2.317,-2.427 -2.289,-1.919 -4.406,-2.039 -5.827,-0.345 -1.053,1.254 -0.917,2.651 -0.491,4.051 0.667,2.134 2.025,4.238 0.735,5.774 -0.803,0.956 -2.188,1.049 -3.551,-0.095 -2.053,-1.723 -1.191,-3.484 -0.708,-4.441 l -0.454,-0.381 -2.078,2.666 c 0.415,0.588 1.195,1.725 2.435,2.765 2.38,1.998 4.773,2.615 6.629,0.405 0.896,-1.066 0.926,-2.216 0.657,-3.456 -0.411,-1.895 -2.47,-4.852 -1.18,-6.389 0.683,-0.815 1.928,-0.866 3.198,0.198 1.662,1.395 1.133,2.849 0.549,3.801 z"
   id="path57" />
	<path
   fill-rule="evenodd"
   clip-rule="evenodd"
   fill="#76787b"
   d="m 180.324,56.63 3.209,3.825 0.392,-0.329 c -0.698,-0.831 -0.846,-1.295 -0.36,-1.703 0.204,-0.172 0.461,-0.278 0.715,-0.358 l 2.098,-0.747 3.405,4.06 -1.168,2.046 c -0.121,0.235 -0.286,0.456 -0.474,0.612 -0.485,0.407 -1.021,-0.104 -1.535,-0.715 l -0.392,0.329 3.747,4.467 0.394,-0.328 c -0.922,-1.098 -0.94,-1.695 -0.149,-3.106 l 5.927,-10.421 -1.077,-1.284 -11.05,3.901 c -1.708,0.605 -2.382,0.504 -3.289,-0.579 z m 13.234,-1.837 -3.276,5.712 -2.959,-3.524 z"
   id="path58" />
	<path
   fill="none"
   stroke="#76787b"
   stroke-width="1.5"
   stroke-miterlimit="3.8637"
   d="m 180.324,56.63 3.209,3.825 0.392,-0.329 c -0.698,-0.831 -0.846,-1.295 -0.36,-1.703 0.204,-0.172 0.461,-0.278 0.715,-0.358 l 2.098,-0.747 3.405,4.06 -1.168,2.046 c -0.121,0.235 -0.286,0.456 -0.474,0.612 -0.485,0.407 -1.021,-0.104 -1.535,-0.715 l -0.392,0.329 3.747,4.467 0.394,-0.328 c -0.922,-1.098 -0.94,-1.695 -0.149,-3.106 l 5.927,-10.421 -1.077,-1.284 -11.05,3.901 c -1.708,0.605 -2.382,0.504 -3.289,-0.579 z m 13.234,-1.837 -3.276,5.712 -2.959,-3.524 z"
   id="path59" />
	<path
   fill-rule="evenodd"
   clip-rule="evenodd"
   fill="#76787b"
   d="m 191.523,70.575 2.778,5.009 0.446,-0.247 c -0.695,-1.252 -0.573,-1.671 0.821,-2.444 l 3.17,-1.756 0.368,0.663 c 1.219,2.199 2.964,4.928 6.151,3.162 2.472,-1.37 2.257,-3.659 0.997,-5.931 L 203.448,63.966 203,64.215 c 0.695,1.252 0.573,1.671 -0.823,2.444 l -7.699,4.266 c -1.396,0.774 -1.813,0.655 -2.507,-0.598 z m 11.747,-1.947 c 1.073,-0.596 1.366,-0.573 1.893,0.375 0.853,1.54 1.077,2.748 -1.034,3.918 -2.437,1.35 -3.377,-0.095 -4.219,-1.615 l -0.347,-0.627 z"
   id="path60" />
	<path
   fill="none"
   stroke="#76787b"
   stroke-width="1.5"
   stroke-miterlimit="3.8637"
   d="m 191.523,70.575 2.778,5.009 0.446,-0.247 c -0.695,-1.252 -0.573,-1.671 0.821,-2.444 l 3.17,-1.756 0.368,0.663 c 1.219,2.199 2.964,4.928 6.151,3.162 2.472,-1.37 2.257,-3.659 0.997,-5.931 L 203.448,63.966 203,64.215 c 0.695,1.252 0.573,1.671 -0.823,2.444 l -7.699,4.266 c -1.396,0.774 -1.813,0.655 -2.507,-0.598 z m 11.747,-1.947 c 1.073,-0.596 1.366,-0.573 1.893,0.375 0.853,1.54 1.077,2.748 -1.034,3.918 -2.437,1.35 -3.377,-0.095 -4.219,-1.615 l -0.347,-0.627 z"
   id="path61" />
	<path
   fill="#76787b"
   d="m 198.041,82.948 2.145,5.312 0.476,-0.192 c -0.538,-1.327 -0.368,-1.727 1.112,-2.324 l 8.162,-3.297 c 1.48,-0.597 1.88,-0.429 2.417,0.9 l 0.474,-0.192 -2.147,-5.311 -0.472,0.192 c 0.543,1.346 0.366,1.727 -1.115,2.324 l -8.162,3.297 c -1.48,0.597 -1.873,0.448 -2.417,-0.9 z"
   id="path62" />
	<path
   fill="none"
   stroke="#76787b"
   stroke-width="1.5"
   stroke-miterlimit="3.8637"
   d="m 198.041,82.948 2.145,5.312 0.476,-0.192 c -0.538,-1.327 -0.368,-1.727 1.112,-2.324 l 8.162,-3.297 c 1.48,-0.597 1.88,-0.429 2.417,0.9 l 0.474,-0.192 -2.147,-5.311 -0.472,0.192 c 0.543,1.346 0.366,1.727 -1.115,2.324 l -8.162,3.297 c -1.48,0.597 -1.873,0.448 -2.417,-0.9 z"
   id="path63" />
	<path
   fill="#76787b"
   d="m 201.369,91.325 2.408,9.666 2.91,-0.597 -0.144,-0.577 c -1.266,0.252 -2.119,-0.125 -2.544,-1.832 l -0.456,-1.826 c -0.258,-1.034 -0.196,-1.217 1.133,-1.548 l 4.11,-1.025 0.65,2.601 c 0.321,1.29 -0.047,1.591 -1.238,1.889 l 0.133,0.536 4.112,-1.025 -0.134,-0.536 c -1.311,0.327 -1.637,0.198 -1.96,-1.092 l -0.648,-2.601 3.515,-0.877 c 1.113,-0.276 1.484,-0.138 1.727,0.836 l 0.317,1.27 c 0.554,2.223 -0.276,2.703 -1.33,3.05 l 0.144,0.575 2.851,-0.836 -2.33,-9.349 -0.497,0.123 c 0.348,1.391 0.124,1.762 -1.426,2.149 l -8.541,2.128 c -1.549,0.386 -1.921,0.163 -2.268,-1.227 z"
   id="path64" />
	<path
   fill="none"
   stroke="#76787b"
   stroke-width="1.5"
   stroke-miterlimit="3.8637"
   d="m 201.369,91.325 2.408,9.666 2.91,-0.597 -0.144,-0.577 c -1.266,0.252 -2.119,-0.125 -2.544,-1.832 l -0.456,-1.826 c -0.258,-1.034 -0.196,-1.217 1.133,-1.548 l 4.11,-1.025 0.65,2.601 c 0.321,1.29 -0.047,1.591 -1.238,1.889 l 0.133,0.536 4.112,-1.025 -0.134,-0.536 c -1.311,0.327 -1.637,0.198 -1.96,-1.092 l -0.648,-2.601 3.515,-0.877 c 1.113,-0.276 1.484,-0.138 1.727,0.836 l 0.317,1.27 c 0.554,2.223 -0.276,2.703 -1.33,3.05 l 0.144,0.575 2.851,-0.836 -2.33,-9.349 -0.497,0.123 c 0.348,1.391 0.124,1.762 -1.426,2.149 l -8.541,2.128 c -1.549,0.386 -1.921,0.163 -2.268,-1.227 z"
   id="path65" />
	<path
   fill-rule="evenodd"
   clip-rule="evenodd"
   fill="#76787b"
   d="m 204.675,104.964 0.331,4.755 0.511,-0.035 c -0.101,-1.449 0.185,-1.757 1.777,-1.869 l 9.129,-0.637 0.001,0.041 -11.068,7.521 0.135,1.938 11.191,-0.782 c 1.592,-0.11 1.917,0.132 2.018,1.602 l 0.512,-0.036 -0.333,-4.755 -0.51,0.036 c 0.099,1.428 -0.185,1.757 -1.777,1.867 l -8.558,0.598 -0.002,-0.04 10.52,-7.153 -0.278,-4.001 -0.511,0.038 c 0.101,1.428 -0.185,1.755 -1.777,1.865 l -8.782,0.614 c -1.592,0.112 -1.919,-0.173 -2.02,-1.602 z"
   id="path66" />
	<path
   fill="none"
   stroke="#76787b"
   stroke-width="1.5"
   stroke-miterlimit="3.8637"
   d="m 204.675,104.964 0.331,4.755 0.511,-0.035 c -0.101,-1.449 0.185,-1.757 1.777,-1.869 l 9.129,-0.637 0.001,0.041 -11.068,7.521 0.135,1.938 11.191,-0.782 c 1.592,-0.11 1.917,0.132 2.018,1.602 l 0.512,-0.036 -0.333,-4.755 -0.51,0.036 c 0.099,1.428 -0.185,1.757 -1.777,1.867 l -8.558,0.598 -0.002,-0.04 10.52,-7.153 -0.278,-4.001 -0.511,0.038 c 0.101,1.428 -0.185,1.755 -1.777,1.865 l -8.782,0.614 c -1.592,0.112 -1.919,-0.173 -2.02,-1.602 z"
   id="path67" />
	<path
   fill="#76787b"
   d="m 205.347,123.533 -0.502,5.709 0.511,0.045 c 0.125,-1.427 0.458,-1.706 2.048,-1.568 l 10.236,0.896 -0.067,0.776 c -0.188,2.14 -0.943,2.543 -2.47,2.617 l -0.051,0.59 3.17,0.176 0.909,-10.376 -3.149,-0.396 -0.054,0.59 c 1.469,0.354 2.167,0.848 1.979,2.986 l -0.069,0.796 -10.238,-0.896 c -1.591,-0.142 -1.869,-0.474 -1.744,-1.9 z"
   id="path68" />
	<path
   fill="none"
   stroke="#76787b"
   stroke-width="1.5"
   stroke-miterlimit="3.8637"
   d="m 205.347,123.533 -0.502,5.709 0.511,0.045 c 0.125,-1.427 0.458,-1.706 2.048,-1.568 l 10.236,0.896 -0.067,0.776 c -0.188,2.14 -0.943,2.543 -2.47,2.617 l -0.051,0.59 3.17,0.176 0.909,-10.376 -3.149,-0.396 -0.054,0.59 c 1.469,0.354 2.167,0.848 1.979,2.986 l -0.069,0.796 -10.238,-0.896 c -1.591,-0.142 -1.869,-0.474 -1.744,-1.9 z"
   id="path69" />
	<path
   fill="#76787b"
   d="m 203.99,134.507 -1.191,5.604 0.499,0.104 c 0.299,-1.4 0.663,-1.636 2.226,-1.304 l 8.608,1.83 c 1.563,0.332 1.799,0.698 1.501,2.098 l 0.5,0.104 1.193,-5.6 -0.5,-0.108 c -0.303,1.422 -0.663,1.635 -2.224,1.307 l -8.61,-1.833 c -1.563,-0.329 -1.803,-0.676 -1.501,-2.095 z"
   id="path70" />
	<path
   fill="none"
   stroke="#76787b"
   stroke-width="1.5"
   stroke-miterlimit="3.8637"
   d="m 203.99,134.507 -1.191,5.604 0.499,0.104 c 0.299,-1.4 0.663,-1.636 2.226,-1.304 l 8.608,1.83 c 1.563,0.332 1.799,0.698 1.501,2.098 l 0.5,0.104 1.193,-5.6 -0.5,-0.108 c -0.303,1.422 -0.663,1.635 -2.224,1.307 l -8.61,-1.833 c -1.563,-0.329 -1.803,-0.676 -1.501,-2.095 z"
   id="path71" />
	<path
   fill-rule="evenodd"
   clip-rule="evenodd"
   fill="#76787b"
   d="m 202.276,142.833 -1.789,4.659 0.478,0.184 c 0.388,-1.013 0.721,-1.367 1.314,-1.14 0.248,0.098 0.466,0.27 0.659,0.452 l 1.671,1.475 -1.9,4.943 -2.356,-0.025 c -0.267,0.007 -0.538,-0.03 -0.768,-0.12 -0.591,-0.228 -0.403,-0.944 -0.117,-1.688 l -0.478,-0.183 -2.091,5.443 0.478,0.183 c 0.513,-1.336 1.026,-1.646 2.645,-1.639 l 11.987,0.135 0.603,-1.568 -8.769,-7.77 c -1.359,-1.202 -1.594,-1.841 -1.09,-3.159 z m 8.024,10.686 -6.586,-0.097 1.65,-4.298 z"
   id="path72" />
	<path
   fill="none"
   stroke="#76787b"
   stroke-width="1.5"
   stroke-miterlimit="3.8637"
   d="m 202.276,142.833 -1.789,4.659 0.478,0.184 c 0.388,-1.013 0.721,-1.367 1.314,-1.14 0.248,0.098 0.466,0.27 0.659,0.452 l 1.671,1.475 -1.9,4.943 -2.356,-0.025 c -0.267,0.007 -0.538,-0.03 -0.768,-0.12 -0.591,-0.228 -0.403,-0.944 -0.117,-1.688 l -0.478,-0.183 -2.091,5.443 0.478,0.183 c 0.513,-1.336 1.026,-1.646 2.645,-1.639 l 11.987,0.135 0.603,-1.568 -8.769,-7.77 c -1.359,-1.202 -1.594,-1.841 -1.09,-3.159 z m 8.024,10.686 -6.586,-0.097 1.65,-4.298 z"
   id="path73" />
	<path
   fill="#76787b"
   d="m 195.435,159.317 -5.132,8.538 2.479,1.636 0.306,-0.512 c -1.074,-0.717 -1.41,-1.587 -0.504,-3.095 l 0.969,-1.613 c 0.549,-0.911 0.722,-1.001 1.896,-0.291 l 3.631,2.181 -1.381,2.3 c -0.683,1.139 -1.157,1.09 -2.21,0.459 l -0.284,0.475 3.631,2.18 0.284,-0.47 c -1.158,-0.698 -1.297,-1.02 -0.612,-2.162 l 1.381,-2.296 3.104,1.866 c 0.982,0.59 1.146,0.952 0.631,1.812 l -0.676,1.12 c -1.18,1.967 -2.105,1.721 -3.095,1.221 l -0.306,0.508 2.608,1.422 4.964,-8.259 -0.438,-0.261 c -0.737,1.225 -1.159,1.333 -2.528,0.508 l -7.544,-4.533 c -1.368,-0.821 -1.475,-1.243 -0.735,-2.472 z"
   id="path74" />
	<path
   fill="none"
   stroke="#76787b"
   stroke-width="1.5"
   stroke-miterlimit="3.8637"
   d="m 195.435,159.317 -5.132,8.538 2.479,1.636 0.306,-0.512 c -1.074,-0.717 -1.41,-1.587 -0.504,-3.095 l 0.969,-1.613 c 0.549,-0.911 0.722,-1.001 1.896,-0.291 l 3.631,2.181 -1.381,2.3 c -0.683,1.139 -1.157,1.09 -2.21,0.459 l -0.284,0.475 3.631,2.18 0.284,-0.47 c -1.158,-0.698 -1.297,-1.02 -0.612,-2.162 l 1.381,-2.296 3.104,1.866 c 0.982,0.59 1.146,0.952 0.631,1.812 l -0.676,1.12 c -1.18,1.967 -2.105,1.721 -3.095,1.221 l -0.306,0.508 2.608,1.422 4.964,-8.259 -0.438,-0.261 c -0.737,1.225 -1.159,1.333 -2.528,0.508 l -7.544,-4.533 c -1.368,-0.821 -1.475,-1.243 -0.735,-2.472 z"
   id="path75" />
	<path
   fill="#76787b"
   d="m 150.091,211.077 1.301,2.896 c 0.606,-0.134 1.96,-0.396 3.231,-0.907 2.771,-1.12 3.868,-2.935 3.041,-4.98 -0.614,-1.52 -1.91,-2.057 -3.349,-2.333 -2.197,-0.419 -4.691,-0.202 -5.444,-2.062 -0.468,-1.161 0.103,-2.427 1.753,-3.092 2.485,-1.004 3.635,0.583 4.253,1.46 l 0.551,-0.224 -1.38,-3.084 c -0.713,0.09 -2.085,0.246 -3.584,0.852 -2.882,1.165 -4.551,2.986 -3.473,5.664 0.523,1.288 1.523,1.855 2.745,2.202 1.867,0.523 5.445,0.094 6.196,1.953 0.399,0.989 -0.14,2.109 -1.676,2.733 -2.013,0.81 -3.049,-0.337 -3.614,-1.3 z"
   id="path76" />
	<path
   fill="none"
   stroke="#76787b"
   stroke-width="1.5"
   stroke-miterlimit="3.8637"
   d="m 150.091,211.077 1.301,2.896 c 0.606,-0.134 1.96,-0.396 3.231,-0.907 2.771,-1.12 3.868,-2.935 3.041,-4.98 -0.614,-1.52 -1.91,-2.057 -3.349,-2.333 -2.197,-0.419 -4.691,-0.202 -5.444,-2.062 -0.468,-1.161 0.103,-2.427 1.753,-3.092 2.485,-1.004 3.635,0.583 4.253,1.46 l 0.551,-0.224 -1.38,-3.084 c -0.713,0.09 -2.085,0.246 -3.584,0.852 -2.882,1.165 -4.551,2.986 -3.473,5.664 0.523,1.288 1.523,1.855 2.745,2.202 1.867,0.523 5.445,0.094 6.196,1.953 0.399,0.989 -0.14,2.109 -1.676,2.733 -2.013,0.81 -3.049,-0.337 -3.614,-1.3 z"
   id="path77" />
	<path
   fill="#76787b"
   d="m 138.783,203.636 -5.604,1.19 0.106,0.501 c 1.4,-0.299 1.764,-0.063 2.096,1.501 l 2.134,10.047 -0.76,0.164 c -2.1,0.444 -2.71,-0.156 -3.224,-1.598 l -0.583,0.123 0.76,3.084 10.187,-2.165 -0.538,-3.129 -0.583,0.123 c 0.092,1.509 -0.175,2.318 -2.277,2.767 l -0.78,0.164 -2.136,-10.051 c -0.331,-1.561 -0.095,-1.923 1.307,-2.222 z"
   id="path78" />
	<path
   fill="none"
   stroke="#76787b"
   stroke-width="1.5"
   stroke-miterlimit="3.8637"
   d="m 138.783,203.636 -5.604,1.19 0.106,0.501 c 1.4,-0.299 1.764,-0.063 2.096,1.501 l 2.134,10.047 -0.76,0.164 c -2.1,0.444 -2.71,-0.156 -3.224,-1.598 l -0.583,0.123 0.76,3.084 10.187,-2.165 -0.538,-3.129 -0.583,0.123 c 0.092,1.509 -0.175,2.318 -2.277,2.767 l -0.78,0.164 -2.136,-10.051 c -0.331,-1.561 -0.095,-1.923 1.307,-2.222 z"
   id="path79" />
	<path
   fill="#76787b"
   d="m 116.042,217.428 c 0.054,1.595 -0.241,1.912 -1.672,1.964 l 0.019,0.512 4.968,-0.176 -0.017,-0.512 c -1.432,0.053 -1.749,-0.246 -1.805,-1.841 l -0.237,-6.832 c -0.087,-2.558 0.611,-3.667 3.045,-3.753 2.554,-0.089 2.979,1.494 3.049,3.54 l 0.237,6.833 c 0.056,1.594 -0.239,1.911 -1.671,1.964 l 0.017,0.511 5.728,-0.201 -0.019,-0.512 c -1.432,0.053 -1.749,-0.246 -1.805,-1.841 l -0.237,-6.832 c -0.103,-2.987 -1.508,-4.537 -5.067,-4.41 -4.211,0.146 -4.848,2.442 -4.768,4.753 z"
   id="path80" />
	<path
   fill="none"
   stroke="#76787b"
   stroke-width="1.5"
   stroke-miterlimit="3.8637"
   d="m 116.042,217.428 c 0.054,1.595 -0.241,1.912 -1.672,1.964 l 0.019,0.512 4.968,-0.176 -0.017,-0.512 c -1.432,0.053 -1.749,-0.246 -1.805,-1.841 l -0.237,-6.832 c -0.087,-2.558 0.611,-3.667 3.045,-3.753 2.554,-0.089 2.979,1.494 3.049,3.54 l 0.237,6.833 c 0.056,1.594 -0.239,1.911 -1.671,1.964 l 0.017,0.511 5.728,-0.201 -0.019,-0.512 c -1.432,0.053 -1.749,-0.246 -1.805,-1.841 l -0.237,-6.832 c -0.103,-2.987 -1.508,-4.537 -5.067,-4.41 -4.211,0.146 -4.848,2.442 -4.768,4.753 z"
   id="path81" />
	<path
   fill-rule="evenodd"
   clip-rule="evenodd"
   fill="#76787b"
   d="m 109.993,205.958 -5.235,-0.829 c -3.899,-0.62 -6.756,-0.115 -7.682,5.724 -0.895,5.642 1.708,7.132 5.546,7.74 l 5.234,0.829 0.08,-0.508 c -1.434,-0.229 -1.669,-0.575 -1.418,-2.151 l 1.377,-8.691 c 0.25,-1.576 0.581,-1.837 2.016,-1.609 z m -5.698,10.454 c -0.2,1.251 -0.454,1.419 -1.525,1.251 -3.799,-0.602 -3.898,-2.711 -3.308,-6.434 0.64,-4.039 1.672,-5.72 5.148,-5.171 1.234,0.194 1.223,0.649 1.063,1.658 z"
   id="path82" />
	<path
   fill="none"
   stroke="#76787b"
   stroke-width="1.5"
   stroke-miterlimit="3.8637"
   d="m 109.993,205.958 -5.235,-0.829 c -3.899,-0.62 -6.756,-0.115 -7.682,5.724 -0.895,5.642 1.708,7.132 5.546,7.74 l 5.234,0.829 0.08,-0.508 c -1.434,-0.229 -1.669,-0.575 -1.418,-2.151 l 1.377,-8.691 c 0.25,-1.576 0.581,-1.837 2.016,-1.609 z m -5.698,10.454 c -0.2,1.251 -0.454,1.419 -1.525,1.251 -3.799,-0.602 -3.898,-2.711 -3.308,-6.434 0.64,-4.039 1.672,-5.72 5.148,-5.171 1.234,0.194 1.223,0.649 1.063,1.658 z"
   id="path83" />
	<path
   fill="#76787b"
   d="m 93.358,202.698 -5.417,-1.863 -0.167,0.482 c 1.354,0.466 1.544,0.858 1.025,2.367 l -2.867,8.322 c -0.519,1.508 -0.911,1.698 -2.265,1.231 l -0.166,0.485 5.416,1.863 0.166,-0.481 c -1.372,-0.475 -1.543,-0.858 -1.023,-2.367 l 2.868,-8.322 c 0.519,-1.509 0.89,-1.706 2.263,-1.232 z"
   id="path84" />
	<path
   fill="none"
   stroke="#76787b"
   stroke-width="1.5"
   stroke-miterlimit="3.8637"
   d="m 93.358,202.698 -5.417,-1.863 -0.167,0.482 c 1.354,0.466 1.544,0.858 1.025,2.367 l -2.867,8.322 c -0.519,1.508 -0.911,1.698 -2.265,1.231 l -0.166,0.485 5.416,1.863 0.166,-0.481 c -1.372,-0.475 -1.543,-0.858 -1.023,-2.367 l 2.868,-8.322 c 0.519,-1.509 0.89,-1.706 2.263,-1.232 z"
   id="path85" />
	<path
   fill="#76787b"
   d="m 84.225,199.432 -5.234,-2.33 -0.208,0.467 c 1.309,0.582 1.464,0.989 0.814,2.445 l -3.583,8.043 c -0.649,1.456 -1.055,1.612 -2.363,1.03 l -0.207,0.467 5.232,2.329 0.209,-0.466 c -1.328,-0.591 -1.466,-0.99 -0.816,-2.446 l 3.583,-8.042 c 0.649,-1.456 1.036,-1.62 2.363,-1.03 z"
   id="path86" />
	<path
   fill="none"
   stroke="#76787b"
   stroke-width="1.5"
   stroke-miterlimit="3.8637"
   d="m 84.225,199.432 -5.234,-2.33 -0.208,0.467 c 1.309,0.582 1.464,0.989 0.814,2.445 l -3.583,8.043 c -0.649,1.456 -1.055,1.612 -2.363,1.03 l -0.207,0.467 5.232,2.329 0.209,-0.466 c -1.328,-0.591 -1.466,-0.99 -0.816,-2.446 l 3.583,-8.042 c 0.649,-1.456 1.036,-1.62 2.363,-1.03 z"
   id="path87" />
	<path
   fill-rule="evenodd"
   clip-rule="evenodd"
   fill="#76787b"
   d="m 43.354,164.63 -0.917,-1.527 -12.011,2.226 c -1.411,0.276 -1.882,0.131 -2.61,-1.079 l -0.437,0.262 2.623,4.368 0.439,-0.266 c -0.643,-1.067 -0.672,-1.553 -0.215,-1.829 0.192,-0.115 0.463,-0.183 0.995,-0.287 l 9.25,-1.736 0.021,0.033 -5.953,7.184 c -0.362,0.43 -0.558,0.62 -0.752,0.735 -0.51,0.307 -0.893,-0.015 -1.396,-0.854 l -0.438,0.262 2.992,4.98 0.437,-0.262 c -0.79,-1.317 -0.635,-1.695 0.481,-3.058 z"
   id="path88" />
	<path
   fill="none"
   stroke="#76787b"
   stroke-width="1.5"
   stroke-miterlimit="3.8637"
   d="m 43.354,164.63 -0.917,-1.527 -12.011,2.226 c -1.411,0.276 -1.882,0.131 -2.61,-1.079 l -0.437,0.262 2.623,4.368 0.439,-0.266 c -0.643,-1.067 -0.672,-1.553 -0.215,-1.829 0.192,-0.115 0.463,-0.183 0.995,-0.287 l 9.25,-1.736 0.021,0.033 -5.953,7.184 c -0.362,0.43 -0.558,0.62 -0.752,0.735 -0.51,0.307 -0.893,-0.015 -1.396,-0.854 l -0.438,0.262 2.992,4.98 0.437,-0.262 c -0.79,-1.317 -0.635,-1.695 0.481,-3.058 z"
   id="path89" />
	<path
   fill="#76787b"
   d="m 37.851,154.127 -2.145,-5.31 -0.474,0.19 c 0.534,1.33 0.366,1.729 -1.114,2.326 l -8.164,3.297 c -1.479,0.598 -1.878,0.43 -2.416,-0.899 l -0.474,0.194 2.145,5.309 0.474,-0.19 c -0.543,-1.348 -0.366,-1.729 1.115,-2.325 l 8.162,-3.297 c 1.48,-0.598 1.875,-0.448 2.417,0.899 z"
   id="path90" />
	<path
   fill="none"
   stroke="#76787b"
   stroke-width="1.5"
   stroke-miterlimit="3.8637"
   d="m 37.851,154.127 -2.145,-5.31 -0.474,0.19 c 0.534,1.33 0.366,1.729 -1.114,2.326 l -8.164,3.297 c -1.479,0.598 -1.878,0.43 -2.416,-0.899 l -0.474,0.194 2.145,5.309 0.474,-0.19 c -0.543,-1.348 -0.366,-1.729 1.115,-2.325 l 8.162,-3.297 c 1.48,-0.598 1.875,-0.448 2.417,0.899 z"
   id="path91" />
	<path
   fill="#76787b"
   d="m 34.295,144.969 -2.41,-9.663 -2.91,0.598 0.144,0.575 c 1.268,-0.254 2.119,0.127 2.544,1.833 l 0.456,1.825 c 0.258,1.031 0.198,1.218 -1.133,1.546 l -4.113,1.027 -0.646,-2.603 c -0.321,-1.288 0.044,-1.591 1.237,-1.89 l -0.134,-0.534 -4.111,1.023 0.133,0.538 c 1.311,-0.329 1.639,-0.198 1.96,1.09 l 0.648,2.603 -3.515,0.877 c -1.113,0.276 -1.486,0.139 -1.727,-0.836 l -0.317,-1.27 c -0.554,-2.226 0.276,-2.707 1.329,-3.051 l -0.144,-0.574 -2.851,0.836 2.33,9.349 0.497,-0.127 c -0.345,-1.389 -0.123,-1.758 1.428,-2.146 l 8.541,-2.128 c 1.547,-0.385 1.921,-0.161 2.268,1.229 z"
   id="path92" />
	<path
   fill="none"
   stroke="#76787b"
   stroke-width="1.5"
   stroke-miterlimit="3.8637"
   d="m 34.295,144.969 -2.41,-9.663 -2.91,0.598 0.144,0.575 c 1.268,-0.254 2.119,0.127 2.544,1.833 l 0.456,1.825 c 0.258,1.031 0.198,1.218 -1.133,1.546 l -4.113,1.027 -0.646,-2.603 c -0.321,-1.288 0.044,-1.591 1.237,-1.89 l -0.134,-0.534 -4.111,1.023 0.133,0.538 c 1.311,-0.329 1.639,-0.198 1.96,1.09 l 0.648,2.603 -3.515,0.877 c -1.113,0.276 -1.486,0.139 -1.727,-0.836 l -0.317,-1.27 c -0.554,-2.226 0.276,-2.707 1.329,-3.051 l -0.144,-0.574 -2.851,0.836 2.33,9.349 0.497,-0.127 c -0.345,-1.389 -0.123,-1.758 1.428,-2.146 l 8.541,-2.128 c 1.547,-0.385 1.921,-0.161 2.268,1.229 z"
   id="path93" />
	<path
   fill-rule="evenodd"
   clip-rule="evenodd"
   fill="#76787b"
   d="m 30.841,130.366 -0.25,-4.761 -0.509,0.026 c 0.076,1.452 -0.217,1.755 -1.811,1.837 l -9.138,0.478 -0.002,-0.037 11.199,-7.325 -0.101,-1.943 -11.203,0.588 c -1.596,0.082 -1.915,-0.168 -1.992,-1.639 l -0.512,0.028 0.249,4.758 0.511,-0.026 c -0.075,-1.43 0.215,-1.751 1.811,-1.833 l 8.565,-0.452 0.002,0.041 -10.645,6.972 0.211,4.002 0.511,-0.026 c -0.077,-1.43 0.215,-1.751 1.809,-1.837 l 8.791,-0.459 c 1.594,-0.082 1.917,0.205 1.992,1.636 z"
   id="path94" />
	<path
   fill="none"
   stroke="#76787b"
   stroke-width="1.5"
   stroke-miterlimit="3.8637"
   d="m 30.841,130.366 -0.25,-4.761 -0.509,0.026 c 0.076,1.452 -0.217,1.755 -1.811,1.837 l -9.138,0.478 -0.002,-0.037 11.199,-7.325 -0.101,-1.943 -11.203,0.588 c -1.596,0.082 -1.915,-0.168 -1.992,-1.639 l -0.512,0.028 0.249,4.758 0.511,-0.026 c -0.075,-1.43 0.215,-1.751 1.811,-1.833 l 8.565,-0.452 0.002,0.041 -10.645,6.972 0.211,4.002 0.511,-0.026 c -0.077,-1.43 0.215,-1.751 1.809,-1.837 l 8.791,-0.459 c 1.594,-0.082 1.917,0.205 1.992,1.636 z"
   id="path95" />
	<path
   fill="#76787b"
   d="m 30.21,113.07 0.665,-4.719 -0.506,-0.071 c -0.204,1.437 -0.547,1.678 -2.128,1.456 l -9.06,-1.273 0.005,-0.041 12.39,-5.055 0.269,-1.925 -11.108,-1.561 c -1.579,-0.222 -1.848,-0.528 -1.643,-1.986 l -0.506,-0.071 -0.665,4.72 0.507,0.071 c 0.2,-1.419 0.547,-1.678 2.126,-1.456 l 8.494,1.193 -0.005,0.041 -11.778,4.811 -0.559,3.971 0.506,0.069 c 0.2,-1.417 0.547,-1.678 2.128,-1.456 l 8.716,1.227 c 1.581,0.22 1.843,0.567 1.643,1.986 z"
   id="path96" />
	<path
   fill="none"
   stroke="#76787b"
   stroke-width="1.5"
   stroke-miterlimit="3.8637"
   d="m 30.21,113.07 0.665,-4.719 -0.506,-0.071 c -0.204,1.437 -0.547,1.678 -2.128,1.456 l -9.06,-1.273 0.005,-0.041 12.39,-5.055 0.269,-1.925 -11.108,-1.561 c -1.579,-0.222 -1.848,-0.528 -1.643,-1.986 l -0.506,-0.071 -0.665,4.72 0.507,0.071 c 0.2,-1.419 0.547,-1.678 2.126,-1.456 l 8.494,1.193 -0.005,0.041 -11.778,4.811 -0.559,3.971 0.506,0.069 c 0.2,-1.417 0.547,-1.678 2.128,-1.456 l 8.716,1.227 c 1.581,0.22 1.843,0.567 1.643,1.986 z"
   id="path97" />
	<path
   fill="#76787b"
   d="m 33.136,95.992 3.08,-9.476 -2.785,-1.033 -0.183,0.564 c 1.208,0.458 1.73,1.229 1.188,2.903 l -0.583,1.791 c -0.329,1.01 -0.476,1.135 -1.781,0.711 l -4.03,-1.311 0.829,-2.548 c 0.411,-1.264 0.885,-1.326 2.052,-0.947 l 0.17,-0.526 -4.029,-1.309 -0.169,0.526 c 1.284,0.417 1.491,0.7 1.081,1.964 l -0.827,2.55 -3.446,-1.12 c -1.09,-0.354 -1.333,-0.67 -1.021,-1.622 l 0.403,-1.246 c 0.709,-2.18 1.667,-2.148 2.744,-1.885 l 0.183,-0.564 -2.86,-0.799 -2.979,9.163 0.485,0.159 c 0.444,-1.363 0.831,-1.559 2.349,-1.066 l 8.371,2.72 c 1.52,0.495 1.718,0.879 1.273,2.242 z"
   id="path98" />
	<path
   fill="none"
   stroke="#76787b"
   stroke-width="1.5"
   stroke-miterlimit="3.8637"
   d="m 33.136,95.992 3.08,-9.476 -2.785,-1.033 -0.183,0.564 c 1.208,0.458 1.73,1.229 1.188,2.903 l -0.583,1.791 c -0.329,1.01 -0.476,1.135 -1.781,0.711 l -4.03,-1.311 0.829,-2.548 c 0.411,-1.264 0.885,-1.326 2.052,-0.947 l 0.17,-0.526 -4.029,-1.309 -0.169,0.526 c 1.284,0.417 1.491,0.7 1.081,1.964 l -0.827,2.55 -3.446,-1.12 c -1.09,-0.354 -1.333,-0.67 -1.021,-1.622 l 0.403,-1.246 c 0.709,-2.18 1.667,-2.148 2.744,-1.885 l 0.183,-0.564 -2.86,-0.799 -2.979,9.163 0.485,0.159 c 0.444,-1.363 0.831,-1.559 2.349,-1.066 l 8.371,2.72 c 1.52,0.495 1.718,0.879 1.273,2.242 z"
   id="path99" />
	<path
   fill="#76787b"
   d="m 38.038,81.877 2.311,-4.167 -0.448,-0.25 c -0.704,1.271 -1.111,1.372 -2.507,0.599 l -8.003,-4.436 0.021,-0.035 13.378,-0.28 0.944,-1.699 -9.812,-5.44 c -1.396,-0.773 -1.535,-1.154 -0.821,-2.442 l -0.448,-0.248 -2.311,4.168 0.448,0.247 c 0.694,-1.251 1.111,-1.371 2.509,-0.598 l 7.501,4.159 -0.021,0.036 -12.719,0.271 -1.945,3.508 0.448,0.247 c 0.694,-1.251 1.111,-1.372 2.509,-0.597 l 7.697,4.266 c 1.396,0.774 1.516,1.193 0.821,2.445 z"
   id="path100" />
	<path
   fill="none"
   stroke="#76787b"
   stroke-width="1.5"
   stroke-miterlimit="3.8637"
   d="m 38.038,81.877 2.311,-4.167 -0.448,-0.25 c -0.704,1.271 -1.111,1.372 -2.507,0.599 l -8.003,-4.436 0.021,-0.035 13.378,-0.28 0.944,-1.699 -9.812,-5.44 c -1.396,-0.773 -1.535,-1.154 -0.821,-2.442 l -0.448,-0.248 -2.311,4.168 0.448,0.247 c 0.694,-1.251 1.111,-1.371 2.509,-0.598 l 7.501,4.159 -0.021,0.036 -12.719,0.271 -1.945,3.508 0.448,0.247 c 0.694,-1.251 1.111,-1.372 2.509,-0.597 l 7.697,4.266 c 1.396,0.774 1.516,1.193 0.821,2.445 z"
   id="path101" />
	<path
   fill="#76787b"
   d="m 44.751,53.225 -2.542,-1.902 c -0.465,0.413 -1.521,1.294 -2.386,2.36 -1.88,2.32 -1.962,4.439 -0.245,5.83 1.273,1.031 2.666,0.87 4.06,0.418 2.123,-0.702 4.203,-2.099 5.761,-0.836 0.971,0.786 1.086,2.169 -0.034,3.554 -1.686,2.082 -3.463,1.249 -4.428,0.784 l -0.373,0.459 2.701,2.031 c 0.583,-0.426 1.705,-1.227 2.722,-2.483 1.958,-2.416 2.533,-4.818 0.292,-6.635 -1.083,-0.875 -2.233,-0.887 -3.469,-0.597 -1.887,0.446 -4.809,2.556 -6.368,1.293 -0.827,-0.67 -0.898,-1.913 0.144,-3.202 1.367,-1.684 2.83,-1.183 3.792,-0.614 z"
   id="path102" />
	<path
   fill="none"
   stroke="#76787b"
   stroke-width="1.5"
   stroke-miterlimit="3.8637"
   d="m 44.751,53.225 -2.542,-1.902 c -0.465,0.413 -1.521,1.294 -2.386,2.36 -1.88,2.32 -1.962,4.439 -0.245,5.83 1.273,1.031 2.666,0.87 4.06,0.418 2.123,-0.702 4.203,-2.099 5.761,-0.836 0.971,0.786 1.086,2.169 -0.034,3.554 -1.686,2.082 -3.463,1.249 -4.428,0.784 l -0.373,0.459 2.701,2.031 c 0.583,-0.426 1.705,-1.227 2.722,-2.483 1.958,-2.416 2.533,-4.818 0.292,-6.635 -1.083,-0.875 -2.233,-0.887 -3.469,-0.597 -1.887,0.446 -4.809,2.556 -6.368,1.293 -0.827,-0.67 -0.898,-1.913 0.144,-3.202 1.367,-1.684 2.83,-1.183 3.792,-0.614 z"
   id="path103" />
	<path
   fill="#76787b"
   d="m 56.686,55.721 4.258,-3.833 -0.342,-0.379 c -1.064,0.958 -1.497,0.935 -2.565,-0.252 l -5.89,-6.54 c -1.07,-1.188 -1.047,-1.621 0.019,-2.578 l -0.342,-0.381 -4.258,3.833 0.341,0.381 c 1.081,-0.973 1.499,-0.936 2.567,0.25 l 5.888,6.542 c 1.07,1.186 1.062,1.605 -0.019,2.578 z"
   id="path104" />
	<path
   fill="none"
   stroke="#76787b"
   stroke-width="1.5"
   stroke-miterlimit="3.8637"
   d="m 56.686,55.721 4.258,-3.833 -0.342,-0.379 c -1.064,0.958 -1.497,0.935 -2.565,-0.252 l -5.89,-6.54 c -1.07,-1.188 -1.047,-1.621 0.019,-2.578 l -0.342,-0.381 -4.258,3.833 0.341,0.381 c 1.081,-0.973 1.499,-0.936 2.567,0.25 l 5.888,6.542 c 1.07,1.186 1.062,1.605 -0.019,2.578 z"
   id="path105" />
	<path
   fill="#76787b"
   d="m 65.717,35.453 -1.921,-2.528 c -0.56,0.269 -1.82,0.825 -2.942,1.611 -2.448,1.711 -3.112,3.726 -1.843,5.535 0.937,1.342 2.322,1.572 3.786,1.523 2.234,-0.091 4.618,-0.86 5.769,0.782 0.717,1.023 0.448,2.386 -1.012,3.407 -2.195,1.536 -3.672,0.246 -4.473,-0.467 l -0.485,0.34 2.039,2.696 c 0.676,-0.249 1.975,-0.709 3.3,-1.636 2.546,-1.785 3.764,-3.935 2.11,-6.298 -0.799,-1.139 -1.902,-1.467 -3.17,-1.529 -1.938,-0.091 -5.328,1.131 -6.478,-0.511 -0.61,-0.872 -0.338,-2.087 1.019,-3.038 1.777,-1.245 3.047,-0.358 3.816,0.452 z"
   id="path106" />
	<path
   fill="none"
   stroke="#76787b"
   stroke-width="1.5"
   stroke-miterlimit="3.8637"
   d="m 65.717,35.453 -1.921,-2.528 c -0.56,0.269 -1.82,0.825 -2.942,1.611 -2.448,1.711 -3.112,3.726 -1.843,5.535 0.937,1.342 2.322,1.572 3.786,1.523 2.234,-0.091 4.618,-0.86 5.769,0.782 0.717,1.023 0.448,2.386 -1.012,3.407 -2.195,1.536 -3.672,0.246 -4.473,-0.467 l -0.485,0.34 2.039,2.696 c 0.676,-0.249 1.975,-0.709 3.3,-1.636 2.546,-1.785 3.764,-3.935 2.11,-6.298 -0.799,-1.139 -1.902,-1.467 -3.17,-1.529 -1.938,-0.091 -5.328,1.131 -6.478,-0.511 -0.61,-0.872 -0.338,-2.087 1.019,-3.038 1.777,-1.245 3.047,-0.358 3.816,0.452 z"
   id="path107" />
	<path
   fill="#76787b"
   d="m 167.359,32.061 c 0,-0.741 0.601,-1.342 1.344,-1.342 0.741,0 1.34,0.601 1.34,1.342 0,0.743 -0.599,1.344 -1.34,1.344 -0.743,0 -1.344,-0.601 -1.344,-1.344 z"
   id="path108" />
	<path
   fill="#76787b"
   d="m 170.465,35.768 c 0,-0.741 0.601,-1.342 1.344,-1.342 0.741,0 1.342,0.601 1.342,1.342 0,0.741 -0.601,1.344 -1.342,1.344 -0.743,0 -1.344,-0.603 -1.344,-1.344 z"
   id="path109" />
	<path
   fill="#76787b"
   d="m 169.485,41.479 c 0,-0.743 0.601,-1.344 1.342,-1.344 0.743,0 1.342,0.601 1.342,1.344 0,0.741 -0.599,1.342 -1.342,1.342 -0.741,0 -1.342,-0.601 -1.342,-1.342 z"
   id="path110" />
	<path
   fill="#76787b"
   d="m 163.534,43.099 c 0,-0.741 0.603,-1.342 1.342,-1.342 0.743,0 1.344,0.601 1.344,1.342 0,0.743 -0.601,1.344 -1.344,1.344 -0.739,0 -1.342,-0.601 -1.342,-1.344 z"
   id="path111" />
	<path
   fill="#76787b"
   d="m 160.269,38.951 c 0,-0.741 0.602,-1.342 1.344,-1.342 0.741,0 1.34,0.601 1.34,1.342 0,0.743 -0.599,1.344 -1.34,1.344 -0.743,0 -1.344,-0.601 -1.344,-1.344 z"
   id="path112" />
	<path
   fill="#76787b"
   d="m 161.691,33.603 c 0,-0.741 0.601,-1.344 1.344,-1.344 0.739,0 1.34,0.603 1.34,1.344 0,0.741 -0.601,1.342 -1.34,1.342 -0.743,0 -1.344,-0.601 -1.344,-1.342 z"
   id="path113" />
	<path
   fill="#76787b"
   d="m 186.246,177.287 c 0,-0.739 0.601,-1.341 1.342,-1.341 0.743,0 1.344,0.602 1.344,1.341 0,0.743 -0.601,1.344 -1.344,1.344 -0.741,0 -1.342,-0.601 -1.342,-1.344 z"
   id="path114" />
	<path
   fill="#76787b"
   d="m 189.352,180.994 c 0,-0.739 0.601,-1.34 1.342,-1.34 0.741,0 1.344,0.601 1.344,1.34 0,0.743 -0.603,1.345 -1.344,1.345 -0.741,0 -1.342,-0.602 -1.342,-1.345 z"
   id="path115" />
	<path
   fill="#76787b"
   d="m 188.372,186.703 c 0,-0.739 0.601,-1.34 1.34,-1.34 0.743,0 1.344,0.601 1.344,1.34 0,0.743 -0.601,1.345 -1.344,1.345 -0.739,0 -1.34,-0.602 -1.34,-1.345 z"
   id="path116" />
	<path
   fill="#76787b"
   d="m 182.421,188.327 c 0,-0.742 0.601,-1.344 1.342,-1.344 0.741,0 1.342,0.602 1.342,1.344 0,0.743 -0.601,1.345 -1.342,1.345 -0.741,0 -1.342,-0.602 -1.342,-1.345 z"
   id="path117" />
	<path
   fill="#76787b"
   d="m 179.156,184.18 c 0,-0.743 0.601,-1.345 1.342,-1.345 0.743,0 1.342,0.602 1.342,1.345 0,0.739 -0.599,1.34 -1.342,1.34 -0.741,0 -1.342,-0.601 -1.342,-1.34 z"
   id="path118" />
	<path
   fill="#76787b"
   d="m 180.578,178.829 c 0,-0.743 0.599,-1.344 1.342,-1.344 0.741,0 1.342,0.601 1.342,1.344 0,0.743 -0.601,1.344 -1.342,1.344 -0.743,0 -1.342,-0.601 -1.342,-1.344 z"
   id="path119" />
	
		<path
   fill="none"
   stroke="#76787b"
   stroke-width="1.5"
   stroke-linecap="round"
   stroke-linejoin="round"
   stroke-miterlimit="3.8637"
   d="m 171.167,141.466 -3.469,6.008 -3.47,-6.008 z m 0,-9.617 -3.469,-6.012 -3.47,6.012 z"
   id="path120" />
	<path
   fill="none"
   stroke="#76787b"
   stroke-width="1.5"
   stroke-linecap="round"
   stroke-miterlimit="3.8637"
   d="m 164.512,136.516 c 0,-1.759 1.426,-3.185 3.187,-3.185 1.759,0 3.185,1.426 3.185,3.185 0,1.759 -1.426,3.185 -3.185,3.185 -1.761,-0.001 -3.187,-1.427 -3.187,-3.185 z m 3.187,-23.101 v 8.572 m 0,27.17 v 10.059"
   id="path121" />
	
		<path
   fill="none"
   stroke="#76787b"
   stroke-width="1.5"
   stroke-linecap="round"
   stroke-linejoin="round"
   stroke-miterlimit="3.8637"
   d="m 160.522,109.176 h 13.792 m -13.792,56.011 h 13.792"
   id="path122" />
	<path
   fill="none"
   stroke="#76787b"
   stroke-width="1.5"
   stroke-miterlimit="3.8637"
   d="m 158.73,85.381 h 19.652 V 92.1 H 158.73 Z m -0.36,12.422 h 19.652 v 6.719 H 158.37 Z m 2.216,7.096 h 14.81 v 65.578 h -14.81 z"
   id="path123" />
	<path
   fill="none"
   stroke="#76787b"
   stroke-width="1.5"
   stroke-linecap="round"
   stroke-miterlimit="3.8637"
   d="m 159.567,93.298 v 3.086 c 0.87,0.041 1.467,-0.189 2.085,-0.801 0.67,-0.666 0.909,-1.348 0.801,-2.285 z m 17.246,0 v 3.497 c -1.081,-0.036 -1.799,-0.385 -2.496,-1.212 -0.609,-0.722 -0.825,-1.34 -0.801,-2.285 z m -13.949,0 c 0.005,0.846 0.155,1.365 0.601,2.083 0.417,0.676 0.778,1.019 1.473,1.402 0.762,-0.446 1.156,-0.838 1.602,-1.602 0.39,-0.665 0.534,-1.116 0.601,-1.883 z m 5.089,0 c 0.004,0.846 0.153,1.365 0.599,2.083 0.417,0.676 0.779,1.019 1.473,1.402 0.946,-0.331 1.477,-0.752 2.012,-1.602 0.413,-0.651 0.56,-1.114 0.602,-1.883 z"
   id="path124" />
	<polygon
   fill="none"
   stroke="#76787b"
   stroke-width="1.5"
   stroke-miterlimit="3.8637"
   points="157.138,170.402 178.022,170.402 178.022,177.123 157.138,177.123 "
   id="polygon124" />
	<path
   fill="none"
   stroke="#76787b"
   stroke-width="1.5"
   stroke-linecap="round"
   stroke-miterlimit="3.8637"
   d="m 61.592,93.226 v 3.084 c 0.87,0.043 1.467,-0.187 2.085,-0.799 0.67,-0.667 0.909,-1.348 0.801,-2.285 z m 17.245,0 v 3.497 C 77.754,96.685 77.038,96.338 76.341,95.511 75.732,94.789 75.516,94.169 75.54,93.226 Z m -13.948,0 c 0.005,0.846 0.155,1.364 0.601,2.085 0.416,0.674 0.776,1.018 1.471,1.4 0.761,-0.446 1.157,-0.84 1.602,-1.602 0.392,-0.665 0.536,-1.116 0.601,-1.883 z m 5.087,0 c 0.006,0.846 0.155,1.364 0.601,2.085 0.417,0.674 0.779,1.018 1.473,1.4 0.946,-0.333 1.477,-0.754 2.012,-1.602 0.413,-0.651 0.56,-1.114 0.601,-1.883 z"
   id="path125" />
	
		<line
   fill="none"
   stroke="#76787b"
   stroke-width="1.5"
   stroke-linecap="round"
   stroke-linejoin="round"
   stroke-miterlimit="3.8637"
   x1="63.299999"
   y1="165.187"
   x2="77.089996"
   y2="165.187"
   id="line125" />
	<path
   fill="none"
   stroke="#76787b"
   stroke-width="1.5"
   stroke-miterlimit="3.8637"
   d="m 62.867,104.899 h 14.81 V 170.1 H 62.867 Z M 59.83,97.803 h 19.652 v 6.719 H 59.83 Z"
   id="path126" />
	
		<path
   fill="none"
   stroke="#76787b"
   stroke-width="1.5"
   stroke-linecap="round"
   stroke-linejoin="round"
   stroke-miterlimit="3.8637"
   d="m 73.692,140.48 -3.468,6.012 -3.469,-6.012 z m 0,-9.618 -3.468,-6.007 -3.469,6.007 z"
   id="path127" />
	<path
   fill="none"
   stroke="#76787b"
   stroke-width="1.5"
   stroke-linecap="round"
   stroke-miterlimit="3.8637"
   d="m 67.037,135.533 c 0,-1.758 1.426,-3.188 3.187,-3.188 1.758,0 3.185,1.431 3.185,3.188 0,1.759 -1.426,3.186 -3.185,3.186 -1.761,0 -3.187,-1.427 -3.187,-3.186 z m 3.187,-23.103 v 8.576 m 0,27.17 v 10.059"
   id="path128" />
	<polygon
   fill="none"
   stroke="#76787b"
   stroke-width="1.5"
   stroke-miterlimit="3.8637"
   points="59.008,170.402 79.891,170.402 79.891,177.123 59.008,177.123 "
   id="polygon128" />
	
		<line
   fill="none"
   stroke="#76787b"
   stroke-width="1.5"
   stroke-linecap="round"
   stroke-linejoin="round"
   stroke-miterlimit="3.8637"
   x1="63.299999"
   y1="109.176"
   x2="77.089996"
   y2="109.176"
   id="line128" />
	<path
   fill="none"
   stroke="#76787b"
   stroke-width="1.5"
   stroke-miterlimit="3.8637"
   d="m 109.961,46.51 c -0.65,0.639 -1.553,1.018 -2.535,0.982 -1.897,-0.065 -3.381,-1.658 -3.315,-3.554 0.067,-1.897 1.658,-3.383 3.556,-3.316 m -5.455,8.298 c -0.489,0.767 -1.286,1.34 -2.248,1.527 -1.865,0.362 -3.668,-0.855 -4.03,-2.718 -0.362,-1.865 0.855,-3.67 2.718,-4.031 m -3.076,8.535 c -0.319,0.85 -0.979,1.576 -1.882,1.96 -1.748,0.741 -3.766,-0.075 -4.507,-1.822 -0.743,-1.748 0.073,-3.765 1.82,-4.506 m -1.782,8.574 c -0.136,0.9 -0.631,1.746 -1.434,2.309 -1.555,1.088 -3.698,0.709 -4.789,-0.846 -1.088,-1.555 -0.711,-3.696 0.846,-4.786 m -0.422,9.185 c 0.054,0.909 -0.254,1.839 -0.922,2.558 -1.295,1.387 -3.469,1.463 -4.857,0.168 -1.389,-1.293 -1.465,-3.469 -0.17,-4.857 m 1.465,8.585 c 0.243,0.875 0.136,1.85 -0.37,2.692 -0.978,1.626 -3.089,2.154 -4.715,1.174 -1.628,-0.976 -2.154,-3.088 -1.176,-4.715 m 2.8,7.756 c 0.405,0.812 0.485,1.792 0.151,2.713 -0.65,1.784 -2.623,2.703 -4.408,2.055 -1.783,-0.65 -2.703,-2.623 -2.054,-4.406 m 59.601,-29.15 c 0.65,0.636 1.553,1.015 2.533,0.982 1.897,-0.065 3.381,-1.658 3.315,-3.555 -0.065,-1.898 -1.658,-3.383 -3.556,-3.315 m 5.456,8.78 c 0.489,0.765 1.286,1.338 2.25,1.527 1.863,0.36 3.668,-0.855 4.03,-2.72 0.362,-1.863 -0.855,-3.667 -2.72,-4.031 m 3.078,9.017 c 0.317,0.851 0.979,1.577 1.88,1.96 1.75,0.743 3.766,-0.073 4.509,-1.82 0.741,-1.747 -0.075,-3.765 -1.822,-4.506 m 1.784,8.574 c 0.134,0.898 0.629,1.748 1.434,2.31 1.553,1.088 3.698,0.711 4.787,-0.846 1.09,-1.553 0.711,-3.698 -0.844,-4.787 m 0.422,9.184 c -0.056,0.908 0.252,1.841 0.92,2.558 1.294,1.389 3.471,1.464 4.859,0.168 1.389,-1.293 1.464,-3.468 0.168,-4.857 m -1.465,8.585 c -0.243,0.876 -0.136,1.852 0.37,2.692 0.978,1.628 3.089,2.154 4.717,1.176 1.626,-0.976 2.154,-3.089 1.176,-4.715 m -2.802,7.755 c -0.405,0.814 -0.487,1.792 -0.151,2.712 0.649,1.785 2.623,2.705 4.407,2.055 1.783,-0.649 2.703,-2.621 2.054,-4.406"
   id="path129" />
	<path
   fill="none"
   stroke="#76787b"
   stroke-width="1.5"
   stroke-miterlimit="3.8637"
   d="m 114.406,42.007 c 0,-3.801 2.003,-6.881 4.477,-6.881 2.474,0 4.479,3.08 4.479,6.881 0,3.803 -2.005,6.883 -4.479,6.883 -2.474,0 -4.477,-3.08 -4.477,-6.883 z"
   id="path130" />
	<path
   fill="none"
   stroke="#76787b"
   stroke-width="1.5"
   stroke-miterlimit="3.8637"
   d="M 115.463,35.725 C 90.354,38.913 66.722,60.054 63.201,84.955 l 13.479,0.09 C 80.279,65.098 97.721,49.969 118.704,49.969 m 0.02,0 c 21.093,0 38.412,14.922 41.884,35.024 l 13.466,-0.038 C 170.613,58.569 149.222,37.76 122.381,36.184"
   id="path131" />
	<path
   fill="none"
   stroke="#76787b"
   stroke-width="1.5"
   stroke-linecap="round"
   stroke-miterlimit="3.8637"
   d="m 122.4,123.011 h 1.824 m -10.589,-10.951 -5.476,1.579 -1.34,0.977 2.315,4.138 1.092,5.108 8.359,-0.729 m 9.923,0.091 h 1.787 l 2.445,-5.322 -0.36,-1.462 -2.804,-1.458 m -18.496,-1.586 2.311,4.505 0.366,2.433 h 3.528 m 4.505,-0.848 3.409,-0.366"
   id="path132" />
	
		<path
   fill="none"
   stroke="#76787b"
   stroke-width="1.5"
   stroke-linecap="round"
   stroke-linejoin="round"
   stroke-miterlimit="3.8637"
   d="m 119.814,116.902 h 5.907 m -19.051,44.715 c -0.558,1.571 -0.842,2.468 -1.288,4.073 -0.513,1.848 -1.042,2.871 -1.124,4.786 -0.019,0.438 -0.019,0.684 0,1.124 m 10.608,-9.196 -1.5,4.783 -0.25,4.036 m 16.555,-9.98 2.123,6.571 -0.25,4.283 m -6.196,-10.107 0.788,7.613 v 2.785 m -6.822,-9.86 0.5,9.86 m -19.59,-13.392 c -0.909,2.441 -1.333,3.864 -1.914,6.406 -0.655,2.879 -0.905,4.541 -1.124,7.486 1.126,0.373 1.768,0.563 2.912,0.874 2.334,0.627 4.983,1.153 6.071,1.247 1.874,0.164 14.47,1.225 23.376,-0.747 1.499,-0.127 3.161,-0.25 5.035,-0.377 0.448,-0.03 1.471,-0.303 1.412,-0.747 -0.288,-2.165 -0.149,-2.957 -0.413,-4.823 -0.329,-2.334 -0.446,-3.696 -1.249,-5.911 -0.444,-1.221 -0.749,-1.896 -1.374,-3.035"
   id="path133" />
	<path
   fill="none"
   stroke="#76787b"
   stroke-width="1.5"
   stroke-miterlimit="3.8637"
   d="m 135.731,95.895 h 14.793 l 5.119,2.705 m -19.546,-2.194 2.602,2.207 -0.044,21.631 -2.552,-2.703 z m 2.488,2.269 h 16.912 v 22.148 H 138.83 m 4.744,0 V 98.675 l -3.282,-2.961 m 6.933,0 3.678,2.606 -0.026,22.014 m -14.926,-19.761 2.758,2.966 h 16.428 m -19.186,8.44 2.513,3.124 h 16.794"
   id="path134" />
	<path
   fill="none"
   stroke="#76787b"
   stroke-width="1.5"
   stroke-linecap="round"
   stroke-miterlimit="3.8637"
   d="m 163.39,37.59 c 0,-1.869 1.516,-3.384 3.386,-3.384 1.871,0 3.387,1.516 3.387,3.384 0,1.873 -1.516,3.387 -3.387,3.387 -1.87,0 -3.386,-1.515 -3.386,-3.387 z M 78.423,30.698 c 0,-1.869 1.518,-3.385 3.387,-3.385 1.871,0 3.386,1.516 3.386,3.385 0,1.871 -1.516,3.386 -3.386,3.386 -1.869,0 -3.387,-1.516 -3.387,-3.386 z"
   id="path135" />
	
		<path
   fill="none"
   stroke="#76787b"
   stroke-width="1.5"
   stroke-linecap="round"
   stroke-linejoin="round"
   stroke-miterlimit="3.8637"
   d="m 97.022,101.929 16.314,44.059 m -14.143,-45.544 18.116,47.373 M 99.537,100.101 c -0.219,-1.254 0.002,-2.158 0.771,-3.172 0.982,-1.294 2.25,-1.811 3.857,-1.572 -1.021,-1.059 -2.203,-1.393 -3.627,-1.029 -0.986,0.252 -1.561,0.652 -2.143,1.486 -0.28,-0.663 -0.487,-1.023 -0.915,-1.6 -0.706,-0.95 -1.239,-1.428 -2.259,-2.029 -0.478,0.934 -0.642,1.553 -0.685,2.601 -0.041,1.029 0.067,1.646 0.458,2.601 -1.1,-0.461 -1.957,-0.461 -3.056,0 -1.209,0.504 -1.873,1.234 -2.257,2.484 1.389,-0.69 2.416,-0.833 3.943,-0.541 0.743,0.142 1.228,0.19 1.828,0.655 0.629,0.491 0.922,0.941 1.114,1.715 0.325,-0.612 0.646,-0.931 1.258,-1.256 0.6,-0.32 1.033,-0.406 1.713,-0.343 z m -1.6,4.772 c 0.056,-0.542 0.312,-0.905 0.799,-1.145 0.513,-0.25 0.991,-0.211 1.458,0.116 m -1.114,3.513 c -0.14,-0.534 0.019,-1.004 0.458,-1.342 0.56,-0.433 1.366,-0.331 1.799,0.229 m 27.296,32.997 c 2.102,2.688 3.09,4.424 4.324,7.609 1.695,4.372 2.166,7.168 1.998,11.854 h -5.784 c -1.581,0.66 -2.52,0.948 -4.198,1.288 -2.446,0.496 -3.893,0.402 -6.387,0.377 -3.286,-0.041 -5.345,-0.25 -8.38,-0.878 -1.455,-0.299 -2.016,-0.433 -3.286,-0.787 -2.041,0.593 -3.409,0.593 -5.449,0 -0.934,-0.273 -1.451,-0.497 -2.285,-0.997 0.149,-2.39 0.351,-3.745 0.913,-6.071 0.42,-1.751 0.727,-2.729 1.373,-4.413 m 5.198,4.287 -0.375,2.785 v 2.412 m 12.855,-17.466 0.788,2.912 0.25,5.32 m 3.536,-7.945 c 1.572,3.401 2.279,5.429 3.161,9.069 0.741,3.062 1.019,4.843 1.249,7.986 m -27.537,-36.895 1.499,0.377 2.412,2.621 -2.412,-5.283 -2.498,1.623 -2.037,3.825 -0.5,1.624 5.41,1.784 3.948,3.125 m -9.107,-4.163 c -0.235,0.927 -0.433,1.441 -0.874,2.289 -1.114,2.136 -3.089,2.341 -4.324,4.409 -0.61,1.023 -0.907,1.646 -1.25,2.786 -0.358,1.194 -0.612,1.919 -0.499,3.162 0.11,1.194 0.032,2.203 0.999,2.912 0.624,0.455 1.146,0.59 1.914,0.5 0.988,-0.601 1.488,-1.161 2.623,-1.377 4.198,-0.788 5.698,-1.162 8.733,-2.035 1.027,-0.344 1.875,-0.25 2.162,-1.747 0.457,-2.383 -0.625,-3.286 -1.038,-5.201 l 0.663,-1.124 m -0.414,8.195 c 1.109,0.739 1.688,1.262 2.535,2.289 0.945,1.143 1.385,1.9 1.912,3.285 -0.853,0.915 -1.393,1.393 -2.41,2.121 -0.698,0.504 -1.114,0.762 -1.874,1.165 -1.654,0.328 -2.653,0.358 -4.322,0.123 -2.309,-0.321 -3.667,-0.821 -5.574,-2.162 -1.417,-0.993 -2.143,-1.729 -3.122,-3.158 m 11.98,5.821 c -0.039,0.71 0.192,1.225 0.75,1.661 0.627,0.497 1.307,0.579 2.037,0.251 1.787,-0.661 5.074,-3.536 5.074,-3.536 l -1.914,-2.162 m -2.91,6.198 c 0.926,1.654 1.625,2.523 3.036,3.79 1.273,1.139 2.11,1.691 3.661,2.408 l 1.124,0.873 1.664,0.123 m -2.54,-3.408 c 0.784,0.582 1.191,0.978 1.789,1.747 0.597,0.77 0.415,1.661 1.249,2.162 0.89,0.537 1.771,0.537 2.662,0 m -3.038,-4.533 1.251,2.121 0.788,2.289 m 10.855,-31.859 c 0.859,1.205 1.126,2.184 0.999,3.658 -0.09,1.046 -0.485,1.568 -0.874,2.535 -0.467,1.169 -0.773,1.812 -1.374,2.913 l -6.446,-0.747 -4.389,-0.127 -6.007,0.623 m 1.163,3.163 6.946,-0.377 8.321,0.75 0.413,-2.162 m 11.48,-14.139 c -0.586,0.41 -0.861,0.832 -0.999,1.534 -0.104,0.53 -0.073,0.874 0.125,1.374 0.81,0.34 1.279,0.508 2.123,0.75 1.208,0.348 1.913,0.485 3.16,0.624 0.383,-0.862 0.766,-1.329 1.539,-1.874 1.376,-0.968 2.679,0.003 4.284,-0.501 0.771,-0.238 1.126,-0.612 1.914,-0.787 0.965,-0.21 2.098,0.888 2.535,0 0.217,-0.434 0.217,-0.811 0,-1.247 m -16.717,4.16 c 1.021,-0.396 1.697,-0.489 2.787,-0.374 1.451,0.149 2.057,0.99 3.409,1.539 0.5,0.201 1.326,-0.041 1.288,0.496 -0.123,1.874 -1.363,1.982 -2.662,2.001 -1.148,0.016 -1.4,-1.317 -2.535,-1.501 -0.838,-0.134 -1.516,0.803 -2.162,0.251 -0.299,-0.254 -0.433,-0.485 -0.5,-0.874 m -5.784,-8.359 2.498,1.914 1.413,6.317 m 1.374,0.378 -2.537,1.124 -3.536,4.323 m 12.019,-3.162 c -1.912,3.162 -2.285,4.163 -3.411,8.195 -0.599,2.154 -1.536,5.074 -4.034,7.448 -0.726,0.688 -1.288,1.24 -2.287,1.161 -0.461,-0.037 -0.734,-0.127 -1.126,-0.373 m 16.682,-23.375 1.247,-0.165"
   id="path136" />
	<path
   fill="#0069aa"
   d="m 392.141,24.039 c 0,-4.129 -3.54,-7.521 -7.52,-7.521 -4.129,0 -7.521,3.392 -7.521,7.521 0,4.129 3.392,7.52 7.521,7.52 3.98,-0.001 7.52,-3.391 7.52,-7.52 z"
   id="path137" />
	<path
   fill="#0069aa"
   d="m 390.519,45.479 c -2.212,0.147 -3.982,0.442 -5.897,0.442 -2.064,0 -3.984,-0.295 -5.899,-0.442 v 70.488 c 1.915,-0.149 3.834,-0.442 5.899,-0.442 1.916,0 3.685,0.293 5.897,0.442 z"
   id="path138" />
	<path
   fill="#0069aa"
   d="m 448.047,77.331 -8.849,20.791 c -0.586,1.327 -1.77,2.655 -2.801,4.129 -9.144,-20.644 -17.843,-43.059 -21.973,-56.772 -2.505,0.147 -4.424,0.442 -6.489,0.442 -2.36,0 -4.572,-0.295 -6.637,-0.442 9.29,20.498 23.745,56.477 28.905,70.488 1.475,-0.149 2.949,-0.442 4.573,-0.442 1.325,0 2.801,0.293 4.421,0.442 7.374,-21.383 22.122,-53.825 30.082,-70.488 -1.766,0.147 -3.244,0.442 -4.716,0.442 -1.624,0 -3.244,-0.295 -4.719,-0.442 z"
   id="path139" />
	<path
   fill-rule="evenodd"
   clip-rule="evenodd"
   fill="#0069aa"
   d="m 530.673,100.777 c -3.979,3.834 -11.795,10.174 -21.823,10.174 -17.843,0 -26.838,-14.154 -25.512,-30.67 h 20.792 c 9.88,0 19.908,0.146 29.937,0.442 1.476,-24.627 -13.567,-36.129 -29.937,-36.129 -21.969,0 -33.767,15.779 -33.767,36.276 0,22.856 14.449,36.274 34.801,36.274 8.995,0 18.135,-3.54 25.363,-8.699 z M 483.338,74.824 c 0.885,-12.387 6.933,-25.658 20.792,-25.658 14.599,0 18.139,12.829 18.434,25.658 z"
   id="path140" />
	<path
   fill="#0069aa"
   d="m 543.995,115.967 c 1.915,-0.149 3.83,-0.442 5.896,-0.442 1.919,0 3.688,0.293 5.898,0.442 V 77.773 c 0,-7.964 0.295,-12.831 5.455,-18.728 2.214,-2.507 6.194,-3.687 9.438,-3.687 2.51,0 4.72,1.77 6.934,2.36 l 2.064,-12.386 c -1.329,-0.59 -2.509,-0.738 -4.573,-0.738 -7.37,0 -13.714,6.194 -18.579,13.861 l -0.739,1.77 V 45.479 c -2.21,0.147 -3.979,0.442 -5.898,0.442 -2.065,0 -3.98,-0.295 -5.896,-0.442 z"
   id="path141" />
	<path
   fill="#0069aa"
   d="m 582.866,101.662 c -0.587,3.687 -1.916,7.227 -3.096,10.766 5.16,3.097 12.389,4.717 18.434,4.717 12.975,0 27.132,-7.52 27.132,-23.298 0,-23.595 -34.801,-13.566 -34.801,-32.442 0,-7.962 6.048,-12.239 13.418,-12.239 5.455,0 10.619,4.865 12.534,9.732 h 1.329 c 0.885,-3.54 2.065,-7.077 3.54,-10.471 -2.655,-1.62 -8.994,-3.833 -16.663,-3.833 -13.273,0 -24.038,7.667 -24.038,21.825 0,25.805 34.802,12.829 34.802,32.735 0,7.816 -7.225,13.419 -14.453,13.419 -6.93,0 -13.419,-5.16 -16.954,-10.912 h -1.184 z"
   id="path142" />
	<path
   fill="#0069aa"
   d="m 652.192,24.039 c 0,-4.129 -3.539,-7.521 -7.52,-7.521 -4.129,0 -7.52,3.392 -7.52,7.521 0,4.129 3.391,7.52 7.52,7.52 3.981,-0.001 7.52,-3.391 7.52,-7.52 z"
   id="path143" />
	<path
   fill="#0069aa"
   d="m 650.572,45.479 c -2.21,0.147 -3.98,0.442 -5.899,0.442 -2.064,0 -3.979,-0.295 -5.899,-0.442 v 70.488 c 1.92,-0.149 3.835,-0.442 5.899,-0.442 1.919,0 3.689,0.293 5.899,0.442 z"
   id="path144" />
	<path
   fill="#0069aa"
   d="M 672.619,30.881 V 45.48 h -9.144 c 0.444,1.917 0.444,3.687 0,5.602 h 9.144 v 42.911 c -0.739,17.993 5.75,23.152 16.959,23.152 4.274,0 8.404,-1.178 12.385,-2.654 v -3.54 c -2.211,0.444 -4.425,1.034 -6.635,1.034 -12.239,0 -10.914,-14.896 -10.914,-23.89 V 51.082 h 15.633 c -0.444,-1.473 -0.444,-3.538 0,-5.602 H 684.414 V 26.309 Z"
   id="path145" />
	<path
   fill="#0069aa"
   d="M 781.714,30.881 V 45.48 h -9.141 c 0.44,1.917 0.44,3.687 0,5.602 h 9.141 v 42.911 c -0.735,17.993 5.753,23.152 16.958,23.152 4.279,0 8.404,-1.178 12.389,-2.654 v -3.54 c -2.215,0.444 -4.425,1.034 -6.635,1.034 -12.243,0 -10.914,-14.896 -10.914,-23.89 V 51.082 h 15.629 c -0.44,-1.473 -0.44,-3.538 0,-5.602 H 793.512 V 26.309 Z"
   id="path146" />
	<path
   fill="#0069aa"
   d="m 369.933,130 c -1.77,0.149 -3.097,0.444 -4.572,0.444 -1.768,0 -3.245,-0.295 -4.72,-0.444 -3.095,10.029 -15.041,39.077 -21.676,54.855 -6.784,-15.483 -15.041,-39.962 -18.875,-54.855 -1.475,0.149 -2.655,0.444 -3.834,0.444 -1.327,0 -2.653,-0.295 -3.833,-0.444 -4.867,15.483 -14.599,41.731 -20.646,54.71 -7.077,-17.108 -13.566,-36.866 -18.726,-54.71 -2.509,0.149 -4.424,0.444 -6.489,0.444 -2.212,0 -4.424,-0.295 -6.489,-0.444 7.964,18.434 17.401,43.796 26.101,70.488 1.327,-0.149 2.654,-0.444 3.982,-0.444 1.327,0 2.507,0.295 3.982,0.444 7.077,-22.563 15.188,-44.091 20.055,-53.529 5.455,13.567 14.304,39.226 18.138,53.529 1.326,-0.149 2.653,-0.444 3.98,-0.444 1.18,0 2.359,0.295 3.981,0.444 9.143,-26.987 24.479,-60.313 29.641,-70.488 z"
   id="path147" />
	<path
   fill="#0069aa"
   d="m 390.498,130 c -2.212,0.149 -3.982,0.444 -5.899,0.444 -2.064,0 -3.982,-0.295 -5.899,-0.444 v 70.488 c 1.917,-0.149 3.834,-0.444 5.899,-0.444 1.917,0 3.687,0.295 5.899,0.444 z"
   id="path148" />
	<path
   fill-rule="evenodd"
   clip-rule="evenodd"
   fill="#0069aa"
   d="m 463.657,185.3 c -3.983,3.834 -11.798,10.174 -21.827,10.174 -17.839,0 -26.838,-14.158 -25.508,-30.672 h 20.792 c 9.88,0 19.908,0.146 29.934,0.44 1.475,-24.623 -13.564,-36.127 -29.934,-36.127 -21.973,0 -33.771,15.778 -33.771,36.276 0,22.857 14.453,36.276 34.802,36.276 8.994,0 18.138,-3.54 25.362,-8.699 z m -47.335,-25.953 c 0.885,-12.388 6.93,-25.657 20.792,-25.657 14.599,0 18.139,12.828 18.434,25.657 z"
   id="path149" />
	<path
   fill="#0069aa"
   d="m 476.681,200.488 c 1.919,-0.149 3.834,-0.444 5.899,-0.444 1.915,0 3.685,0.295 5.898,0.444 v -34.212 c 0,-18.138 3.835,-29.492 19.318,-29.492 13.859,0 16.368,10.765 16.368,24.478 v 39.227 c 1.915,-0.149 3.835,-0.444 5.896,-0.444 1.919,0 3.689,0.295 5.899,0.444 v -42.616 c 0,-19.468 -6.635,-28.757 -23.739,-28.757 -10.473,0 -18.582,5.31 -23.742,14.304 V 130 c -2.214,0.149 -3.983,0.444 -5.898,0.444 -2.065,0 -3.98,-0.295 -5.899,-0.444 z"
   id="path150" />
	<path
   fill-rule="evenodd"
   clip-rule="evenodd"
   fill="#0069aa"
   d="m 760.342,69.317 c 0,-16.85 -8.498,-25.053 -24.152,-25.053 -8.801,0 -16.854,3.282 -24.008,8.203 v 8.349 h 1.639 c 1.046,-3.28 6.859,-10.286 17.742,-10.286 11.187,0 17.448,6.411 17.448,17.445 0,7.156 -4.025,8.052 -15.805,9.989 -14.017,2.237 -27.589,4.475 -27.589,21.473 0,11.035 9.249,18.192 19.834,18.192 8.945,0 15.805,-3.131 22.069,-9.394 l 1.341,-1.342 c 1.194,8.798 7.605,9.991 15.36,8.649 1.639,-0.299 3.427,-1.043 4.473,-1.492 v -3.28 c -8.797,1.938 -8.353,-1.043 -8.353,-6.859 V 69.317 Z m -11.929,31.76 c 0,1.044 -2.979,3.579 -4.025,4.623 -2.833,2.832 -7.903,5.666 -11.929,5.666 -9.095,0 -14.613,-4.622 -14.613,-14.016 0,-13.568 15.211,-15.06 25.348,-17 l 5.22,-1.043 v 21.77 z"
   id="path151" />
	<path
   fill="#0069aa"
   d="m 725.937,24.039 c 0,-3.922 -3.36,-7.144 -7.143,-7.144 -3.924,0 -7.146,3.222 -7.146,7.144 0,3.922 3.223,7.145 7.146,7.145 3.782,-0.001 7.143,-3.223 7.143,-7.145 z"
   id="path152" />
	<path
   fill="#0069aa"
   d="m 759.271,24.039 c 0,-3.922 -3.364,-7.144 -7.146,-7.144 -3.92,0 -7.143,3.222 -7.143,7.144 0,3.922 3.223,7.145 7.143,7.145 3.781,-0.001 7.146,-3.223 7.146,-7.145 z"
   id="path153" />
	<path
   fill="#0069aa"
   d="m 315.7,45.479 v 13.096 c 5.169,-8.798 13.211,-13.981 23.554,-13.981 17.106,0 23.742,9.29 23.742,28.755 v 42.618 c -2.212,-0.149 -3.982,-0.442 -5.899,-0.442 -2.065,0 -3.98,0.293 -5.899,0.442 V 76.741 c 0,-13.714 -2.505,-24.479 -16.366,-24.479 -13.585,0 -18.202,8.74 -19.131,23.134 v 40.572 c -2.312,-0.151 -4.035,-0.442 -5.897,-0.442 -2.182,0.015 -4.038,0.298 -5.899,0.442 l -0.187,-12.333 c -4.753,8.772 -13.072,13.51 -23.259,13.51 -16.221,0 -24.331,-8.404 -24.331,-28.313 V 45.479 c 1.916,0.147 3.833,0.442 5.897,0.442 1.917,0 3.687,-0.295 5.897,-0.442 v 39.814 c 0,15.483 4.572,24.627 17.843,24.627 13.029,0 17.097,-9.958 17.952,-19.428 V 45.479 c 2.042,0.144 3.909,0.423 5.897,0.442 2.051,0 3.774,-0.292 5.899,-0.442 z"
   id="path154" />
	<path
   fill="none"
   stroke="#76787b"
   stroke-width="1.5"
   stroke-miterlimit="3.8637"
   d="M 59.12,172.811 C 44.968,159.022 37.45,139.406 37.45,117.577 c 0,-43.131 35.839,-80.25 78.975,-81.308 M 11.06,117.576 C 11.06,58.16 59.223,9.998 118.637,9.998 c 59.414,0 107.578,48.163 107.578,107.578 0,59.412 -48.165,107.576 -107.578,107.576 -59.414,0 -107.577,-48.164 -107.577,-107.576 z m 110.629,-81.16 c 42.898,2.175 78.136,37.721 78.136,81.16 0,21.041 -8.664,40.602 -21.793,55.025 m -10.893,10.066 c -10.48,8.199 -30.504,15.61 -46.2,16.63 m -6.723,-0.299 C 97.379,198.121 83.76,192.457 71.171,182.857"
   id="path155" />
	
		<path
   fill="none"
   stroke="#76787b"
   stroke-width="1.5"
   stroke-linecap="round"
   stroke-linejoin="round"
   stroke-miterlimit="3.8637"
   d="m 66.785,180.263 c 0,-1.706 1.385,-3.092 3.093,-3.092 1.708,0 3.093,1.386 3.093,3.092 0,1.71 -1.385,3.096 -3.093,3.096 -1.708,-0.001 -3.093,-1.386 -3.093,-3.096 z m 98.575,0 c 0,-1.706 1.387,-3.092 3.095,-3.092 1.708,0 3.093,1.386 3.093,3.092 0,1.71 -1.385,3.096 -3.093,3.096 -1.708,-0.001 -3.095,-1.386 -3.095,-3.096 z"
   id="path156" />
	<path
   fill="none"
   stroke="#76787b"
   stroke-width="1.5"
   stroke-linecap="round"
   stroke-miterlimit="3.8637"
   d="m 111.606,20.884 c 0.801,-2.658 4.21,-4.012 6.618,-2.628 1.467,0.844 2.195,2.005 2.273,3.696 0.088,1.912 -1.004,3.026 -2.496,4.227 -0.991,0.801 -1.707,1.139 -2.955,1.398 m -13.185,-0.309 c -5.703,3.476 -7.723,0.908 -7.809,-2.109 -0.079,-2.782 2.583,-4.133 5.599,-4.424 5.666,-0.549 7.495,6.622 14.918,6.836 l 1.758,-0.03 1.604,-0.028 c 7.41,-0.476 8.989,-7.704 14.67,-7.354 3.022,0.185 5.729,1.445 5.75,4.229 0.021,3.015 -1.91,5.653 -7.73,2.378"
   id="path157" />
	<path
   fill="none"
   stroke="#76787b"
   stroke-width="1.5"
   stroke-miterlimit="3.8637"
   d="m 52.741,91.415 c 0,0 -2.97,4.37 -4.494,7.372 -1.297,2.562 -2.884,6.773 -2.884,6.773 1.357,1.557 2.095,2.041 2.884,3.687 1,2.083 0.777,2.571 0.534,3.989 m 5.239,-2.307 c -4.122,1.9 -10.667,4.811 -10.82,6.973 -0.228,3.28 5.574,7.57 9.935,10.46 2.123,-2.853 2.905,-5.025 3.086,-8.572 0.183,-3.558 -0.377,-5.806 -2.201,-8.861 z m 1.4,3.687 -4.488,1.883 m 5.089,3.286 h -5.289 m 4.488,4.69 -4.887,-1.886 m -1.89,2.606 c -0.257,1.19 -0.481,1.859 -0.997,2.964 -0.823,1.771 -1.494,2.719 -2.884,4.089 1.574,2.154 2.572,3.304 4.486,5.167 1.501,1.464 2.406,2.236 4.086,3.487"
   id="path158" />
	<path
   fill="none"
   stroke="#76787b"
   stroke-width="1.5"
   stroke-miterlimit="3.8637"
   d="m 184.767,91.415 c 0,0 2.97,4.37 4.494,7.372 1.299,2.562 2.886,6.773 2.886,6.773 -1.359,1.557 -2.097,2.041 -2.886,3.687 -1,2.083 -0.952,2.739 -0.709,4.157 m -5.062,-2.475 c 4.664,0.526 10.505,7.426 11.524,9.387 1.059,2.034 -6.86,6.32 -10.641,8.046 -2.123,-2.853 -2.905,-5.025 -3.086,-8.572 -0.181,-3.558 0.378,-5.806 2.203,-8.861 z m -1.402,3.687 4.486,1.883 m -5.087,3.286 h 5.289 m -4.488,4.69 4.887,-1.886 m 1.884,3.432 c 0.144,1.561 0.374,2.452 1.002,3.887 0.782,1.788 1.464,2.751 2.884,4.088 -1.574,2.154 -2.572,3.308 -4.488,5.171 -1.499,1.46 -2.404,2.233 -4.084,3.483"
   id="path159" />
	
		<path
   fill="none"
   stroke="#76787b"
   stroke-width="1.5"
   stroke-linecap="round"
   stroke-linejoin="round"
   stroke-miterlimit="3.8637"
   d="m 83.021,169.354 14.563,-0.127 m 38.534,0.127 17.053,-0.127 m -45.752,-33.772 1.25,-0.5 m 12.643,22.626 c 0,-0.635 -0.026,-0.993 -0.123,-1.624 -0.271,-1.732 -0.657,-2.733 -1.624,-4.197 l -1.664,-3.035 -2.537,-1.501 -1.622,-0.624"
   id="path160" />
</g></g><text
       xml:space="preserve"
       style="font-style:normal;font-variant:normal;font-weight:600;font-stretch:normal;font-size:16.9333px;line-height:1;font-family:'Source Sans Pro';-inkscape-font-specification:'Source Sans Pro, Semi-Bold';font-variant-ligatures:normal;font-variant-caps:normal;font-variant-numeric:normal;font-variant-east-asian:normal;fill:#0069aa;fill-opacity:1;stroke-width:0;stroke-dasharray:none"
       x="78.584663"
       y="89.658134"
       id="text1"><tspan
         style="font-style:normal;font-variant:normal;font-weight:600;font-stretch:normal;font-size:16.9333px;line-height:1;font-family:'Source Sans Pro';-inkscape-font-specification:'Source Sans Pro, Semi-Bold';font-variant-ligatures:normal;font-variant-caps:normal;font-variant-numeric:normal;font-variant-east-asian:normal;fill:#0069aa;fill-opacity:1;stroke-width:0;stroke-dasharray:none"
         x="78.584663"
         y="89.658134"
         id="tspan6">Vienna Doctoral School of Philosophy</tspan></text></g></svg>
